<svg width="120" height="45" viewBox="0 0 120 45" fill="none" xmlns="http://www.w3.org/2000/svg">
<path fill-rule="evenodd" clip-rule="evenodd" d="M5.90797 45C2.66811 44.9942 0.00577514 42.3319 0 39.092V5.90798C0.00577514 2.66812 2.66811 0.00577515 5.90797 0H113.909C117.149 0.00577515 119.811 2.66812 119.817 5.90798V39.0862C119.811 42.3261 117.149 44.9884 113.909 44.9942H5.90797V45Z" fill="#015A75"/>
<path fill-rule="evenodd" clip-rule="evenodd" d="M5.90851 0.92411C3.17686 0.929886 0.924561 3.17642 0.924561 5.90807V39.0863C0.930336 41.818 3.17686 44.0703 5.90851 44.0703H40.6171V0.92411H5.90851ZM87.6209 30.9549L88.3602 29.9154C88.8915 30.4698 89.6307 30.7817 90.3988 30.7817C91.1496 30.7817 91.5134 30.4352 91.5134 30.0713C91.5134 29.6035 90.9186 29.4649 90.214 29.2917C89.1629 29.0549 87.8231 28.7661 87.8231 27.305C87.8231 26.2366 88.7471 25.353 90.2544 25.353C91.2766 25.353 92.1198 25.6591 92.755 26.2482L91.9927 27.2473C91.4787 26.791 90.8146 26.5427 90.1274 26.5485C89.5441 26.5485 89.2149 26.8084 89.2149 27.1895C89.2149 27.6053 89.804 27.7382 90.4912 27.8999C91.5423 28.1482 92.8937 28.4658 92.8937 29.9212C92.8937 31.0935 92.0563 31.9771 90.3295 31.9771C89.0994 31.9656 88.21 31.5613 87.6209 30.9549ZM81.7765 30.9549L82.5157 29.9154C83.047 30.4698 83.7863 30.7817 84.5544 30.7817C85.3051 30.7817 85.6689 30.4352 85.6689 30.0713C85.6689 29.6035 85.0741 29.4649 84.3753 29.2917C83.3242 29.0549 81.9844 28.7661 81.9844 27.305C81.9844 26.2366 82.9084 25.353 84.4158 25.353C85.4322 25.353 86.2811 25.6591 86.9164 26.2482L86.1598 27.2473C85.6458 26.791 84.9817 26.5427 84.2945 26.5485C83.7112 26.5485 83.382 26.8084 83.382 27.1895C83.382 27.6053 83.9711 27.7382 84.6583 27.8999C85.7094 28.1482 87.0608 28.4658 87.0608 29.9212C87.0608 31.0935 86.2234 31.9771 84.4966 31.9771C83.2607 31.9656 82.3771 31.5613 81.7765 30.9549ZM60.4951 30.9549L61.2343 29.9154C61.7657 30.4698 62.5049 30.7817 63.273 30.7817C64.0237 30.7817 64.3876 30.4352 64.3876 30.0713C64.3876 29.6035 63.7927 29.4649 63.0882 29.2917C62.0371 29.0549 60.6973 28.7661 60.6973 27.305C60.6973 26.2366 61.6213 25.353 63.1286 25.353C64.1508 25.353 64.994 25.6591 65.6292 26.2482L64.8669 27.2473C64.3529 26.791 63.6888 26.5427 63.0015 26.5485C62.4182 26.5485 62.0891 26.8084 62.0891 27.1895C62.0891 27.6053 62.6723 27.7382 63.3654 27.8999C64.4164 28.1482 65.7678 28.4658 65.7678 29.9212C65.7678 31.0935 64.9304 31.9771 63.2037 31.9771C61.9793 31.9656 61.0957 31.5613 60.4951 30.9549ZM53.8075 29.3032V25.4454H55.2051V29.2512C55.2051 30.1464 55.7306 30.7586 56.7124 30.7586C57.6942 30.7586 58.2139 30.1406 58.2139 29.2512V25.4454H59.6115V29.2917C59.6115 30.8856 58.6702 31.9713 56.7182 31.9713C54.772 31.9771 53.8075 30.8798 53.8075 29.3032ZM73.8877 31.8616L70.8326 27.6804V31.8616H69.4697V25.4454H70.8673L73.8415 29.4649V25.4454H75.2044V31.8558H73.8877V31.8616ZM66.7669 31.8616V25.4454H68.1299V31.8558H66.7669V31.8616ZM76.5385 31.8616V25.4454H81.0835V26.6466H77.9072V28.0038H81.0142V29.205H77.9072V30.6546H81.0777V31.8558L76.5385 31.8616ZM47.374 31.8616V25.4454H50.7467C51.971 25.4454 52.5947 26.2251 52.5947 27.0798C52.5947 27.8883 52.0923 28.4254 51.4917 28.5524C52.1731 28.6564 52.716 29.3205 52.716 30.1233C52.716 31.082 52.075 31.8558 50.8506 31.8558L47.374 31.8616ZM51.3242 29.9385C51.3242 29.5342 51.0354 29.1877 50.4984 29.1877H48.7427V30.6777H50.4984C51.0123 30.6777 51.3242 30.3947 51.3242 29.9385ZM51.2029 27.3166C51.2029 26.9296 50.8853 26.6178 50.5041 26.6178C50.4868 26.6178 50.4695 26.6178 50.4522 26.6178H48.7427V28.0154H50.4522C50.9142 28.0154 51.2029 27.7266 51.2029 27.3223V27.3166ZM53.7093 17.6432C53.7093 15.6739 55.1993 14.3225 57.1224 14.3225C58.2428 14.2936 59.2823 14.9058 59.8021 15.8933L58.6297 16.4708C58.341 15.9106 57.7635 15.5468 57.1282 15.5353C55.9674 15.5353 55.1185 16.4304 55.1185 17.6316C55.1185 18.8329 55.9616 19.728 57.1282 19.728C57.7635 19.7222 58.3468 19.3642 58.6355 18.7982L59.8021 19.3815C59.3401 20.1785 58.5316 20.9523 57.1224 20.9523C55.2051 20.9581 53.7093 19.6183 53.7093 17.6432ZM60.3796 17.6432C60.3796 15.6739 61.8696 14.3225 63.7927 14.3225C64.9131 14.2936 65.9526 14.9058 66.4724 15.8933L65.3 16.4708C65.0055 15.9049 64.428 15.5468 63.7927 15.5353C62.6319 15.5353 61.783 16.4304 61.783 17.6316C61.783 18.8329 62.6261 19.728 63.7927 19.728C64.428 19.7222 65.0113 19.3642 65.3 18.7982L66.4724 19.3642C66.0104 20.1612 65.2019 20.935 63.7927 20.935C61.8754 20.9581 60.3796 19.6183 60.3796 17.6432ZM70.9828 20.8484L69.7238 18.5788H68.7247V20.8484H67.3618V14.438H70.3591C71.6931 14.438 72.5132 15.31 72.5132 16.5055C72.5132 17.6374 71.8028 18.2553 71.1156 18.4113L72.5594 20.8599L70.9828 20.8484ZM51.7978 20.8484L51.4051 19.7627H48.6561L48.2518 20.8484H46.6925L49.1758 14.438H50.8853L53.357 20.8484H51.7978ZM100.286 20.8484V14.438H102.815C104.825 14.438 106.217 15.7143 106.217 17.649C106.217 19.5836 104.819 20.8484 102.815 20.8484H100.286ZM94.6146 20.8484V14.438H99.1597V15.6392H95.9776V16.9964H99.0788V18.1976H95.9776V19.6472H99.1481V20.8484H94.6146ZM86.2522 20.8484V14.438H87.6152V20.8484H86.2522ZM79.2817 20.8484V14.438H81.8112C83.8209 14.438 85.2127 15.7143 85.2127 17.649C85.2127 19.5836 83.8151 20.8484 81.8112 20.8484H79.2817ZM73.6105 20.8484V14.438H78.1555V15.6392H74.9734V16.9964H78.0804V18.1976H74.9734V19.6472H78.144V20.8484H73.6105ZM90.4334 20.8484V15.6392H88.5565V14.438H93.6733V15.6392H91.8079V20.8484H90.4334ZM104.831 17.649C104.831 16.517 104.132 15.6392 102.821 15.6392H101.66V19.6472H102.821C104.08 19.6472 104.819 18.7347 104.819 17.649H104.831ZM83.8267 17.649C83.8267 16.517 83.1279 15.6392 81.8169 15.6392H80.6561V19.6472H81.8169C83.0759 19.6472 83.8151 18.7347 83.8151 17.649H83.8267ZM50.0306 15.8009L49.0315 18.5614H51.0297L50.0306 15.8009ZM71.1156 16.4997C71.1156 15.9626 70.7056 15.6334 70.1569 15.6334H68.7247V17.366H70.1569C70.7056 17.366 71.1156 17.0426 71.1156 16.4997Z" fill="white"/>
<path fill-rule="evenodd" clip-rule="evenodd" d="M14.3574 37.0708C15.2698 37.475 15.7145 37.7407 15.8878 38.8726C16.1823 40.8477 14.3631 41.5985 12.6479 41.5985H8.62842V32.982H12.6826C14.1379 32.982 15.4662 33.6461 15.4662 35.2689C15.4662 36.0774 15.0446 36.6665 14.3574 37.0708ZM22.4079 37.0708C23.3204 37.475 23.7651 37.7407 23.9383 38.8726C24.2328 40.8477 22.4137 41.5985 20.6985 41.5985H16.679V32.982H20.7331C22.1884 32.982 23.5167 33.6461 23.5167 35.2689C23.5167 36.0774 23.0951 36.6665 22.4079 37.0708ZM31.9889 38.8784C31.8156 37.7465 31.3651 37.4808 30.4584 37.0765C31.1457 36.6723 31.573 36.0832 31.573 35.2689C31.573 33.6461 30.2448 32.982 28.7894 32.982H24.7353V41.6043H28.7548C30.4642 41.6043 32.2892 40.8535 31.9889 38.8784ZM33.1092 39.5368V39.5194C33.1092 38.4279 34.0044 37.5328 35.0959 37.5328C36.1874 37.5328 37.0825 38.4279 37.0825 39.5137V39.531C37.0825 40.6225 36.1874 41.5176 35.0959 41.5176C34.0102 41.5234 33.115 40.6283 33.1092 39.5368ZM36.9035 39.531V39.5137C36.8977 38.5261 36.0834 37.7118 35.0959 37.7118C34.1026 37.7118 33.2883 38.5261 33.2883 39.5194V39.5368C33.294 40.5243 34.1083 41.3386 35.0959 41.3386C36.0892 41.3386 36.9035 40.5243 36.9035 39.531ZM34.3162 38.451H35.2287C35.4482 38.4395 35.6676 38.5203 35.8351 38.6647C35.9448 38.7687 36.0026 38.913 36.0026 39.0574V39.069C36.0026 39.3982 35.7831 39.5945 35.477 39.6696L36.1065 40.4897H35.7311L35.1421 39.7216H34.6223V40.4897H34.322L34.3162 38.451ZM12.8154 39.9699H10.4591V38.0063H12.8154C14.5422 38.0063 14.4382 39.9699 12.8154 39.9699ZM20.8659 39.9699H18.5155V38.0063H20.8659C22.5927 38.0063 22.4888 39.9699 20.8659 39.9699ZM26.566 38.0063V39.9699H28.9165C30.5393 39.9699 30.6432 38.0063 28.9165 38.0063H26.566ZM35.1998 39.4501C35.4828 39.4501 35.6849 39.3173 35.6849 39.0863V39.0747C35.6849 38.8611 35.5117 38.7225 35.2172 38.7225H34.6165V39.4501H35.1998ZM10.4591 34.6279H12.5728C13.8896 34.6279 13.9358 36.4644 12.6537 36.4644H10.4591V34.6279ZM26.5718 34.6279H28.6682C29.9849 34.6279 30.0311 36.4644 28.749 36.4644H26.5602L26.5718 34.6279ZM18.5212 34.6279H20.6292C21.9459 34.6279 21.9921 36.4644 20.71 36.4644H18.5155L18.5212 34.6279ZM12.5209 29.1242H16.4422L17.141 31.5035H23.5514L24.2502 29.1242H28.1715L27.6575 27.3743H13.0348L12.5209 29.1242ZM17.268 15.027L15.368 17.6489C14.4151 18.9599 14.7096 21.2873 16.009 22.2228L19.5319 24.7639C20.1383 25.2028 20.1845 25.636 19.8957 26.0922L20.4097 26.4734L22.1942 24.0016C23.2973 22.4712 23.1991 20.3979 21.5647 19.2024L18.0072 16.6094C17.5857 16.2975 17.5395 15.8644 17.7705 15.3851L17.268 15.027ZM20.3173 3.4536L17.3604 7.54818C15.9744 9.46553 16.4768 12.74 18.3711 14.1376L23.2337 17.7067C24.2213 18.4286 24.3483 20.2766 23.6322 21.218L24.0423 21.5298L27.3976 16.8115C28.9049 14.692 28.8183 11.5561 26.4505 9.84092L21.2471 6.05819C20.5194 5.53265 20.1556 4.63173 20.762 3.77123L20.3173 3.4536Z" fill="#015A75"/>
</svg>
