<svg width="152" height="45" viewBox="0 0 152 45" fill="none" xmlns="http://www.w3.org/2000/svg">
<rect x="0.561609" y="0.561609" width="150.511" height="43.8055" rx="5.05448" fill="#101828"/>
<rect x="0.561609" y="0.561609" width="150.511" height="43.8055" rx="5.05448" stroke="#A6A6A6" stroke-width="1.12322"/>
<path d="M76.5316 24.4313C73.8898 24.4313 71.7366 26.4407 71.7366 29.2083C71.7366 31.9591 73.8898 33.9854 76.5316 33.9854C79.1745 33.9854 81.3277 31.9591 81.3277 29.2083C81.3266 26.4407 79.1734 24.4313 76.5316 24.4313ZM76.5316 32.1051C75.0838 32.1051 73.8359 30.9111 73.8359 29.2094C73.8359 27.4898 75.0849 26.3138 76.5316 26.3138C77.9794 26.3138 79.2273 27.4898 79.2273 29.2094C79.2273 30.91 77.9794 32.1051 76.5316 32.1051ZM66.0699 24.4313C63.4281 24.4313 61.2749 26.4407 61.2749 29.2083C61.2749 31.9591 63.4281 33.9854 66.0699 33.9854C68.7129 33.9854 70.8661 31.9591 70.8661 29.2083C70.8661 26.4407 68.7129 24.4313 66.0699 24.4313ZM66.0699 32.1051C64.6221 32.1051 63.3742 30.9111 63.3742 29.2094C63.3742 27.4898 64.6232 26.3138 66.0699 26.3138C67.5178 26.3138 68.7657 27.4898 68.7657 29.2094C68.7668 30.91 67.5178 32.1051 66.0699 32.1051ZM53.6269 25.8982V27.9245H58.477C58.3321 29.0645 57.9524 29.8968 57.3729 30.4753C56.6675 31.1807 55.5634 31.9591 53.6269 31.9591C50.6414 31.9591 48.3074 29.552 48.3074 26.5665C48.3074 23.581 50.6414 21.1739 53.6269 21.1739C55.2376 21.1739 56.4136 21.8074 57.2819 22.6218L58.7117 21.1919C57.4987 20.0339 55.8891 19.1476 53.6269 19.1476C49.5373 19.1476 46.0991 22.4769 46.0991 26.5665C46.0991 30.6561 49.5373 33.9854 53.6269 33.9854C55.8341 33.9854 57.4998 33.2609 58.8016 31.904C60.1405 30.5652 60.5572 28.6826 60.5572 27.1629C60.5572 26.6934 60.5213 26.2587 60.4482 25.8971H53.6269V25.8982ZM104.518 27.4718C104.12 26.4048 102.907 24.4313 100.428 24.4313C97.9671 24.4313 95.9217 26.3677 95.9217 29.2083C95.9217 31.8861 97.9491 33.9854 100.663 33.9854C102.852 33.9854 104.119 32.6465 104.645 31.8681L103.016 30.7819C102.473 31.5783 101.731 32.1028 100.663 32.1028C99.5958 32.1028 98.8354 31.6142 98.3468 30.655L104.735 28.0132L104.518 27.4718ZM98.0031 29.0645C97.9491 27.218 99.4329 26.2778 100.501 26.2778C101.333 26.2778 102.039 26.6946 102.275 27.291L98.0031 29.0645ZM92.8104 33.6967H94.9086V19.6553H92.8104V33.6967ZM89.3711 25.4994H89.2992C88.8286 24.9378 87.9233 24.4313 86.7843 24.4313C84.3953 24.4313 82.2061 26.5306 82.2061 29.2274C82.2061 31.9052 84.3953 33.9865 86.7843 33.9865C87.9244 33.9865 88.8286 33.4799 89.2992 32.9015H89.3711V33.5889C89.3711 35.4163 88.3939 36.3935 86.8203 36.3935C85.5353 36.3935 84.739 35.4714 84.4132 34.693L82.5858 35.4534C83.1103 36.7193 84.5031 38.2761 86.8203 38.2761C89.2813 38.2761 91.3626 36.8282 91.3626 33.2991V24.7222H89.3722V25.4994H89.3711ZM86.9652 32.1051C85.5174 32.1051 84.3054 30.892 84.3054 29.2274C84.3054 27.5437 85.5174 26.3138 86.9652 26.3138C88.3939 26.3138 89.516 27.5437 89.516 29.2274C89.516 30.892 88.3939 32.1051 86.9652 32.1051ZM114.35 19.6553H109.328V33.6967H111.423V28.3771H114.349C116.672 28.3771 118.957 26.6957 118.957 24.0168C118.957 21.3379 116.673 19.6553 114.35 19.6553ZM114.404 26.4227H111.423V21.6097H114.404C115.971 21.6097 116.861 22.9071 116.861 24.0168C116.861 25.1041 115.971 26.4227 114.404 26.4227ZM127.357 24.4066C125.84 24.4066 124.268 25.0749 123.618 26.5564L125.478 27.3325C125.876 26.5564 126.617 26.3025 127.393 26.3025C128.477 26.3025 129.579 26.9529 129.597 28.1087V28.2536C129.217 28.0368 128.404 27.7122 127.411 27.7122C125.406 27.7122 123.364 28.8141 123.364 30.8729C123.364 32.7521 125.009 33.9618 126.851 33.9618C128.259 33.9618 129.036 33.3294 129.524 32.5881H129.596V33.672H131.62V28.2884C131.621 25.7971 129.759 24.4066 127.357 24.4066ZM127.103 32.1017C126.418 32.1017 125.46 31.758 125.46 30.9089C125.46 29.825 126.653 29.4094 127.683 29.4094C128.603 29.4094 129.038 29.6082 129.597 29.8789C129.434 31.1807 128.314 32.1017 127.103 32.1017ZM138.99 24.7132L136.588 30.801H136.516L134.022 24.7132H131.765L135.504 33.2216L133.372 37.9548H135.558L141.321 24.7132H138.99ZM120.114 33.6967H122.208V19.6553H120.114V33.6967Z" fill="white"/>
<path d="M53.261 11.5051C53.261 12.4463 52.9824 13.1955 52.4242 13.7549C51.7907 14.4198 50.964 14.7523 49.9486 14.7523C48.9759 14.7523 48.1481 14.4153 47.4685 13.7414C46.7878 13.0663 46.4475 12.2307 46.4475 11.2333C46.4475 10.2347 46.7878 9.39904 47.4685 8.72511C48.1481 8.05005 48.9759 7.71309 49.9486 7.71309C50.4316 7.71309 50.8932 7.80744 51.3313 7.99501C51.7704 8.18371 52.122 8.43419 52.3848 8.74757L51.7929 9.34063C51.347 8.8071 50.7326 8.5409 49.9475 8.5409C49.2376 8.5409 48.6243 8.79025 48.1065 9.28896C47.5887 9.78767 47.3304 10.4358 47.3304 11.2321C47.3304 12.0285 47.5887 12.6766 48.1065 13.1753C48.6243 13.674 49.2376 13.9234 49.9475 13.9234C50.7 13.9234 51.3279 13.6729 51.83 13.1708C52.1557 12.8439 52.3444 12.389 52.395 11.8061H49.9475V10.9963H53.2127C53.2464 11.1726 53.261 11.3422 53.261 11.5051Z" fill="white"/>
<path d="M58.4391 8.69035H55.3705V10.8267H58.1381V11.6366H55.3705V13.7729H58.4391V14.6018H54.5045V7.86254H58.4391V8.69035Z" fill="white"/>
<path d="M62.0906 14.6018H61.2246V8.69035H59.342V7.86254H63.9731V8.69035H62.0906V14.6018Z" fill="white"/>
<path d="M67.3236 14.6018V7.86254H68.1896V14.6018H67.3236Z" fill="white"/>
<path d="M72.03 14.6018H71.1641V8.69035H69.2815V7.86254H73.9126V8.69035H72.03V14.6018Z" fill="white"/>
<path d="M82.679 13.7313C82.0163 14.412 81.193 14.7524 80.208 14.7524C79.2229 14.7524 78.3996 14.412 77.738 13.7313C77.0753 13.0507 76.7451 12.2172 76.7451 11.2322C76.7451 10.2471 77.0753 9.41369 77.738 8.73302C78.3996 8.05235 79.2229 7.71089 80.208 7.71089C81.1874 7.71089 82.0096 8.05347 82.6745 8.73751C83.3395 9.42155 83.672 10.2527 83.672 11.2322C83.672 12.2172 83.3406 13.0507 82.679 13.7313ZM78.3771 13.1664C78.8758 13.6718 79.4857 13.9234 80.208 13.9234C80.9302 13.9234 81.5412 13.6707 82.0388 13.1664C82.5375 12.6609 82.788 12.0162 82.788 11.2322C82.788 10.4482 82.5375 9.80345 82.0388 9.298C81.5412 8.79255 80.9302 8.54095 80.208 8.54095C79.4857 8.54095 78.8758 8.79367 78.3771 9.298C77.8795 9.80345 77.629 10.4482 77.629 11.2322C77.629 12.0162 77.8795 12.6609 78.3771 13.1664Z" fill="white"/>
<path d="M84.8873 14.6018V7.86254H85.9409L89.2162 13.1046H89.2533L89.2162 11.8062V7.86254H90.0822V14.6018H89.178L85.7511 9.10482H85.714L85.7511 10.4033V14.6018H84.8873Z" fill="white"/>
<path d="M53.261 11.5051C53.261 12.4463 52.9824 13.1955 52.4242 13.7549C51.7907 14.4198 50.964 14.7523 49.9486 14.7523C48.9759 14.7523 48.1481 14.4153 47.4685 13.7414C46.7878 13.0663 46.4475 12.2307 46.4475 11.2333C46.4475 10.2347 46.7878 9.39904 47.4685 8.72511C48.1481 8.05005 48.9759 7.71309 49.9486 7.71309C50.4316 7.71309 50.8932 7.80744 51.3313 7.99501C51.7704 8.18371 52.122 8.43419 52.3848 8.74757L51.7929 9.34063C51.347 8.8071 50.7326 8.5409 49.9475 8.5409C49.2376 8.5409 48.6243 8.79025 48.1065 9.28896C47.5887 9.78767 47.3304 10.4358 47.3304 11.2321C47.3304 12.0285 47.5887 12.6766 48.1065 13.1753C48.6243 13.674 49.2376 13.9234 49.9475 13.9234C50.7 13.9234 51.3279 13.6729 51.83 13.1708C52.1557 12.8439 52.3444 12.389 52.395 11.8061H49.9475V10.9963H53.2127C53.2464 11.1726 53.261 11.3422 53.261 11.5051Z" stroke="white" stroke-width="0.224644" stroke-miterlimit="10"/>
<path d="M58.4391 8.69035H55.3705V10.8267H58.1381V11.6366H55.3705V13.7729H58.4391V14.6018H54.5045V7.86254H58.4391V8.69035Z" stroke="white" stroke-width="0.224644" stroke-miterlimit="10"/>
<path d="M62.0906 14.6018H61.2246V8.69035H59.342V7.86254H63.9731V8.69035H62.0906V14.6018Z" stroke="white" stroke-width="0.224644" stroke-miterlimit="10"/>
<path d="M67.3236 14.6018V7.86254H68.1896V14.6018H67.3236Z" stroke="white" stroke-width="0.224644" stroke-miterlimit="10"/>
<path d="M72.03 14.6018H71.1641V8.69035H69.2815V7.86254H73.9126V8.69035H72.03V14.6018Z" stroke="white" stroke-width="0.224644" stroke-miterlimit="10"/>
<path d="M82.679 13.7313C82.0163 14.412 81.193 14.7524 80.208 14.7524C79.2229 14.7524 78.3996 14.412 77.738 13.7313C77.0753 13.0507 76.7451 12.2172 76.7451 11.2322C76.7451 10.2471 77.0753 9.41369 77.738 8.73302C78.3996 8.05235 79.2229 7.71089 80.208 7.71089C81.1874 7.71089 82.0096 8.05347 82.6745 8.73751C83.3395 9.42155 83.672 10.2527 83.672 11.2322C83.672 12.2172 83.3406 13.0507 82.679 13.7313ZM78.3771 13.1664C78.8758 13.6718 79.4857 13.9234 80.208 13.9234C80.9302 13.9234 81.5412 13.6707 82.0388 13.1664C82.5375 12.6609 82.788 12.0162 82.788 11.2322C82.788 10.4482 82.5375 9.80345 82.0388 9.298C81.5412 8.79255 80.9302 8.54095 80.208 8.54095C79.4857 8.54095 78.8758 8.79367 78.3771 9.298C77.8795 9.80345 77.629 10.4482 77.629 11.2322C77.629 12.0162 77.8795 12.6609 78.3771 13.1664Z" stroke="white" stroke-width="0.224644" stroke-miterlimit="10"/>
<path d="M84.8873 14.6018V7.86254H85.9409L89.2162 13.1046H89.2533L89.2162 11.8062V7.86254H90.0822V14.6018H89.178L85.7511 9.10482H85.714L85.7511 10.4033V14.6018H84.8873Z" stroke="white" stroke-width="0.224644" stroke-miterlimit="10"/>
<g filter="url(#filter0_ii_215_21176)">
<path d="M11.7217 8.46684C11.3949 8.81279 11.2017 9.34969 11.2017 10.045V34.8861C11.2017 35.5825 11.3949 36.1182 11.7217 36.4642L11.8048 36.5451L25.7204 22.6295V22.4655V22.3015L11.8048 8.38484L11.7217 8.46684Z" fill="url(#paint0_linear_215_21176)"/>
<path d="M30.3582 27.2695L25.7205 22.6295V22.4655V22.3015L30.3594 17.6626L30.4638 17.7222L35.9597 20.8447C37.5289 21.7365 37.5289 23.1956 35.9597 24.0886L30.4638 27.2111L30.3582 27.2695Z" fill="url(#paint1_linear_215_21176)"/>
<g filter="url(#filter1_i_215_21176)">
<path d="M30.4637 27.21L25.7192 22.4655L11.7217 36.4642C12.2384 37.0123 13.0931 37.0797 14.0557 36.5338L30.4637 27.21Z" fill="url(#paint2_linear_215_21176)"/>
</g>
<path d="M30.4637 17.721L14.0557 8.39831C13.0931 7.85131 12.2384 7.91982 11.7217 8.46795L25.7204 22.4666L30.4637 17.721Z" fill="url(#paint3_linear_215_21176)"/>
</g>
<defs>
<filter id="filter0_ii_215_21176" x="11.2017" y="8.02083" width="25.9348" height="28.89" filterUnits="userSpaceOnUse" color-interpolation-filters="sRGB">
<feFlood flood-opacity="0" result="BackgroundImageFix"/>
<feBlend mode="normal" in="SourceGraphic" in2="BackgroundImageFix" result="shape"/>
<feColorMatrix in="SourceAlpha" type="matrix" values="0 0 0 0 0 0 0 0 0 0 0 0 0 0 0 0 0 0 127 0" result="hardAlpha"/>
<feOffset dy="-0.168483"/>
<feComposite in2="hardAlpha" operator="arithmetic" k2="-1" k3="1"/>
<feColorMatrix type="matrix" values="0 0 0 0 0 0 0 0 0 0 0 0 0 0 0 0 0 0 0.12 0"/>
<feBlend mode="normal" in2="shape" result="effect1_innerShadow_215_21176"/>
<feColorMatrix in="SourceAlpha" type="matrix" values="0 0 0 0 0 0 0 0 0 0 0 0 0 0 0 0 0 0 127 0" result="hardAlpha"/>
<feOffset dy="0.168483"/>
<feComposite in2="hardAlpha" operator="arithmetic" k2="-1" k3="1"/>
<feColorMatrix type="matrix" values="0 0 0 0 1 0 0 0 0 1 0 0 0 0 1 0 0 0 0.25 0"/>
<feBlend mode="normal" in2="effect1_innerShadow_215_21176" result="effect2_innerShadow_215_21176"/>
</filter>
<filter id="filter1_i_215_21176" x="11.7217" y="22.4655" width="18.7419" height="14.4454" filterUnits="userSpaceOnUse" color-interpolation-filters="sRGB">
<feFlood flood-opacity="0" result="BackgroundImageFix"/>
<feBlend mode="normal" in="SourceGraphic" in2="BackgroundImageFix" result="shape"/>
<feColorMatrix in="SourceAlpha" type="matrix" values="0 0 0 0 0 0 0 0 0 0 0 0 0 0 0 0 0 0 127 0" result="hardAlpha"/>
<feOffset dy="-0.168483"/>
<feComposite in2="hardAlpha" operator="arithmetic" k2="-1" k3="1"/>
<feColorMatrix type="matrix" values="0 0 0 0 0 0 0 0 0 0 0 0 0 0 0 0 0 0 0.08 0"/>
<feBlend mode="normal" in2="shape" result="effect1_innerShadow_215_21176"/>
</filter>
<linearGradient id="paint0_linear_215_21176" x1="24.4869" y1="9.78213" x2="5.63701" y2="28.632" gradientUnits="userSpaceOnUse">
<stop stop-color="#00A0FF"/>
<stop offset="0.0066" stop-color="#00A1FF"/>
<stop offset="0.2601" stop-color="#00BEFF"/>
<stop offset="0.5122" stop-color="#00D2FF"/>
<stop offset="0.7604" stop-color="#00DFFF"/>
<stop offset="1" stop-color="#00E3FF"/>
</linearGradient>
<linearGradient id="paint1_linear_215_21176" x1="38.0023" y1="22.4655" x2="10.825" y2="22.4655" gradientUnits="userSpaceOnUse">
<stop stop-color="#FFE000"/>
<stop offset="0.4087" stop-color="#FFBD00"/>
<stop offset="0.7754" stop-color="#FFA500"/>
<stop offset="1" stop-color="#FF9C00"/>
</linearGradient>
<linearGradient id="paint2_linear_215_21176" x1="27.8872" y1="25.0421" x2="2.32439" y2="50.6048" gradientUnits="userSpaceOnUse">
<stop stop-color="#FF3A44"/>
<stop offset="1" stop-color="#C31162"/>
</linearGradient>
<linearGradient id="paint3_linear_215_21176" x1="8.19635" y1="0.198594" x2="19.6108" y2="11.6131" gradientUnits="userSpaceOnUse">
<stop stop-color="#32A071"/>
<stop offset="0.0685" stop-color="#2DA771"/>
<stop offset="0.4762" stop-color="#15CF74"/>
<stop offset="0.8009" stop-color="#06E775"/>
<stop offset="1" stop-color="#00F076"/>
</linearGradient>
</defs>
</svg>
