<svg viewBox="0 0 184 61" fill="none" xmlns="http://www.w3.org/2000/svg">
<g id="Group 1">
<path id="Vector" d="M73.7005 52.8368H72.211L72.4212 51.9504H76.4238L76.2136 52.8368H74.7058L73.4812 58.1553H72.4577L73.6914 52.8368H73.7005ZM77.4838 51.7402H78.4708L77.9042 54.2076C78.16 53.9151 78.6809 53.5313 79.1744 53.5313C79.9512 53.5313 80.2619 54.0613 80.2619 54.7467C80.2619 55.094 80.1431 55.6149 80.0791 55.9164L79.5582 58.1644H78.5713L79.0647 55.9804C79.1287 55.7245 79.2384 55.2402 79.2384 54.9843C79.2384 54.6096 79.1378 54.3995 78.7632 54.3995C78.4616 54.3995 77.9681 54.8198 77.6757 55.1397L76.9812 58.1644H75.9943L77.4747 51.7493L77.4838 51.7402ZM81.2579 56.7937C81.2579 55.1762 81.9799 53.5405 83.7253 53.5405C84.63 53.5405 85.2148 53.8968 85.2148 54.7833C85.2148 55.9438 84.4107 56.2728 82.6927 56.2728H82.3088C82.2723 56.4099 82.254 56.6109 82.254 56.7663C82.254 57.2049 82.5739 57.4151 82.9942 57.4151C83.4694 57.4151 84.1274 57.3329 84.502 57.2598L84.3924 58.0091C84.036 58.1188 83.3415 58.265 82.7292 58.265C81.7605 58.265 81.2579 57.7989 81.2579 56.7937ZM82.848 55.5235C83.8349 55.5235 84.2279 55.3407 84.2279 54.8015C84.2279 54.4634 84.0268 54.3355 83.6704 54.3355C83.0125 54.3355 82.6104 54.7833 82.4185 55.5235H82.848ZM88.4315 56.9034C88.4315 56.6109 88.4863 56.2545 88.5412 55.9804L89.4733 51.9595H90.4876L89.5281 56.1266C89.4824 56.3276 89.4459 56.547 89.4459 56.748C89.4459 57.2323 89.8023 57.3694 90.3597 57.3694C91.2278 57.3694 91.5203 56.9673 91.7122 56.1357L92.6808 51.9504H93.6952L92.7265 56.1449C92.3884 57.5979 91.6939 58.2558 90.2683 58.2558C89.1626 58.2558 88.4315 57.8355 88.4315 56.8942V56.9034ZM95.3127 51.7402H96.2996L94.8192 58.1553H93.8323L95.3127 51.7402ZM96.7291 57.3329C96.7291 57.0404 96.7931 56.7023 96.8662 56.4008L97.3231 54.4726H96.7839L97.0124 53.6318H97.5333L97.8166 52.389H98.8035L98.5111 53.6318H99.5985L99.3884 54.4726H98.31L97.844 56.483C97.7983 56.6749 97.7526 56.9399 97.7526 57.0953C97.7526 57.3054 97.8531 57.4242 98.0999 57.4242C98.2735 57.4242 98.575 57.3968 98.7487 57.3694L98.6664 58.0913C98.4562 58.1644 98.0542 58.265 97.7161 58.265C97.0764 58.265 96.7291 57.872 96.7291 57.342V57.3329ZM100.704 53.6318H101.691L100.649 58.1644H99.6625L100.704 53.6318ZM101.097 51.8956H102.093L101.856 52.9556H100.85L101.097 51.8956ZM103.226 53.6318H104.168L104.076 54.2076C104.332 53.9151 104.853 53.5313 105.383 53.5313C105.977 53.5313 106.288 53.9334 106.343 54.235C106.662 53.9243 107.266 53.5313 107.796 53.5313C108.582 53.5313 108.874 54.0613 108.874 54.7467C108.874 55.1031 108.764 55.6149 108.7 55.9164L108.179 58.1644H107.192L107.713 55.9804C107.777 55.7245 107.878 55.2493 107.878 55.0117C107.878 54.6096 107.759 54.3995 107.43 54.3995C107.101 54.3995 106.653 54.765 106.388 55.0391C106.37 55.2585 106.315 55.6331 106.251 55.9164L105.73 58.1644H104.743L105.237 55.9804C105.301 55.7245 105.401 55.231 105.401 54.9843C105.401 54.6096 105.283 54.3995 104.926 54.3995C104.625 54.3995 104.14 54.8198 103.857 55.1397L103.162 58.1644H102.176L103.217 53.6318H103.226ZM109.861 56.7389C109.861 55.4321 110.546 53.5313 112.155 53.5313C112.612 53.5313 113.617 53.6867 114.247 53.7963L113.571 56.7297C113.471 57.1501 113.37 57.7806 113.315 58.1462L112.337 58.1827C112.383 57.8994 112.447 57.4882 112.484 57.3603C112.191 57.7532 111.634 58.265 111.085 58.265C110.217 58.265 109.861 57.6436 109.861 56.7389ZM112.657 56.4464L113.114 54.5C112.858 54.4452 112.42 54.372 112.191 54.372C111.323 54.372 110.875 55.7885 110.875 56.7389C110.875 57.1684 110.994 57.4151 111.433 57.4151C111.762 57.4151 112.328 56.8668 112.666 56.4464H112.657ZM115.152 57.3329C115.152 57.0404 115.216 56.7023 115.289 56.4008L115.746 54.4726H115.207L115.435 53.6318H115.956L116.239 52.389H117.226L116.934 53.6318H118.021L117.811 54.4726H116.733L116.267 56.483C116.221 56.6749 116.175 56.9399 116.175 57.0953C116.175 57.3054 116.276 57.4242 116.523 57.4242C116.696 57.4242 116.998 57.3968 117.172 57.3694L117.089 58.0913C116.879 58.1644 116.477 58.265 116.139 58.265C115.499 58.265 115.152 57.872 115.152 57.342V57.3329ZM118.277 56.7937C118.277 55.1762 118.999 53.5405 120.745 53.5405C121.649 53.5405 122.234 53.8968 122.234 54.7833C122.234 55.9438 121.43 56.2728 119.712 56.2728H119.328C119.292 56.4099 119.273 56.6109 119.273 56.7663C119.273 57.2049 119.593 57.4151 120.014 57.4151C120.489 57.4151 121.147 57.3329 121.521 57.2598L121.412 58.0091C121.055 58.1188 120.361 58.265 119.749 58.265C118.78 58.265 118.277 57.7989 118.277 56.7937ZM119.876 55.5235C120.863 55.5235 121.256 55.3407 121.256 54.8015C121.256 54.4634 121.055 54.3355 120.699 54.3355C120.041 54.3355 119.639 54.7833 119.447 55.5235H119.876ZM125.442 56.3825C125.442 54.8838 125.917 53.3211 126.876 52.4804C127.333 52.0692 127.909 51.859 128.585 51.859C129.819 51.859 130.559 52.4164 130.559 53.7324C130.559 55.2859 130.093 56.9034 129.07 57.7258C128.622 58.0731 128.019 58.265 127.388 58.265C126.136 58.265 125.451 57.7075 125.451 56.3916L125.442 56.3825ZM128.43 57.0404C129.134 56.4008 129.517 54.9478 129.517 53.8237C129.517 53.0653 129.225 52.7454 128.476 52.7454C128.156 52.7454 127.863 52.8368 127.635 53.047C126.886 53.7141 126.502 55.2767 126.502 56.3002C126.502 57.077 126.776 57.3786 127.544 57.3786C127.882 57.3786 128.183 57.2689 128.43 57.0404ZM132.131 54.4908H131.674L131.875 53.6318H132.323L132.387 53.3577C132.688 52.1423 133.036 51.6397 133.986 51.6397C134.269 51.6397 134.617 51.7402 134.799 51.8133L134.617 52.5444C134.47 52.517 134.205 52.4804 134.004 52.4804C133.63 52.4804 133.493 52.8368 133.374 53.3577L133.31 53.6227H134.37L134.16 54.4634H133.118L132.268 58.1553L131.701 60.1109H130.815L132.131 54.4817V54.4908ZM135.53 54.4908H135.073L135.275 53.6318H135.722L135.786 53.3577C136.088 52.1423 136.435 51.6397 137.385 51.6397C137.669 51.6397 138.016 51.7402 138.199 51.8133L138.016 52.5444C137.87 52.517 137.605 52.4804 137.404 52.4804C137.029 52.4804 136.892 52.8368 136.773 53.3577L136.709 53.6227H137.769L137.559 54.4634H136.517L135.667 58.1553L135.101 60.1109H134.214L135.53 54.4817V54.4908ZM138.82 53.6318H139.807L138.765 58.1644H137.778L138.82 53.6318ZM139.213 51.8956H140.209L139.972 52.9556H138.966L139.213 51.8956ZM140.52 56.7663C140.52 55.0209 141.297 53.5313 142.896 53.5313C143.325 53.5313 143.865 53.6684 144.157 53.7689L143.901 54.5C143.618 54.4452 143.143 54.3903 142.859 54.3903C141.946 54.3903 141.525 55.5326 141.525 56.5652C141.525 57.1044 141.744 57.3968 142.32 57.3968C142.594 57.3968 143.033 57.342 143.307 57.3054L143.225 58.0456C142.951 58.137 142.421 58.2558 141.964 58.2558C141.068 58.2558 140.511 57.7167 140.511 56.7571L140.52 56.7663ZM144.495 56.7937C144.495 55.1762 145.217 53.5405 146.962 53.5405C147.867 53.5405 148.452 53.8968 148.452 54.7833C148.452 55.9438 147.648 56.2728 145.93 56.2728H145.546C145.509 56.4099 145.491 56.6109 145.491 56.7663C145.491 57.2049 145.811 57.4151 146.231 57.4151C146.707 57.4151 147.365 57.3329 147.739 57.2598L147.63 58.0091C147.273 58.1188 146.579 58.265 145.966 58.265C144.998 58.265 144.495 57.7989 144.495 56.7937ZM146.085 55.5235C147.072 55.5235 147.465 55.3407 147.465 54.8015C147.465 54.4634 147.264 54.3355 146.908 54.3355C146.25 54.3355 145.848 54.7833 145.656 55.5235H146.085ZM151.175 57.9451L151.34 57.2049C151.797 57.278 152.555 57.3786 153.03 57.3786C153.816 57.3786 154.282 57.0222 154.282 56.2363C154.282 55.8159 154.127 55.688 153.323 55.3681C152.482 55.0209 152.08 54.6919 152.08 53.8603C152.08 52.6723 152.902 51.859 154.209 51.859C154.885 51.859 155.644 52.0326 156.019 52.1606L155.836 52.8916C155.406 52.8185 154.684 52.7271 154.218 52.7271C153.524 52.7271 153.103 53.111 153.103 53.7506C153.103 54.1619 153.286 54.2807 154.063 54.5914C155.032 55.0026 155.315 55.3042 155.315 56.1175C155.315 57.5065 154.401 58.265 153.012 58.265C152.354 58.265 151.559 58.0913 151.166 57.9451H151.175ZM156.366 56.6475C156.366 55.1214 157.243 53.5405 158.65 53.5405C159.729 53.5405 160.341 54.0431 160.341 55.1762C160.341 56.6932 159.537 58.265 158.047 58.265C156.969 58.265 156.366 57.7898 156.366 56.6475ZM159.363 55.1579C159.363 54.6736 159.126 54.3812 158.65 54.3812C157.846 54.3812 157.344 55.5417 157.344 56.6566C157.344 57.141 157.581 57.4151 158.047 57.4151C158.861 57.4151 159.363 56.2728 159.363 55.1579ZM162.525 51.7402H163.512L162.032 58.1553H161.045L162.525 51.7402ZM163.841 57.0496C163.841 56.7115 163.96 56.1814 164.024 55.889L164.545 53.6318H165.532L165.038 55.8159C164.974 56.0718 164.864 56.5561 164.864 56.812C164.864 57.1866 164.992 57.3968 165.349 57.3968C165.65 57.3968 166.144 56.9765 166.427 56.6566L167.122 53.6318H168.109L167.067 58.1644H166.116L166.217 57.5796C165.961 57.872 165.431 58.265 164.938 58.265C164.161 58.265 163.85 57.7349 163.85 57.0496H163.841ZM168.968 57.3329C168.968 57.0404 169.032 56.7023 169.105 56.4008L169.562 54.4726H169.022L169.251 53.6318H169.772L170.055 52.389H171.042L170.749 53.6318H171.837L171.627 54.4726H170.548L170.082 56.483C170.037 56.6749 169.991 56.9399 169.991 57.0953C169.991 57.3054 170.092 57.4242 170.338 57.4242C170.512 57.4242 170.813 57.3968 170.987 57.3694L170.905 58.0913C170.695 58.1644 170.293 58.265 169.954 58.265C169.315 58.265 168.968 57.872 168.968 57.342V57.3329ZM172.943 53.6318H173.93L172.888 58.1644H171.901L172.943 53.6318ZM173.336 51.8956H174.332L174.094 52.9556H173.089L173.336 51.8956ZM174.606 56.6475C174.606 55.1214 175.483 53.5405 176.89 53.5405C177.969 53.5405 178.581 54.0431 178.581 55.1762C178.581 56.6932 177.777 58.265 176.287 58.265C175.209 58.265 174.606 57.7898 174.606 56.6475ZM177.603 55.1579C177.603 54.6736 177.366 54.3812 176.89 54.3812C176.086 54.3812 175.584 55.5417 175.584 56.6566C175.584 57.141 175.821 57.4151 176.287 57.4151C177.101 57.4151 177.603 56.2728 177.603 55.1579ZM180.326 53.6318H181.268L181.167 54.2167C181.432 53.9243 181.962 53.5313 182.456 53.5313C183.232 53.5313 183.543 54.0613 183.543 54.7467C183.543 55.0848 183.424 55.6149 183.36 55.9073L182.83 58.1644H181.853L182.346 55.9804C182.41 55.7245 182.511 55.2402 182.511 54.9843C182.511 54.6096 182.419 54.3995 182.035 54.3995C181.725 54.3995 181.24 54.8198 180.957 55.1397L180.262 58.1644H179.276L180.317 53.6318H180.326Z" fill="var(--fill-0, #ED1C24)"/>
<path id="Vector_2" d="M181.158 28.667C179.678 23.513 173.482 21.3106 168.575 19.5926C165.066 18.4138 161.465 17.2349 161.465 14.8681C161.465 12.9034 163.658 12.4282 166.208 12.4282C169.982 12.4282 175.867 14.0091 178.499 15.1057L178.618 4.27679C175.246 3.12537 171.38 2.42172 167.241 2.29378C166.784 2.28464 166.327 2.2755 165.861 2.2755H165.504C162.205 2.2755 159.245 2.5862 156.713 3.26244C150.49 4.91648 146.807 8.71802 146.807 15.2611C146.807 22.3524 154.182 25.103 160.588 27.6252C163.339 28.7492 166.171 29.8824 166.72 31.6369C166.784 31.838 166.82 32.0481 166.82 32.2675C166.82 34.552 164.801 34.945 162.26 34.945C157.782 34.945 148.142 31.9933 145.601 31.2074L145.665 41.7896C149 43.2883 156.11 44.7778 161.995 44.7778C175.337 44.7778 181.487 39.8249 181.487 31.0886C181.487 30.2113 181.368 29.4072 181.158 28.667ZM124.82 2.2755V34.351C123.276 34.6617 121.65 34.9084 119.584 34.9084C116.505 34.6617 113.672 33.4737 113.672 28.7766V2.2755H98.8311V29.5717C98.8311 41.0403 107.75 44.7778 117.272 44.7778C126.794 44.7778 135.622 42.3927 139.57 41.0403V2.2755H124.82ZM71.4984 2.2755C64.0872 2.2755 56.3379 3.85643 51.2845 5.51961V60.3312H65.8601V44.3849C67.7974 44.7047 69.817 44.8601 71.5807 44.8601C88.0022 44.8601 92.809 34.5064 92.809 22.9007C92.809 6.38775 82.3639 2.2755 71.4984 2.2755ZM69.7347 34.5064C68.5559 34.5064 67.2857 34.351 65.8601 34.0312V12.8668C67.5415 12.4647 69.1407 12.3916 70.4018 12.3916C75.7112 12.3916 78.1511 16.1018 78.1511 22.8184C78.1511 30.0103 75.4553 34.5064 69.7347 34.5064ZM22.7089 6.08256e-05C3.92969 6.08256e-05 0.00020197 11.5418 0.00020197 23.4855C0.00020197 35.4293 3.61898 46.8979 22.4805 46.8979C41.342 46.8979 45.2623 35.2922 45.2623 23.4855C45.2623 11.6788 41.6435 6.08256e-05 22.7089 6.08256e-05ZM22.6358 34.9541C14.7038 34.9541 13.4701 29.8824 13.4701 23.449C13.4701 17.0156 14.7038 11.6057 22.6358 11.6057C30.5679 11.6057 31.7102 16.906 31.7102 23.449C31.7102 29.992 30.5587 34.9541 22.6358 34.9541Z" fill="var(--fill-0, #0086C9)"/>
</g>
</svg>
