<svg width="66" height="66" viewBox="0 0 66 66" fill="none" xmlns="http://www.w3.org/2000/svg">
<rect x="5" y="5" width="56" height="56" rx="28" fill="#F2F4F7"/>
<rect x="5" y="5" width="56" height="56" rx="28" stroke="#F9FAFB" stroke-width="10"/>
<path d="M35.0346 22.0726L43.8173 27.7814C44.1276 27.9831 44.2828 28.0839 44.3952 28.2185C44.4947 28.3376 44.5695 28.4753 44.6151 28.6237C44.6666 28.7912 44.6666 28.9763 44.6666 29.3465V37.9001C44.6666 39.8603 44.6666 40.8404 44.2852 41.5891C43.9496 42.2476 43.4142 42.7831 42.7556 43.1186C42.0069 43.5001 41.0268 43.5001 39.0666 43.5001H26.9333C24.9731 43.5001 23.993 43.5001 23.2443 43.1186C22.5858 42.7831 22.0503 42.2476 21.7148 41.5891C21.3333 40.8404 21.3333 39.8603 21.3333 37.9001V29.3465C21.3333 28.9763 21.3333 28.7912 21.3848 28.6237C21.4305 28.4753 21.5052 28.3376 21.6047 28.2185C21.7172 28.0839 21.8723 27.9831 22.1827 27.7814L30.9654 22.0726M35.0346 22.0726C34.2982 21.5939 33.9299 21.3546 33.5332 21.2614C33.1825 21.1791 32.8175 21.1791 32.4668 21.2614C32.07 21.3546 31.7018 21.5939 30.9654 22.0726M35.0346 22.0726L42.2588 26.7683C43.0613 27.29 43.4625 27.5508 43.6015 27.8815C43.723 28.1706 43.723 28.4963 43.6015 28.7854C43.4625 29.1161 43.0613 29.3769 42.2588 29.8985L35.0346 34.5943C34.2982 35.073 33.9299 35.3123 33.5332 35.4054C33.1825 35.4878 32.8175 35.4878 32.4668 35.4054C32.07 35.3123 31.7018 35.073 30.9654 34.5943L23.7412 29.8985C22.9387 29.3769 22.5374 29.1161 22.3984 28.7854C22.277 28.4963 22.277 28.1706 22.3984 27.8815C22.5374 27.5508 22.9387 27.29 23.7412 26.7683L30.9654 22.0726M44.0833 41.1668L36.3334 34.1668M29.6666 34.1668L21.9166 41.1668" stroke="#0086C9" stroke-width="2" stroke-linecap="round" stroke-linejoin="round"/>
</svg>
