<svg width="66" height="66" viewBox="0 0 66 66" fill="none" xmlns="http://www.w3.org/2000/svg">
<rect x="5" y="5" width="56" height="56" rx="28" fill="#F2F4F7"/>
<rect x="5" y="5" width="56" height="56" rx="28" stroke="#F9FAFB" stroke-width="10"/>
<path d="M38.8333 31.8333V28.3333C38.8333 25.1117 36.2217 22.5 33 22.5C29.7783 22.5 27.1667 25.1117 27.1667 28.3333V31.8333M28.1 43.5H37.9C39.8602 43.5 40.8403 43.5 41.589 43.1185C42.2475 42.783 42.783 42.2475 43.1185 41.589C43.5 40.8403 43.5 39.8602 43.5 37.9V37.4333C43.5 35.4731 43.5 34.4931 43.1185 33.7444C42.783 33.0858 42.2475 32.5504 41.589 32.2148C40.8403 31.8333 39.8602 31.8333 37.9 31.8333H28.1C26.1398 31.8333 25.1597 31.8333 24.411 32.2148C23.7525 32.5504 23.217 33.0858 22.8815 33.7444C22.5 34.4931 22.5 35.4731 22.5 37.4333V37.9C22.5 39.8602 22.5 40.8403 22.8815 41.589C23.217 42.2475 23.7525 42.783 24.411 43.1185C25.1597 43.5 26.1398 43.5 28.1 43.5Z" stroke="#0086C9" stroke-width="2" stroke-linecap="round" stroke-linejoin="round"/>
</svg>
