<svg width="66" height="66" viewBox="0 0 66 66" fill="none" xmlns="http://www.w3.org/2000/svg">
<rect x="5" y="5" width="56" height="56" rx="28" fill="#F2F4F7"/>
<rect x="5" y="5" width="56" height="56" rx="28" stroke="#F9FAFB" stroke-width="10"/>
<path d="M42.3333 33.5833V26.9333C42.3333 24.9731 42.3333 23.993 41.9519 23.2443C41.6163 22.5857 41.0809 22.0503 40.4223 21.7147C39.6736 21.3333 38.6935 21.3333 36.7333 21.3333H29.2667C27.3065 21.3333 26.3264 21.3333 25.5777 21.7147C24.9191 22.0503 24.3837 22.5857 24.0481 23.2443C23.6667 23.993 23.6667 24.9731 23.6667 26.9333V39.0666C23.6667 41.0268 23.6667 42.0069 24.0481 42.7556C24.3837 43.4141 24.9191 43.9496 25.5777 44.2851C26.3264 44.6666 27.3064 44.6666 29.2665 44.6666H33.5833M35.3333 31.8333H28.3333M30.6667 36.4999H28.3333M37.6667 27.1666H28.3333M36.5 41.1666L40 44.6666M40 44.6666L43.5 41.1666M40 44.6666V37.6666" stroke="#0086C9" stroke-width="2" stroke-linecap="round" stroke-linejoin="round"/>
</svg>
