<svg width="30" height="33" viewBox="0 0 30 33" fill="none" xmlns="http://www.w3.org/2000/svg">
<path d="M17.18 5.79197L26.59 11.9085C26.9225 12.1246 27.0887 12.2327 27.2092 12.3768C27.3158 12.5044 27.3959 12.652 27.4448 12.811C27.5 12.9905 27.5 13.1888 27.5 13.5854V22.75C27.5 24.8502 27.5 25.9003 27.0913 26.7025C26.7317 27.4081 26.1581 27.9818 25.4525 28.3413C24.6503 28.75 23.6002 28.75 21.5 28.75H8.5C6.3998 28.75 5.3497 28.75 4.54754 28.3413C3.84193 27.9818 3.26825 27.4081 2.90873 26.7025C2.5 25.9003 2.5 24.8502 2.5 22.75V13.5854C2.5 13.1888 2.5 12.9905 2.55521 12.811C2.60409 12.652 2.68418 12.5044 2.79081 12.3768C2.91126 12.2327 3.07752 12.1246 3.41002 11.9085L12.82 5.79198M17.18 5.79197C16.3909 5.27909 15.9964 5.02265 15.5713 4.92287C15.1955 4.83467 14.8045 4.83467 14.4287 4.92287C14.0036 5.02265 13.6091 5.27909 12.82 5.79198M17.18 5.79197L24.9202 10.8231C25.78 11.382 26.2099 11.6614 26.3588 12.0158C26.4889 12.3255 26.4889 12.6745 26.3588 12.9842C26.2099 13.3386 25.78 13.618 24.9202 14.1769L17.18 19.208C16.3909 19.7209 15.9964 19.9774 15.5713 20.0771C15.1955 20.1653 14.8045 20.1653 14.4287 20.0771C14.0036 19.9774 13.6091 19.7209 12.82 19.208L5.07983 14.1769C4.22002 13.618 3.79011 13.3386 3.64122 12.9842C3.5111 12.6745 3.5111 12.3255 3.64122 12.0158C3.79011 11.6614 4.22002 11.382 5.07983 10.8231L12.82 5.79198M26.875 26.25L18.5715 18.75M11.4285 18.75L3.125 26.25" stroke="#0086C9" stroke-width="2.5" stroke-linecap="round" stroke-linejoin="round"/>
</svg>
