<svg width="151" height="45" viewBox="0 0 151 45" fill="none" xmlns="http://www.w3.org/2000/svg">
<rect x="0.561609" y="0.561609" width="149.764" height="42.9245" rx="7.30092" fill="#101828"/>
<rect x="0.561609" y="0.561609" width="149.764" height="42.9245" rx="7.30092" stroke="#A6A6A6" stroke-width="1.12322"/>
<path d="M91.5714 21.1439V23.6668H89.9584V25.3213H91.5714V30.9428C91.5714 32.8624 92.4571 33.6302 94.6855 33.6302C95.0771 33.6302 95.45 33.5845 95.7763 33.5297V31.8935C95.4966 31.9209 95.3195 31.9392 95.0118 31.9392C94.0142 31.9392 93.576 31.4821 93.576 30.4401V25.3213H95.7763V23.6668H93.576V21.1439H91.5714Z" fill="white"/>
<path d="M101.453 33.7673C104.418 33.7673 106.236 31.8203 106.236 28.5937C106.236 25.3852 104.408 23.4291 101.453 23.4291C98.488 23.4291 96.6606 25.3852 96.6606 28.5937C96.6606 31.8203 98.4787 33.7673 101.453 33.7673ZM101.453 32.0214C99.7094 32.0214 98.7304 30.7692 98.7304 28.5937C98.7304 26.4364 99.7094 25.175 101.453 25.175C103.187 25.175 104.175 26.4364 104.175 28.5937C104.175 30.76 103.187 32.0214 101.453 32.0214Z" fill="white"/>
<path d="M107.791 33.5754H109.796V27.6979C109.796 26.2993 110.868 25.3578 112.388 25.3578C112.742 25.3578 113.339 25.4218 113.507 25.4767V23.5388C113.292 23.484 112.91 23.4565 112.612 23.4565C111.288 23.4565 110.16 24.1695 109.871 25.1476H109.721V23.6211H107.791V33.5754Z" fill="white"/>
<path d="M118.484 25.1019C119.967 25.1019 120.936 26.1165 120.983 27.6796H115.855C115.967 26.1256 117.002 25.1019 118.484 25.1019ZM120.974 30.888C120.601 31.6649 119.771 32.0946 118.559 32.0946C116.955 32.0946 115.92 30.9885 115.855 29.2426V29.133H123.025V28.4474C123.025 25.3213 121.318 23.4291 118.493 23.4291C115.631 23.4291 113.813 25.4492 113.813 28.6302C113.813 31.8112 115.594 33.7673 118.503 33.7673C120.824 33.7673 122.447 32.6704 122.903 30.888H120.974Z" fill="white"/>
<path d="M78.4257 29.8994C78.5803 32.3437 80.658 33.907 83.7504 33.907C87.0553 33.907 89.1233 32.2679 89.1233 29.6531C89.1233 27.5972 87.9444 26.4603 85.0839 25.8066L83.5474 25.4371C81.7307 25.0202 80.9962 24.4613 80.9962 23.4854C80.9962 22.2538 82.1365 21.4485 83.847 21.4485C85.4705 21.4485 86.5915 22.2348 86.7944 23.4949H88.9011C88.7754 21.1927 86.7074 19.5726 83.876 19.5726C80.8319 19.5726 78.8026 21.1927 78.8026 23.6275C78.8026 25.636 79.9526 26.8298 82.4748 27.4077L84.2722 27.834C86.1179 28.2604 86.9297 28.8857 86.9297 29.9278C86.9297 31.1405 85.6541 32.0216 83.9146 32.0216C82.0496 32.0216 80.7546 31.1974 80.571 29.8994H78.4257Z" fill="white"/>
<path d="M57.6604 23.4565C56.2805 23.4565 55.0871 24.133 54.4717 25.2664H54.3225V23.6211H52.3926V36.8843H54.3971V32.0671H54.5556C55.0871 33.1183 56.2339 33.7399 57.679 33.7399C60.243 33.7399 61.8746 31.7564 61.8746 28.5937C61.8746 25.4309 60.243 23.4565 57.6604 23.4565ZM57.0916 31.9757C55.4134 31.9757 54.3598 30.6777 54.3598 28.6028C54.3598 26.5187 55.4134 25.2207 57.101 25.2207C58.7979 25.2207 59.8141 26.4913 59.8141 28.5937C59.8141 30.7052 58.7979 31.9757 57.0916 31.9757Z" fill="white"/>
<path d="M68.889 23.4565C67.5091 23.4565 66.3157 24.133 65.7003 25.2664H65.5511V23.6211H63.6211V36.8843H65.6257V32.0671H65.7842C66.3157 33.1183 67.4625 33.7399 68.9076 33.7399C71.4716 33.7399 73.1032 31.7564 73.1032 28.5937C73.1032 25.4309 71.4716 23.4565 68.889 23.4565ZM68.3202 31.9757C66.642 31.9757 65.5884 30.6777 65.5884 28.6028C65.5884 26.5187 66.642 25.2207 68.3296 25.2207C70.0264 25.2207 71.0427 26.4913 71.0427 28.5937C71.0427 30.7052 70.0264 31.9757 68.3202 31.9757Z" fill="white"/>
<path d="M48.796 33.5754H51.0959L46.0612 19.9042H43.7323L38.6975 33.5754H40.9201L42.2054 29.9468H47.5204L48.796 33.5754ZM44.7856 22.3864H44.9499L46.9696 28.1656H42.7562L44.7856 22.3864Z" fill="white"/>
<path d="M40.0439 9.59243V16.1875H42.4727C44.4773 16.1875 45.6381 14.9763 45.6381 12.8694C45.6381 10.7944 44.468 9.59243 42.4727 9.59243H40.0439ZM41.0882 10.5248H42.3562C43.7501 10.5248 44.5752 11.3932 44.5752 12.8831C44.5752 14.3959 43.7641 15.2551 42.3562 15.2551H41.0882V10.5248Z" fill="white"/>
<path d="M49.1932 16.2835C50.6756 16.2835 51.5847 15.31 51.5847 13.6966C51.5847 12.0924 50.671 11.1144 49.1932 11.1144C47.7107 11.1144 46.797 12.0924 46.797 13.6966C46.797 15.31 47.7061 16.2835 49.1932 16.2835ZM49.1932 15.4105C48.3214 15.4105 47.8319 14.7844 47.8319 13.6966C47.8319 12.618 48.3214 11.9873 49.1932 11.9873C50.0603 11.9873 50.5544 12.618 50.5544 13.6966C50.5544 14.7798 50.0603 15.4105 49.1932 15.4105Z" fill="white"/>
<path d="M59.3261 11.2103H58.3238L57.4194 15.0083H57.3401L56.2959 11.2103H55.3356L54.2913 15.0083H54.2167L53.3077 11.2103H52.2914L53.69 16.1875H54.7202L55.7645 12.522H55.8437L56.8926 16.1875H57.9322L59.3261 11.2103Z" fill="white"/>
<path d="M60.4803 16.1875H61.4826V13.2762C61.4826 12.4992 61.9535 12.0147 62.6947 12.0147C63.4359 12.0147 63.7902 12.4124 63.7902 13.2122V16.1875H64.7925V12.9654C64.7925 11.7816 64.1678 11.1144 63.035 11.1144C62.2705 11.1144 61.767 11.448 61.5199 12.001H61.4453V11.2103H60.4803V16.1875Z" fill="white"/>
<path d="M66.371 16.1875H67.3733V9.26793H66.371V16.1875Z" fill="white"/>
<path d="M71.1428 16.2835C72.6252 16.2835 73.5343 15.31 73.5343 13.6966C73.5343 12.0924 72.6206 11.1144 71.1428 11.1144C69.6603 11.1144 68.7466 12.0924 68.7466 13.6966C68.7466 15.31 69.6557 16.2835 71.1428 16.2835ZM71.1428 15.4105C70.271 15.4105 69.7815 14.7844 69.7815 13.6966C69.7815 12.618 70.271 11.9873 71.1428 11.9873C72.0099 11.9873 72.504 12.618 72.504 13.6966C72.504 14.7798 72.0099 15.4105 71.1428 15.4105Z" fill="white"/>
<path d="M76.5206 15.4425C75.9752 15.4425 75.579 15.182 75.579 14.7341C75.579 14.2953 75.896 14.0623 76.5952 14.0166L77.8353 13.9389V14.3548C77.8353 14.9718 77.2758 15.4425 76.5206 15.4425ZM76.2642 16.2698C76.9309 16.2698 77.4856 15.9864 77.7886 15.4882H77.8679V16.1875H78.8329V12.7871C78.8329 11.7359 78.115 11.1144 76.8423 11.1144C75.6908 11.1144 74.8704 11.6628 74.7678 12.5175H75.7375C75.8493 12.1656 76.2363 11.9645 76.7957 11.9645C77.481 11.9645 77.8353 12.2615 77.8353 12.7871V13.2167L76.46 13.2944C75.2526 13.3676 74.572 13.884 74.572 14.7798C74.572 15.6893 75.2853 16.2698 76.2642 16.2698Z" fill="white"/>
<path d="M82.2341 16.2698C82.9334 16.2698 83.5254 15.9453 83.8285 15.4014H83.9077V16.1875H84.868V9.26793H83.8658V12.001H83.7912C83.5161 11.4526 82.9287 11.1281 82.2341 11.1281C80.9521 11.1281 80.127 12.1244 80.127 13.6966C80.127 15.2734 80.9428 16.2698 82.2341 16.2698ZM82.5185 12.0102C83.3576 12.0102 83.8844 12.6637 83.8844 13.7012C83.8844 14.7432 83.3623 15.3877 82.5185 15.3877C81.6701 15.3877 81.1619 14.7524 81.1619 13.6966C81.1619 12.65 81.6747 12.0102 82.5185 12.0102Z" fill="white"/>
<path d="M91.3675 16.2835C92.85 16.2835 93.759 15.31 93.759 13.6966C93.759 12.0924 92.8453 11.1144 91.3675 11.1144C89.8851 11.1144 88.9714 12.0924 88.9714 13.6966C88.9714 15.31 89.8804 16.2835 91.3675 16.2835ZM91.3675 15.4105C90.4958 15.4105 90.0063 14.7844 90.0063 13.6966C90.0063 12.618 90.4958 11.9873 91.3675 11.9873C92.2346 11.9873 92.7288 12.618 92.7288 13.6966C92.7288 14.7798 92.2346 15.4105 91.3675 15.4105Z" fill="white"/>
<path d="M95.0858 16.1875H96.0881V13.2762C96.0881 12.4992 96.5589 12.0147 97.3001 12.0147C98.0414 12.0147 98.3956 12.4124 98.3956 13.2122V16.1875H99.3979V12.9654C99.3979 11.7816 98.7733 11.1144 97.6404 11.1144C96.8759 11.1144 96.3724 11.448 96.1254 12.001H96.0508V11.2103H95.0858V16.1875Z" fill="white"/>
<path d="M104.014 9.97177V11.2332H103.208V12.0604H104.014V14.8712C104.014 15.831 104.457 16.2149 105.571 16.2149C105.767 16.2149 105.953 16.1921 106.117 16.1646V15.3465C105.977 15.3602 105.888 15.3694 105.734 15.3694C105.235 15.3694 105.016 15.1409 105.016 14.6198V12.0604H106.117V11.2332H105.016V9.97177H104.014Z" fill="white"/>
<path d="M107.462 16.1875H108.464V13.2807C108.464 12.5266 108.921 12.0193 109.742 12.0193C110.45 12.0193 110.828 12.4215 110.828 13.2167V16.1875H111.83V12.9745C111.83 11.7908 111.163 11.1189 110.082 11.1189C109.317 11.1189 108.781 11.4526 108.534 12.0102H108.455V9.26793H107.462V16.1875Z" fill="white"/>
<path d="M115.446 11.9507C116.187 11.9507 116.672 12.4581 116.695 13.2396H114.131C114.187 12.4626 114.704 11.9507 115.446 11.9507ZM116.69 14.8438C116.504 15.2323 116.089 15.4471 115.483 15.4471C114.681 15.4471 114.164 14.8941 114.131 14.0211V13.9663H117.716V13.6235C117.716 12.0604 116.863 11.1144 115.45 11.1144C114.019 11.1144 113.11 12.1244 113.11 13.7149C113.11 15.3054 114.001 16.2835 115.455 16.2835C116.616 16.2835 117.427 15.735 117.655 14.8438H116.69Z" fill="white"/>
<path d="M27.8211 22.3551C27.8454 20.504 28.8594 18.7525 30.468 17.7829C29.4532 16.362 27.7534 15.4611 25.985 15.4069C24.0989 15.2128 22.2703 16.5134 21.3092 16.5134C20.3294 16.5134 18.8496 15.4261 17.2561 15.4583C15.1789 15.5241 13.2426 16.6819 12.232 18.4622C10.0597 22.1495 11.68 27.5685 13.7609 30.549C14.802 32.0084 16.0188 33.6387 17.6109 33.5809C19.1689 33.5175 19.7507 32.6069 21.6313 32.6069C23.4945 32.6069 24.0404 33.5809 25.6648 33.5441C27.3366 33.5175 28.3899 32.0782 29.3945 30.6049C30.1425 29.565 30.7181 28.4156 31.1 27.1995C29.1354 26.3848 27.8234 24.4464 27.8211 22.3551Z" fill="white"/>
<path d="M24.7528 13.4468C25.6643 12.374 26.1134 10.9951 26.0047 9.60291C24.612 9.7463 23.3257 10.3988 22.4018 11.4305C21.4985 12.4384 21.0283 13.793 21.1172 15.132C22.5103 15.1461 23.8798 14.5112 24.7528 13.4468Z" fill="white"/>
</svg>
