<svg width="185" height="32" viewBox="0 0 185 32" fill="none" xmlns="http://www.w3.org/2000/svg">
<rect width="185" height="31.7357" rx="2.89506" fill="white"/>
<g clip-path="url(#clip0_215_21177)">
<path d="M19.4214 21.3489H16.5923L18.3618 10.4227H21.1907L19.4214 21.3489Z" fill="#00579F"/>
<path d="M29.6772 10.6896C29.1191 10.4686 28.2341 10.2245 27.1397 10.2245C24.3459 10.2245 22.3785 11.7122 22.3664 13.8392C22.3432 15.4085 23.775 16.2802 24.8459 16.8034C25.9404 17.3381 26.3125 17.6871 26.3125 18.1637C26.3013 18.8957 25.428 19.2331 24.6135 19.2331C23.484 19.2331 22.8788 19.0592 21.9591 18.6519L21.5866 18.4773L21.1907 20.93C21.8542 21.2319 23.0767 21.4998 24.3459 21.5115C27.3144 21.5115 29.2469 20.0468 29.2698 17.7801C29.2811 16.5363 28.5251 15.5833 26.8951 14.8045C25.9056 14.3046 25.2996 13.9675 25.2996 13.4559C25.3112 12.9909 25.8122 12.5146 26.9291 12.5146C27.8489 12.4913 28.5246 12.7121 29.0365 12.933L29.2924 13.049L29.6772 10.6896Z" fill="#00579F"/>
<path d="M33.4374 17.4782C33.6703 16.8505 34.5669 14.4211 34.5669 14.4211C34.5551 14.4444 34.7994 13.7818 34.9391 13.375L35.1368 14.3165C35.1368 14.3165 35.6725 16.9319 35.7889 17.4782C35.3467 17.4782 33.9962 17.4782 33.4374 17.4782ZM36.9295 10.4227H34.7412C34.0664 10.4227 33.5537 10.6202 33.2625 11.3293L29.0603 21.3488H32.0288C32.0288 21.3488 32.5175 20.0002 32.6225 19.7098C32.9482 19.7098 35.8359 19.7098 36.2548 19.7098C36.3361 20.0934 36.5924 21.3488 36.5924 21.3488H39.2119L36.9295 10.4227Z" fill="#00579F"/>
<path d="M14.2294 10.4227L11.4588 17.8733L11.156 16.3623C10.6438 14.6187 9.03735 12.7243 7.24463 11.7824L9.78241 21.3373H12.7741L17.2209 10.4227H14.2294Z" fill="#00579F"/>
<path d="M8.88613 10.4227H4.33441L4.28784 10.6435C7.83847 11.5502 10.19 13.7358 11.1561 16.3627L10.1666 11.3412C10.0037 10.6433 9.50309 10.4457 8.88613 10.4227Z" fill="#FAA61A"/>
</g>
<g clip-path="url(#clip1_215_21177)">
<path d="M85.1344 5.61862C85.6347 5.61862 86.0195 6.02123 86.0195 6.50093V6.51378V25.2393V25.2521C86.0195 25.7318 85.6176 26.1173 85.1173 26.1173H52.7334H52.7205C52.2202 26.1173 51.814 25.7319 51.814 25.2521L51.8182 25.2393V6.51378L51.814 6.50093C51.814 6.02123 52.1817 5.61862 52.682 5.61862H85.1344Z" fill="white"/>
<path fill-rule="evenodd" clip-rule="evenodd" d="M52.1758 6.44941L52.1778 6.4554V25.2977L52.1762 25.3023C52.2029 25.5461 52.422 25.7575 52.7208 25.7575H85.1176C85.4344 25.7575 85.6606 25.5185 85.6606 25.2521V6.50093C85.6606 6.21648 85.4332 5.9784 85.1347 5.9784H52.6824C52.4101 5.9784 52.1998 6.18083 52.1758 6.44941ZM51.4551 6.50093C51.4551 5.83532 51.9711 5.25885 52.6824 5.25885H85.1347C85.8368 5.25885 86.379 5.82598 86.379 6.50093V25.2521C86.379 25.9451 85.8014 26.4771 85.1176 26.4771H52.7208C52.0393 26.4771 51.4551 25.9474 51.4551 25.2521V25.1937L51.4594 25.1809V6.57217L51.4551 6.55932V6.50093Z" fill="black"/>
<path d="M62.1881 25.3293C67.3495 25.3293 71.536 21.1319 71.536 15.9623C71.536 10.7926 67.3495 6.59952 62.1881 6.59952C57.0224 6.59952 52.8359 10.7926 52.8359 15.9623C52.8359 21.1319 57.0224 25.3293 62.1881 25.3293Z" fill="#E2001A"/>
<path d="M75.7907 25.3293C80.9521 25.3293 85.1386 21.1319 85.1386 15.9623C85.1386 10.7926 80.9522 6.59952 75.7907 6.59952C70.625 6.59952 66.4429 10.7926 66.4429 15.9623C66.4429 21.1319 70.625 25.3293 75.7907 25.3293Z" fill="#F6A800"/>
<path d="M68.983 22.3866C67.4093 20.7077 66.4429 18.4462 66.4429 15.9621C66.4429 13.5036 67.3922 11.2636 68.9359 9.59317L69.1326 9.69596C70.625 11.3578 71.5359 13.555 71.5359 15.9621C71.5359 18.382 70.6165 20.5835 69.1156 22.2496L68.983 22.3866Z" fill="#EB690A"/>
<path d="M54.6707 13.6151H55.4874L56.5351 16.2321L57.4716 13.6151H58.3354V17.1015H57.664V14.5146L56.766 17.1015H56.2571L55.3591 14.5488V17.1015H54.6707V13.6151Z" fill="white"/>
<path d="M61.7737 17.1015V14.4331H61.2007V17.1015H61.7737Z" fill="white"/>
<path d="M65.6049 17.1016V13.6623H65.002V17.1016H65.6049Z" fill="white"/>
<path d="M64.6555 14.4331V15.0712H65.9983V14.4331H64.6555Z" fill="white"/>
<path d="M78.267 17.1015V14.4331H77.6941V17.1015H78.267Z" fill="white"/>
<path d="M83.4412 17.1015V13.765H82.8682V17.1015H83.4412Z" fill="white"/>
<path d="M70.4628 14.4334H69.8684V17.1017H70.4713V15.3371C70.6124 15.0501 71.0358 14.9901 71.1042 14.9901V14.4162C70.9631 14.4162 70.4798 14.5233 70.4627 14.7845V14.4334H70.4628Z" fill="white"/>
<path d="M79.5755 14.4334H78.9768V17.1017H79.5841V15.3371C79.7209 15.0501 80.1486 14.9901 80.2127 14.9901V14.4162C80.0758 14.4162 79.5926 14.5233 79.5755 14.7845V14.4334Z" fill="white"/>
<path d="M63.5694 15.1956H64.1552C64.1552 14.7287 63.8559 14.4417 63.3641 14.4417C62.8724 14.4417 62.4832 14.6987 62.4832 15.2727C62.4832 15.8465 63.0862 15.928 63.1845 15.9537C63.3043 15.9879 63.6335 16.0265 63.6335 16.3905C63.6335 16.5276 63.471 16.5619 63.3299 16.5619C63.1931 16.5619 63.052 16.4548 63.052 16.2963H62.3977C62.3977 16.8959 62.8638 17.1358 63.3299 17.1358C63.796 17.1358 64.2408 16.7588 64.2408 16.3048C64.2408 15.8594 63.8046 15.5981 63.4625 15.5467C62.9451 15.4739 62.9964 15.0242 63.2957 15.0242C63.5779 15.0242 63.5608 15.1484 63.5694 15.1956Z" fill="white"/>
<path d="M74.3071 16.1464C74.0933 16.4163 73.764 16.5876 73.3963 16.5876C72.7548 16.5876 72.2374 16.0693 72.2374 15.4354C72.2374 14.793 72.7548 14.2747 73.3963 14.2747C73.7597 14.2747 74.089 14.4418 74.2985 14.7073H75.0512C74.7732 14.0477 74.1275 13.6151 73.3963 13.6151C72.3913 13.6151 71.5789 14.4289 71.5789 15.4354C71.5789 16.4334 72.3913 17.2515 73.3963 17.2515C74.1403 17.2515 74.7818 16.7889 75.064 16.1464H74.3071Z" fill="white"/>
<path d="M82.158 23.7873C82.158 23.1792 82.654 22.7294 83.2356 22.7294C83.8086 22.7294 84.3046 23.1792 84.3046 23.7873C84.3046 24.3998 83.8086 24.8453 83.2356 24.8453C82.654 24.8453 82.158 24.3998 82.158 23.7873Z" fill="black"/>
<path d="M83.0094 24.3999H82.8254V23.1793H83.2916C83.5781 23.1793 83.7192 23.2821 83.7192 23.5262C83.7192 23.7446 83.5823 23.8389 83.407 23.8602L83.7534 24.3999H83.5439L83.2232 23.8688H83.0094V24.3999Z" fill="white"/>
<path d="M82.9878 23.706V23.3377H83.3855C83.5565 23.4791 83.6036 23.5433 83.3855 23.706H82.9878Z" fill="black"/>
<path d="M82.0643 17.1659C82.8298 17.1659 83.4541 16.5405 83.4541 15.7782C83.4541 15.0072 82.8297 14.3862 82.0643 14.3862V14.9772C82.5048 14.9772 82.864 15.337 82.864 15.7782C82.864 16.215 82.5048 16.5748 82.0643 16.5748V17.1659ZM82.0643 17.1659V16.5748C81.6239 16.5748 81.2647 16.215 81.2647 15.7782C81.2647 15.337 81.6239 14.9772 82.0643 14.9772V14.3862C81.2989 14.3862 80.6746 15.0072 80.6746 15.7782C80.6746 16.5405 81.2989 17.1659 82.0643 17.1659Z" fill="white"/>
<path d="M76.8898 17.1659C77.6595 17.1659 78.2796 16.5405 78.2796 15.7782C78.2796 15.0072 77.6595 14.3862 76.8898 14.3862V14.9772C77.3302 14.9772 77.6894 15.337 77.6894 15.7782C77.6894 16.215 77.3302 16.5748 76.8898 16.5748V17.1659ZM76.8898 14.3862C76.1243 14.3862 75.5 15.0073 75.5 15.7782C75.5 16.5406 76.1244 17.1659 76.8898 17.1659V16.5748C76.4493 16.5748 76.0901 16.2151 76.0901 15.7782C76.0901 15.3371 76.4493 14.9772 76.8898 14.9772V14.3862Z" fill="white"/>
<path d="M67.8416 16.0521H69.1972C69.2015 16.0136 69.2058 15.9707 69.2058 15.9322V15.8165C69.1844 15.1955 68.7953 14.4331 67.8417 14.4245V15.0713C68.1667 15.0713 68.4874 15.2212 68.4874 15.5167H67.8417V16.0521H67.8416ZM67.8416 17.1743C68.3805 17.1657 69.1373 16.8145 69.1373 16.3648H68.4147C68.4147 16.4719 68.1367 16.5704 67.8416 16.5662V17.1743ZM67.1788 16.0521H67.8416V15.5167H67.1959C67.1959 15.2212 67.5167 15.0713 67.8416 15.0713V14.4246C67.8374 14.4246 67.8288 14.4246 67.8245 14.4246C66.9607 14.4246 66.4904 15.1441 66.4861 15.8466V15.8723C66.4989 16.5362 66.9223 17.1744 67.816 17.1744C67.8245 17.1744 67.8331 17.1743 67.8416 17.1743V16.5662C67.5167 16.5619 67.1788 16.429 67.1788 16.0521Z" fill="white"/>
<path d="M60.401 17.1659C61.1665 17.1659 61.7908 16.5405 61.7908 15.7782C61.7908 15.0072 61.1665 14.3862 60.401 14.3862V14.9772C60.8415 14.9772 61.2007 15.337 61.2007 15.7782C61.2007 16.215 60.8415 16.5748 60.401 16.5748V17.1659ZM60.401 17.1659V16.5748C59.9606 16.5748 59.6014 16.215 59.6014 15.7782C59.6014 15.337 59.9606 14.9772 60.401 14.9772V14.3862C59.6313 14.3862 59.0112 15.0072 59.0112 15.7782C59.0112 16.5405 59.6313 17.1659 60.401 17.1659Z" fill="white"/>
</g>
<g clip-path="url(#clip2_215_21177)">
<path d="M98.6216 4.58364L98.6226 27.1523L133.546 27.1514L133.545 4.58267L98.6216 4.58364ZM133.031 5.09743L133.032 26.6386H99.1373L99.1364 5.09937L133.031 5.09743Z" fill="black"/>
<path d="M131.625 25.3964L102.652 25.4022L102.312 23.6345L131.625 18.2043V25.3964Z" fill="#33A457"/>
<path d="M131.606 17.4146L129.799 7.66241C129.756 7.42979 129.667 7.20795 129.538 7.00955C129.409 6.81116 129.243 6.6401 129.048 6.50616C128.853 6.37222 128.633 6.27802 128.402 6.22894C128.17 6.17986 127.931 6.17686 127.699 6.22012L101.822 11.0161C101.353 11.1032 100.937 11.3732 100.666 11.7667C100.395 12.1603 100.292 12.6453 100.379 13.115L102.186 22.8681L131.606 17.4146Z" fill="black"/>
<path fill-rule="evenodd" clip-rule="evenodd" d="M127.695 6.20158C127.93 6.15786 128.172 6.16089 128.405 6.21049C128.639 6.26008 128.861 6.35528 129.058 6.49063C129.255 6.62598 129.424 6.79884 129.554 6.99932C129.684 7.1998 129.774 7.42398 129.817 7.65904L131.628 17.4299L102.171 22.8903L100.36 13.1185C100.272 12.6438 100.377 12.1538 100.65 11.7561C100.924 11.3584 101.344 11.0855 101.819 10.9976L127.695 6.20158ZM128.398 6.24754C128.169 6.19898 127.932 6.19601 127.702 6.23882L101.826 11.0348C101.361 11.121 100.949 11.3881 100.682 11.7775C100.414 12.167 100.312 12.6468 100.397 13.1116C100.397 13.1116 100.397 13.1116 100.397 13.1116L102.201 22.8461L131.584 17.3995L129.78 7.66594C129.737 7.43577 129.65 7.21626 129.522 7.01995C129.395 6.82364 129.23 6.65439 129.037 6.52185C128.844 6.38932 128.627 6.29611 128.398 6.24754Z" fill="black"/>
<path d="M103.534 13.8074C104.858 13.6316 105.725 14.5242 105.958 15.7548C106.201 17.0446 105.728 18.1149 104.288 18.347L102.803 18.6267L101.948 14.1056L103.534 13.8074ZM103.549 17.6739L104.134 17.5632C105.034 17.3932 105.159 16.5784 105.034 15.9218C104.889 15.1516 104.434 14.5631 103.586 14.7233L103.012 14.8321L103.549 17.6739Z" fill="url(#paint0_linear_215_21177)"/>
<path d="M107.711 17.6993L106.817 17.8692L105.964 13.353L106.858 13.183L107.711 17.6993Z" fill="url(#paint1_linear_215_21177)"/>
<path d="M110.043 13.8522C109.467 13.6618 109.135 13.6084 108.83 13.6657C108.508 13.7259 108.33 13.9095 108.373 14.1338C108.501 14.8118 110.292 14.2756 110.588 15.8413C110.751 16.7037 110.266 17.3127 109.466 17.4642C108.839 17.5827 108.49 17.437 108.088 17.2748L107.906 16.3075C108.503 16.6377 108.847 16.729 109.242 16.6542C109.585 16.5901 109.741 16.4036 109.69 16.1404C109.551 15.4042 107.775 16.019 107.47 14.4067C107.323 13.6307 107.763 13.0159 108.595 12.8586C108.996 12.7828 109.379 12.8197 109.878 12.9781L110.043 13.8522Z" fill="url(#paint2_linear_215_21177)"/>
<path d="M114.452 16.0597C114.013 16.4764 113.658 16.6726 113.126 16.7736C111.73 17.0368 110.822 16.0374 110.602 14.8787C110.376 13.6812 110.949 12.4147 112.323 12.1553C112.824 12.0611 113.296 12.1078 113.699 12.3039L113.887 13.3043C113.44 13.1023 113.005 12.9945 112.562 13.078C111.799 13.2218 111.369 13.889 111.519 14.6854C111.671 15.4877 112.311 15.9597 113.058 15.8189C113.526 15.7305 113.807 15.4867 114.265 15.0797L114.452 16.0597Z" fill="url(#paint3_linear_215_21177)"/>
<path d="M121.198 15.1497L120.809 15.2235L118.223 11.0636L119.197 10.8801L120.629 13.2606L121.046 10.5314L122.009 10.3488L121.198 15.1497Z" fill="url(#paint4_linear_215_21177)"/>
<path d="M125.726 14.2929L123.077 14.7941L122.229 10.307L124.84 9.81357L124.996 10.6362L123.279 10.9596L123.457 11.9008L125.095 11.5919L125.25 12.4145L123.613 12.7244L123.817 13.8024L125.57 13.4713L125.726 14.2929Z" fill="url(#paint5_linear_215_21177)"/>
<path d="M126.818 9.43866C127.555 9.2988 128.109 9.83493 128.235 10.5061C128.328 10.9994 128.193 11.4074 127.827 11.7211C128.239 11.8813 128.455 12.4136 129.208 13.6334L128.223 13.819C127.657 12.9303 127.352 12.096 126.867 12.1873L126.609 12.2358L126.953 14.0579L126.06 14.2298L125.212 9.74266L126.818 9.43866ZM126.481 11.5142L126.954 11.4248C127.202 11.3782 127.419 11.2005 127.346 10.8188C127.283 10.4827 127.077 10.3448 126.74 10.4089L126.287 10.4944L126.481 11.5142Z" fill="url(#paint6_linear_215_21177)"/>
<path d="M116.217 11.4657C117.68 11.1889 118.799 12.0543 119.032 13.2897C119.257 14.4853 118.565 15.7343 117.063 16.018C115.614 16.2918 114.494 15.3925 114.268 14.1901C114.036 12.9615 114.781 11.7367 116.217 11.4657Z" fill="url(#paint7_linear_215_21177)"/>
<path d="M128.884 9.48654L128.943 9.47586L129.125 9.70021L129.274 9.67399L129.077 9.44186C129.155 9.42147 129.212 9.37193 129.192 9.26218C129.168 9.12621 129.07 9.09902 128.918 9.12524L128.696 9.16506L128.8 9.75752L128.926 9.73615L128.884 9.48654ZM128.865 9.3865L128.84 9.2447L128.928 9.22819C128.976 9.21945 129.043 9.21265 129.054 9.27384C129.065 9.33891 129.033 9.35736 128.977 9.36708L128.865 9.3865ZM129.519 9.32726C129.458 8.97955 129.161 8.82221 128.87 8.87369C128.577 8.92516 128.352 9.1738 128.414 9.5215C128.475 9.86921 128.771 10.0265 129.063 9.9741C129.356 9.9236 129.58 9.67496 129.519 9.32726ZM129.36 9.35542C129.404 9.60892 129.254 9.81093 129.041 9.84881V9.8459C128.822 9.88669 128.616 9.74683 128.572 9.49334C128.527 9.23984 128.674 9.03977 128.892 9.00189C129.105 8.96401 129.316 9.10193 129.36 9.35542ZM120.098 24.4592H119.665L118.526 22.9052V24.4592H118.012V22.034H118.483L119.584 23.5171V22.034H120.098V24.4592ZM121.782 24.4912C120.893 24.4912 120.391 23.8648 120.391 23.2471C120.391 22.6604 120.868 22.0019 121.782 22.0019C122.696 22.0019 123.169 22.6633 123.169 23.2471C123.168 23.8687 122.653 24.4912 121.782 24.4912ZM121.782 22.507C121.319 22.507 121.013 22.8022 121.013 23.2471C121.013 23.6919 121.319 23.9862 121.782 23.9862C122.241 23.9862 122.546 23.6909 122.546 23.2471C122.546 22.8022 122.24 22.507 121.782 22.507ZM124.396 24.4912H124.173L123.176 22.034H123.735L124.28 23.417L124.797 22.034H125.349L124.396 24.4912ZM127.621 22.034V23.4102C127.621 24.2134 127.156 24.4912 126.59 24.4912C125.992 24.4912 125.56 24.1639 125.56 23.4141V22.035H126.074V23.4287C126.074 23.7774 126.288 23.9871 126.584 23.9871C126.856 23.9871 127.107 23.8201 127.107 23.386V22.035L127.621 22.034ZM129.45 22.6633C129.151 22.507 128.972 22.4468 128.797 22.4468C128.613 22.4468 128.494 22.5245 128.494 22.6459C128.494 23.012 129.543 22.9091 129.543 23.755C129.543 24.2202 129.21 24.4912 128.752 24.4912C128.392 24.4912 128.213 24.3815 128.008 24.2562V23.7337C128.304 23.9648 128.485 24.0464 128.713 24.0464C128.909 24.0464 129.015 23.9648 129.015 23.822C129.015 23.4238 127.966 23.5695 127.966 22.6983C127.966 22.2787 128.274 22.001 128.752 22.001C128.981 22.001 129.19 22.0583 129.45 22.1894V22.6633ZM130.397 22.708H130.275V22.1428H130.487C130.633 22.1428 130.718 22.1845 130.718 22.3137C130.718 22.4176 130.658 22.4555 130.582 22.4604L130.726 22.7071H130.583L130.453 22.4701H130.397V22.708ZM130.503 22.3749C130.557 22.3749 130.589 22.3642 130.589 22.3011C130.589 22.2428 130.527 22.2389 130.481 22.2389H130.397V22.3749H130.503ZM130.484 22.9508C130.206 22.9508 129.957 22.7576 129.957 22.4264C129.957 22.0942 130.206 21.9019 130.484 21.9019C130.762 21.9019 131.011 22.0942 131.011 22.4264C131.013 22.496 131.001 22.5653 130.975 22.6301C130.949 22.6948 130.911 22.7536 130.861 22.8027C130.812 22.8519 130.753 22.8904 130.688 22.9159C130.623 22.9414 130.554 22.9533 130.484 22.9508ZM130.484 22.0233C130.275 22.0233 130.108 22.1845 130.108 22.4264C130.108 22.6682 130.275 22.8304 130.484 22.8294C130.686 22.8294 130.859 22.6682 130.859 22.4264C130.859 22.1845 130.686 22.0233 130.484 22.0233Z" fill="white"/>
</g>
<path fill-rule="evenodd" clip-rule="evenodd" d="M167.094 16.6461V5.86844H146.858V14.2104L147.618 12.4992H148.902L149.33 13.5093V12.4992H150.898L151.373 13.5093L151.837 12.4992H157.374C157.588 12.4992 157.885 12.5705 158.016 12.8081V12.4992H159.18V12.8677C159.323 12.6655 159.549 12.4992 160 12.4992H162.365L162.793 13.4856V12.4992H164.195L164.682 13.3547V12.4992H165.965V15.6601H164.587L164.017 14.7213V15.6601H162.27L161.996 15.0422H161.438L161.177 15.6601H160.084C159.846 15.6364 159.299 15.5414 159.18 15.1731V15.6601H157.077V14.959C157.077 14.8639 156.982 14.745 156.863 14.745H156.637V15.6599H152.169V14.947L151.825 15.6599H150.922L150.577 14.9351V15.6599H148.783L148.545 15.0896H147.975L147.725 15.6599H146.858V25.8436H167.094V19.605C166.988 19.7239 166.809 19.8189 166.548 19.8189H164.86V19.5813C164.73 19.7239 164.552 19.8189 164.254 19.8189H159.489V19.1533C159.477 19.0702 159.525 18.8919 159.287 18.8919H159.085V19.8191H157.826V18.7495C157.695 18.9634 157.41 18.9756 157.22 18.9871H156.554V19.8191H154.867L154.38 19.2248L153.857 19.8191H150.981V16.6461H153.904L154.404 17.2287L154.926 16.6461H157.232C157.398 16.658 157.707 16.7413 157.826 16.9078V16.6461H159.787C159.965 16.6461 160.298 16.7295 160.44 16.9552V16.6461H162.912V16.9315C163.043 16.7532 163.244 16.6461 163.565 16.6461H165.146V16.9196C165.265 16.7413 165.573 16.6461 165.764 16.6461H167.094Z" fill="#00ACEC"/>
<path fill-rule="evenodd" clip-rule="evenodd" d="M179.524 18.5709L172.228 25.8434H173.262L179.524 19.6049V18.5709Z" fill="#33348E"/>
<path fill-rule="evenodd" clip-rule="evenodd" d="M179.524 20.6032L174.271 25.8435H175.305L179.524 21.6368V20.6032Z" fill="#00ACEC"/>
<path fill-rule="evenodd" clip-rule="evenodd" d="M179.524 22.6351L176.303 25.8434H177.349L179.524 23.669V22.6351Z" fill="#33A457"/>
<path fill-rule="evenodd" clip-rule="evenodd" d="M163.268 4.78699H145.788V26.9486H180.712V4.78699H163.268ZM180.344 26.5564H146.192V5.19113H180.344L180.344 26.5564Z" fill="#00ACEC"/>
<path fill-rule="evenodd" clip-rule="evenodd" d="M168.996 23.9781C168.485 23.9781 168.069 24.382 168.069 24.8931C168.069 25.3919 168.485 25.8078 168.996 25.8078C169.495 25.8078 169.91 25.3917 169.91 24.8931C169.91 24.773 169.887 24.654 169.841 24.543C169.795 24.432 169.727 24.3311 169.643 24.2462C169.558 24.1612 169.457 24.0938 169.346 24.0478C169.235 24.0018 169.116 23.9781 168.996 23.9781ZM168.996 25.7012C168.544 25.6893 168.188 25.3325 168.188 24.8933C168.188 24.4416 168.544 24.085 168.996 24.085C169.435 24.085 169.792 24.4416 169.792 24.8933C169.792 25.3325 169.435 25.7012 168.996 25.7012Z" fill="#00ACEC"/>
<path fill-rule="evenodd" clip-rule="evenodd" d="M169.459 24.6433C169.459 24.5602 169.423 24.477 169.352 24.4294C169.269 24.382 169.186 24.382 169.103 24.382H168.651V25.404H168.782V24.9285H169.008L169.304 25.404H169.447L169.138 24.9285C169.317 24.9284 169.459 24.8453 169.459 24.6433ZM168.996 24.8335H168.782V24.4649H169.067C169.197 24.4649 169.34 24.4886 169.34 24.6431C169.34 24.8453 169.138 24.8335 168.996 24.8335ZM151.361 14.4953L150.637 12.8673H149.698V15.1964L148.652 12.8673H147.868L146.81 15.2915H147.44L147.666 14.7449H148.854L149.092 15.2915H150.292V13.4852L151.088 15.2915H151.635L152.443 13.5209V15.2915H153.037V12.8673H152.087L151.361 14.4953ZM148.26 14.222H147.903L148.26 13.3783V13.402L148.628 14.2218L148.26 14.222ZM157.992 13.5091C157.992 12.9982 157.576 12.8673 157.279 12.8673H155.734V15.2915H156.328V14.4359H157.101C157.315 14.4359 157.398 14.6379 157.398 14.8401L157.41 15.2916H157.992L157.968 14.7927C157.968 14.4005 157.861 14.2222 157.588 14.1867C157.909 14.02 157.992 13.8059 157.992 13.5091ZM157.065 13.9368H156.328V13.3902H157.065C157.315 13.3902 157.398 13.5448 157.398 13.6635C157.398 13.8298 157.315 13.9368 157.065 13.9368ZM158.301 15.2915H158.895V12.8673H158.301V15.2915ZM165.027 12.8673V14.5429L164.017 12.8673H163.138V15.1369L162.115 12.8673H161.331L160.511 14.7449C160.511 14.7449 160.214 14.7449 160.179 14.7331C159.988 14.7094 159.762 14.5192 159.762 14.0913C159.762 13.5209 160.071 13.3902 160.464 13.3902H160.832V12.8673H160.06C159.787 12.8673 159.192 13.0693 159.18 14.0675C159.157 14.7329 159.454 15.2915 160.119 15.2915H160.903L161.129 14.7449H162.317L162.555 15.2915H163.732V13.5209L164.801 15.2915H165.621V12.8673H165.027ZM161.735 14.222H161.367L161.723 13.3783L161.735 13.402L162.092 14.2218L161.735 14.222ZM153.441 15.2915H155.39V14.7805H154.035V14.3051H155.354V13.8416H154.035V13.3902H155.39V12.8673H153.441V15.2915ZM164.171 17.965C164.136 17.965 163.803 17.9534 163.755 17.9534C163.613 17.9414 163.506 17.9056 163.506 17.763C163.506 17.5253 163.732 17.5491 163.945 17.5491H164.86V17.0262H163.601C163.22 17.0262 162.9 17.276 162.9 17.7277C162.9 18.1313 163.054 18.4641 163.708 18.4763C163.755 18.4763 164.04 18.4878 164.124 18.5C164.302 18.5237 164.338 18.5952 164.338 18.7019C164.338 18.9396 164.1 18.9396 163.934 18.9396H162.959V19.4503H164.207C164.599 19.4503 164.967 19.213 164.967 18.7613C164.967 18.3689 164.908 18.0008 164.171 17.965ZM166.405 17.965C166.37 17.965 166.037 17.9534 165.989 17.9534C165.846 17.9414 165.74 17.9056 165.74 17.763C165.74 17.5253 165.965 17.5491 166.167 17.5491H167.082V17.0262H165.834C165.442 17.0262 165.122 17.276 165.122 17.7277C165.122 18.1313 165.276 18.4641 165.942 18.4763C165.989 18.4763 166.274 18.4878 166.357 18.5C166.524 18.5237 166.571 18.5952 166.571 18.7019C166.571 18.9396 166.322 18.9396 166.155 18.9396H165.181V19.4503H166.441C166.833 19.4503 167.201 19.213 167.201 18.7613C167.201 18.3689 167.142 18.0008 166.405 17.965ZM157.16 17.0262H155.069L154.392 17.7751L153.726 17.0262H151.373V19.4387H153.655L154.368 18.6424L155.069 19.4503H156.21V18.6303H157.006C157.315 18.6303 157.885 18.6187 157.885 17.763C157.885 17.1688 157.457 17.0262 157.16 17.0262ZM153.334 18.9396H151.979V18.4525H153.286V18.0008H151.979V17.5491H153.334L154 18.2028L153.334 18.9396ZM155.616 19.213L155.188 18.7139L154.76 18.2028L155.188 17.7395L155.616 17.264V19.213ZM156.946 18.1313H156.21V17.5491H156.946C157.196 17.5491 157.279 17.7036 157.279 17.8225C157.279 17.9887 157.196 18.1313 156.946 18.1313ZM160.428 17.6799C160.428 17.157 160 17.0262 159.715 17.0262H158.159V19.4503H158.753V18.595H159.537C159.739 18.595 159.822 18.797 159.834 19.0107L159.846 19.4503H160.428L160.404 18.9511C160.404 18.5591 160.297 18.3809 160.012 18.3452C160.345 18.191 160.428 17.965 160.428 17.6799ZM159.501 18.0958H158.753V17.5489H159.501C159.751 17.5489 159.834 17.7034 159.834 17.8223C159.834 17.9887 159.739 18.0958 159.501 18.0958ZM160.725 19.4387H162.662V18.9396H161.319V18.4525H162.627V18.0008H161.319V17.5491H162.662V17.0262H160.725V19.4387ZM169.637 17.2519C169.138 17.2519 169.043 16.8599 169.043 16.444C169.043 15.8737 169.257 15.5767 169.59 15.5767C169.899 15.5767 170.101 15.755 170.124 16.0637H171.051C170.98 15.3034 170.469 14.8518 169.554 14.8518C168.722 14.8518 168.069 15.446 168.069 16.4087C168.069 17.3829 168.663 17.9771 169.649 17.9771C170.434 17.9771 170.992 17.5138 171.075 16.7531H170.137C170.101 17.0381 169.946 17.2519 169.637 17.2519ZM173.523 16.5748C173.523 16.0637 173.463 15.6836 172.43 15.6836H172.311C171.55 15.7074 171.254 15.9689 171.254 16.4087H172.073C172.097 16.2541 172.204 16.2063 172.311 16.2063C172.335 16.1948 172.358 16.1948 172.382 16.1948C172.465 16.1948 172.667 16.2185 172.667 16.373C172.667 16.5035 172.513 16.5394 172.311 16.575C171.86 16.6461 171.123 16.6344 171.123 17.3118C171.123 17.7632 171.479 17.9651 171.895 17.9651C172.05 17.9651 172.18 17.9536 172.311 17.9177C172.454 17.8699 172.585 17.7988 172.703 17.6801L172.798 17.9058H173.571C173.535 17.8227 173.524 17.7158 173.524 17.5849V16.5748H173.523ZM172.311 17.4779H172.24C172.062 17.4779 171.966 17.4064 171.966 17.2997C171.966 17.1214 172.121 17.0857 172.311 17.0503C172.43 17.0262 172.561 17.0025 172.667 16.9551C172.667 17.3234 172.561 17.4542 172.311 17.4779ZM174.486 16.1824V15.743H173.701V17.9054H174.557V17.0501C174.557 16.5864 174.735 16.4201 175.092 16.4201H175.27V15.6954C175.234 15.6835 175.187 15.6835 175.151 15.6835C174.818 15.6836 174.604 15.838 174.486 16.1824ZM176.898 14.9349V15.9569C176.791 15.838 176.684 15.7667 176.553 15.7195C176.47 15.6958 176.363 15.6838 176.244 15.6838C175.733 15.6838 175.329 16.1473 175.329 16.8602C175.329 17.4783 175.662 17.9653 176.316 17.9653C176.399 17.9653 176.482 17.9653 176.553 17.9416C176.72 17.8942 176.838 17.799 176.981 17.6207V17.9058H177.753V14.9349H176.898ZM176.553 17.3471H176.529C176.244 17.3471 176.197 17.0857 176.197 16.8601C176.197 16.6224 176.268 16.3493 176.553 16.3493C176.838 16.3493 176.922 16.6107 176.922 16.8485C176.921 17.0856 176.838 17.3353 176.553 17.3471Z" fill="#00ACEC"/>
<defs>
<linearGradient id="paint0_linear_215_21177" x1="104.064" y1="15.1158" x2="124.326" y2="11.2975" gradientUnits="userSpaceOnUse">
<stop stop-color="#C95A2D"/>
<stop offset="0.15" stop-color="#C95A2D"/>
<stop offset="0.182" stop-color="#CB602E"/>
<stop offset="0.229" stop-color="#CF6F2F"/>
<stop offset="0.286" stop-color="#D68630"/>
<stop offset="0.35" stop-color="#E2A732"/>
<stop offset="0.42" stop-color="#F6D330"/>
<stop offset="0.44" stop-color="#F6D330"/>
<stop offset="0.494" stop-color="#EDC132"/>
<stop offset="0.608" stop-color="#DB9531"/>
<stop offset="0.75" stop-color="#C95A2D"/>
<stop offset="0.978" stop-color="#C95A2D"/>
<stop offset="1" stop-color="#C95A2D"/>
</linearGradient>
<linearGradient id="paint1_linear_215_21177" x1="104.065" y1="15.1168" x2="124.326" y2="11.2985" gradientUnits="userSpaceOnUse">
<stop stop-color="#C95A2D"/>
<stop offset="0.15" stop-color="#C95A2D"/>
<stop offset="0.182" stop-color="#CB602E"/>
<stop offset="0.229" stop-color="#CF6F2F"/>
<stop offset="0.286" stop-color="#D68630"/>
<stop offset="0.35" stop-color="#E2A732"/>
<stop offset="0.42" stop-color="#F6D330"/>
<stop offset="0.44" stop-color="#F6D330"/>
<stop offset="0.494" stop-color="#EDC132"/>
<stop offset="0.608" stop-color="#DB9531"/>
<stop offset="0.75" stop-color="#C95A2D"/>
<stop offset="0.978" stop-color="#C95A2D"/>
<stop offset="1" stop-color="#C95A2D"/>
</linearGradient>
<linearGradient id="paint2_linear_215_21177" x1="104.762" y1="15.967" x2="125.024" y2="12.1455" gradientUnits="userSpaceOnUse">
<stop stop-color="#C95A2D"/>
<stop offset="0.15" stop-color="#C95A2D"/>
<stop offset="0.182" stop-color="#CB602E"/>
<stop offset="0.229" stop-color="#CF6F2F"/>
<stop offset="0.286" stop-color="#D68630"/>
<stop offset="0.35" stop-color="#E2A732"/>
<stop offset="0.42" stop-color="#F6D330"/>
<stop offset="0.44" stop-color="#F6D330"/>
<stop offset="0.494" stop-color="#EDC132"/>
<stop offset="0.608" stop-color="#DB9531"/>
<stop offset="0.75" stop-color="#C95A2D"/>
<stop offset="0.978" stop-color="#C95A2D"/>
<stop offset="1" stop-color="#C95A2D"/>
</linearGradient>
<linearGradient id="paint3_linear_215_21177" x1="104.762" y1="15.9662" x2="125.024" y2="12.1448" gradientUnits="userSpaceOnUse">
<stop stop-color="#C95A2D"/>
<stop offset="0.15" stop-color="#C95A2D"/>
<stop offset="0.182" stop-color="#CB602E"/>
<stop offset="0.229" stop-color="#CF6F2F"/>
<stop offset="0.286" stop-color="#D68630"/>
<stop offset="0.35" stop-color="#E2A732"/>
<stop offset="0.42" stop-color="#F6D330"/>
<stop offset="0.44" stop-color="#F6D330"/>
<stop offset="0.494" stop-color="#EDC132"/>
<stop offset="0.608" stop-color="#DB9531"/>
<stop offset="0.75" stop-color="#C95A2D"/>
<stop offset="0.978" stop-color="#C95A2D"/>
<stop offset="1" stop-color="#C95A2D"/>
</linearGradient>
<linearGradient id="paint4_linear_215_21177" x1="104.143" y1="15.1097" x2="124.405" y2="11.2914" gradientUnits="userSpaceOnUse">
<stop stop-color="#C95A2D"/>
<stop offset="0.15" stop-color="#C95A2D"/>
<stop offset="0.182" stop-color="#CB602E"/>
<stop offset="0.229" stop-color="#CF6F2F"/>
<stop offset="0.286" stop-color="#D68630"/>
<stop offset="0.35" stop-color="#E2A732"/>
<stop offset="0.42" stop-color="#F6D330"/>
<stop offset="0.44" stop-color="#F6D330"/>
<stop offset="0.494" stop-color="#EDC132"/>
<stop offset="0.608" stop-color="#DB9531"/>
<stop offset="0.75" stop-color="#C95A2D"/>
<stop offset="0.978" stop-color="#C95A2D"/>
<stop offset="1" stop-color="#C95A2D"/>
</linearGradient>
<linearGradient id="paint5_linear_215_21177" x1="103.965" y1="15.1419" x2="124.226" y2="11.3236" gradientUnits="userSpaceOnUse">
<stop stop-color="#C95A2D"/>
<stop offset="0.15" stop-color="#C95A2D"/>
<stop offset="0.182" stop-color="#CB602E"/>
<stop offset="0.229" stop-color="#CF6F2F"/>
<stop offset="0.286" stop-color="#D68630"/>
<stop offset="0.35" stop-color="#E2A732"/>
<stop offset="0.42" stop-color="#F6D330"/>
<stop offset="0.44" stop-color="#F6D330"/>
<stop offset="0.494" stop-color="#EDC132"/>
<stop offset="0.608" stop-color="#DB9531"/>
<stop offset="0.75" stop-color="#C95A2D"/>
<stop offset="0.978" stop-color="#C95A2D"/>
<stop offset="1" stop-color="#C95A2D"/>
</linearGradient>
<linearGradient id="paint6_linear_215_21177" x1="103.694" y1="15.1913" x2="123.956" y2="11.3729" gradientUnits="userSpaceOnUse">
<stop stop-color="#C95A2D"/>
<stop offset="0.15" stop-color="#C95A2D"/>
<stop offset="0.182" stop-color="#CB602E"/>
<stop offset="0.229" stop-color="#CF6F2F"/>
<stop offset="0.286" stop-color="#D68630"/>
<stop offset="0.35" stop-color="#E2A732"/>
<stop offset="0.42" stop-color="#F6D330"/>
<stop offset="0.44" stop-color="#F6D330"/>
<stop offset="0.494" stop-color="#EDC132"/>
<stop offset="0.608" stop-color="#DB9531"/>
<stop offset="0.75" stop-color="#C95A2D"/>
<stop offset="0.978" stop-color="#C95A2D"/>
<stop offset="1" stop-color="#C95A2D"/>
</linearGradient>
<linearGradient id="paint7_linear_215_21177" x1="104.633" y1="16.0089" x2="125.098" y2="12.145" gradientUnits="userSpaceOnUse">
<stop stop-color="#C95A2D"/>
<stop offset="0.15" stop-color="#C95A2D"/>
<stop offset="0.182" stop-color="#CB602E"/>
<stop offset="0.229" stop-color="#CF6F2F"/>
<stop offset="0.286" stop-color="#D68630"/>
<stop offset="0.35" stop-color="#E2A732"/>
<stop offset="0.42" stop-color="#F6D330"/>
<stop offset="0.44" stop-color="#F6D330"/>
<stop offset="0.494" stop-color="#EDC132"/>
<stop offset="0.608" stop-color="#DB9531"/>
<stop offset="0.75" stop-color="#C95A2D"/>
<stop offset="0.978" stop-color="#C95A2D"/>
<stop offset="1" stop-color="#C95A2D"/>
</linearGradient>
<clipPath id="clip0_215_21177">
<rect width="34.924" height="11.2871" fill="white" transform="translate(4.2876 10.2243)"/>
</clipPath>
<clipPath id="clip1_215_21177">
<rect width="34.924" height="21.2182" fill="white" transform="translate(51.4546 5.25867)"/>
</clipPath>
<clipPath id="clip2_215_21177">
<rect width="34.924" height="22.5741" fill="white" transform="translate(98.6216 4.58075)"/>
</clipPath>
</defs>
</svg>
