<svg width="35" height="37" viewBox="0 0 35 37" fill="none" xmlns="http://www.w3.org/2000/svg">
<path d="M17.479 0.229763C9.91258 0.229763 3.76214 5.83399 3.76214 12.6963V17.3093C1.66037 18.1862 0.200195 20.0351 0.200195 22.1701C0.200195 25.0294 2.76656 27.3549 6.01877 27.5456C6.35063 28.4415 7.32408 29.1087 8.47453 29.1087C9.91258 29.1087 11.063 28.0983 11.063 26.8784V17.3283C11.063 16.0893 9.89046 15.0981 8.47453 15.0981C7.25771 15.0981 6.24002 15.8224 5.97453 16.7946C5.62055 16.8137 5.26657 16.8709 4.93471 16.9471V12.6963C4.93471 6.36773 10.5763 1.22102 17.5011 1.22102C24.4259 1.22102 30.0675 6.36773 30.0675 12.6963V16.9471C29.7356 16.8709 29.3816 16.8137 29.0276 16.7946C28.74 15.8224 27.7444 15.0981 26.5276 15.0981C25.0896 15.0981 23.9391 16.1084 23.9391 17.3283V26.8784C23.9391 28.1174 25.1117 29.1087 26.5276 29.1087C27.6781 29.1087 28.6515 28.4605 28.9834 27.5456C30.0674 27.4884 31.0851 27.1834 31.948 26.6877V31.2054C31.948 32.1776 31.5055 33.1307 30.709 33.7979C29.802 34.5604 27.9657 35.2275 26.3506 34.9606C25.0675 34.7319 24.094 33.9695 23.4082 32.6923C23.8285 32.3683 24.1161 31.9108 24.1161 31.377C24.1161 30.4049 23.209 29.6233 22.0807 29.6233C20.9524 29.6233 20.0453 30.4049 20.0453 31.377C20.0453 32.3492 20.9524 33.1307 22.0807 33.1307C22.1692 33.1307 22.2577 33.1307 22.3462 33.1116C23.386 35.0941 24.9568 35.7422 26.1073 35.9519C26.4391 36.0091 26.771 36.0281 27.1029 36.0281C28.8285 36.0281 30.532 35.3419 31.5055 34.5222C32.5011 33.6645 33.0984 32.4635 33.0984 31.2245V26.0206C33.0984 26.0206 33.0984 25.9443 33.0763 25.9062C34.1604 24.934 34.8241 23.6188 34.8241 22.1892C34.8241 20.0352 33.3639 18.1861 31.2621 17.3283V12.7154C31.2621 5.83401 25.1117 0.248844 17.5453 0.248844L17.479 0.229763ZM7.03648 17.3474C7.03648 16.6612 7.67807 16.1084 8.47453 16.1084C9.27099 16.1084 9.91258 16.6612 9.91258 17.3474V26.8975C9.91258 27.5837 9.27099 28.1365 8.47453 28.1365C7.67807 28.1365 7.03648 27.5837 7.03648 26.8975V17.3474ZM5.88604 17.824V26.5734C3.34179 26.3256 1.35064 24.4575 1.35064 22.2082C1.35064 19.9589 3.34179 18.0908 5.88604 17.843V17.824ZM27.9214 26.8975C27.9214 27.5837 27.2798 28.1365 26.4834 28.1365C25.6869 28.1365 25.0453 27.5837 25.0453 26.8975V17.3474C25.0453 16.6612 25.6869 16.1084 26.4834 16.1084C27.2798 16.1084 27.9214 16.6612 27.9214 17.3474V26.8975ZM22.0365 32.1585C21.5498 32.1585 21.1736 31.8154 21.1736 31.4151C21.1736 31.0148 21.5719 30.6717 22.0365 30.6717C22.5011 30.6717 22.8993 31.0148 22.8993 31.4151C22.8993 31.8154 22.5011 32.1585 22.0365 32.1585ZM33.6073 22.1892C33.6073 24.4575 31.6161 26.3066 29.0719 26.5544V17.8049C31.6161 18.0527 33.6073 19.9208 33.6073 22.1701V22.1892Z" fill="black"/>
<path d="M27.0796 36.2368C26.7257 36.2368 26.3717 36.1987 26.0398 36.1415C24.8673 35.9318 23.2522 35.2837 22.1903 33.3203C22.146 33.3203 22.1018 33.3203 22.0575 33.3203C20.8186 33.3203 19.8009 32.4435 19.8009 31.376C19.8009 30.3085 20.8186 29.4316 22.0575 29.4316C23.2965 29.4316 24.3142 30.3085 24.3142 31.376C24.3142 31.8716 24.0708 32.3672 23.6504 32.7294C24.292 33.8922 25.1991 34.5784 26.3717 34.769C27.9204 35.0359 29.6681 34.3877 30.531 33.6634C31.2832 33.0344 31.7035 32.1384 31.7035 31.2044V27.0299C30.9071 27.4111 30.0221 27.6589 29.115 27.7161C28.6947 28.6501 27.677 29.2792 26.5044 29.2792C24.9558 29.2792 23.6947 28.1926 23.6947 26.8583V17.3083C23.6947 15.9739 24.9558 14.8874 26.5044 14.8874C27.7434 14.8874 28.8274 15.5736 29.1814 16.603C29.4027 16.6221 29.6239 16.6602 29.8451 16.6983V12.6762C29.8451 6.44298 24.3142 1.39154 17.5 1.39154C10.6858 1.39154 5.15486 6.46204 5.15486 12.6762V16.6983C5.3761 16.6602 5.59734 16.6221 5.81858 16.603C6.17256 15.5927 7.25664 14.8874 8.49558 14.8874C10.0442 14.8874 11.3053 15.9739 11.3053 17.3083V26.8583C11.3053 28.1926 10.0442 29.2792 8.49558 29.2792C7.32301 29.2792 6.30531 28.6501 5.88496 27.7161C2.56637 27.4492 0 25.0283 0 22.15C0 20.0532 1.39381 18.1088 3.56195 17.1557V12.6572C3.56195 5.68049 9.82301 0 17.5 0C25.177 0 31.4381 5.68049 31.4381 12.6572V17.1557C33.6062 18.1088 35 20.0532 35 22.15C35 23.5606 34.3805 24.8949 33.2743 25.9243C33.2743 25.9433 33.2743 25.9624 33.2743 25.9814V31.1854C33.2743 32.4816 32.677 33.7206 31.615 34.6165C30.708 35.398 28.938 36.1796 27.0796 36.1796V36.2368ZM22.2788 32.9581C22.2788 32.9581 22.4779 32.9962 22.5221 33.0725C23.5177 34.9787 25.0442 35.6077 26.1283 35.7983C26.438 35.8555 26.7699 35.8746 27.0796 35.8746C28.8274 35.8746 30.4646 35.1502 31.3274 34.4259C32.3009 33.6062 32.854 32.4435 32.854 31.2616V26.0577V25.9814C32.854 25.9242 32.854 25.848 32.8982 25.8099C33.9823 24.8377 34.5796 23.5606 34.5796 22.2072C34.5796 20.2248 33.2301 18.3758 31.1283 17.4989C31.0619 17.4608 30.9956 17.4035 30.9956 17.3273V12.7143C30.9956 5.94735 24.9336 0.419365 17.5 0.419365C10.0664 0.419365 4.00442 5.92829 4.00442 12.7143V17.3273C4.00442 17.3273 3.96018 17.4608 3.87168 17.4989C1.76991 18.3567 0.420351 20.2057 0.420351 22.2072C0.420351 24.9331 2.89823 27.2205 6.03982 27.4111C6.12832 27.4111 6.19469 27.4683 6.23894 27.5445C6.54867 28.4023 7.45575 28.9742 8.49558 28.9742C9.80089 28.9742 10.8628 28.0592 10.8628 26.9345V17.3845C10.8628 16.2598 9.80089 15.3449 8.49558 15.3449C7.41151 15.3449 6.46018 15.993 6.19469 16.9079C6.17256 16.9842 6.08407 17.0414 5.99557 17.0414C5.66371 17.0604 5.33186 17.1177 4.97788 17.1939C4.9115 17.1939 4.84513 17.1939 4.80088 17.1557C4.75663 17.1176 4.71238 17.0605 4.71238 17.0033V12.7524C4.71238 6.32857 10.4425 1.08654 17.5 1.08654C24.5575 1.08654 30.2876 6.30951 30.2876 12.7524V17.0033C30.2876 17.0033 30.2655 17.1176 30.1991 17.1557C30.1549 17.1939 30.0664 17.1939 30.0221 17.1939C29.6903 17.1177 29.3363 17.0795 29.0044 17.0414C28.9159 17.0414 28.8274 16.9842 28.8053 16.9079C28.5398 15.993 27.5885 15.3449 26.5044 15.3449C25.1991 15.3449 24.1372 16.2598 24.1372 17.3845V26.9345C24.1372 28.0592 25.1991 28.9742 26.5044 28.9742C27.5221 28.9742 28.4292 28.4023 28.7611 27.5445C28.7832 27.4683 28.8717 27.4111 28.9602 27.4111C29.9779 27.3539 30.9513 27.068 31.8142 26.5914C31.8805 26.5533 31.969 26.5533 32.0354 26.5914C32.1018 26.6296 32.146 26.6867 32.146 26.763V31.2807C32.146 32.31 31.6814 33.3012 30.8407 34.0065C29.8894 34.8071 27.9867 35.4933 26.2832 35.2074C24.9336 34.9787 23.8938 34.1781 23.1858 32.8247C23.1416 32.7484 23.1858 32.6531 23.2301 32.615C23.6283 32.31 23.8496 31.8906 23.8496 31.4522C23.8496 30.5944 23.031 29.8892 22.0354 29.8892C21.0398 29.8892 20.2212 30.5944 20.2212 31.4522C20.2212 32.31 21.0398 33.0153 22.0354 33.0153C22.1018 33.0153 22.1681 33.0153 22.2345 33.0153C22.2345 33.0153 22.2566 33.0153 22.2788 33.0153V32.9581ZM22.0354 32.3481C21.4381 32.3481 20.9513 31.9288 20.9513 31.4141C20.9513 30.8994 21.4381 30.4801 22.0354 30.4801C22.6327 30.4801 23.1195 30.8994 23.1195 31.4141C23.1195 31.9288 22.6327 32.3481 22.0354 32.3481ZM22.0354 30.8423C21.6814 30.8423 21.3938 31.09 21.3938 31.395C21.3938 31.7 21.6814 31.9478 22.0354 31.9478C22.3894 31.9478 22.677 31.7 22.677 31.395C22.677 31.09 22.3894 30.8423 22.0354 30.8423ZM26.4823 28.3261C25.5752 28.3261 24.823 27.697 24.823 26.8964V17.3464C24.823 16.5648 25.5531 15.9167 26.4823 15.9167C27.4115 15.9167 28.1416 16.5458 28.1416 17.3464V26.8964C28.1416 27.678 27.4115 28.3261 26.4823 28.3261ZM26.4823 16.317C25.8186 16.317 25.2655 16.7936 25.2655 17.3655V26.9155C25.2655 27.4873 25.8186 27.9639 26.4823 27.9639C27.146 27.9639 27.6991 27.4873 27.6991 26.9155V17.3655C27.6991 16.7936 27.146 16.317 26.4823 16.317ZM8.47345 28.3261C7.56637 28.3261 6.81416 27.697 6.81416 26.8964V17.3464C6.81416 16.5648 7.54424 15.9167 8.47345 15.9167C9.40265 15.9167 10.1327 16.5458 10.1327 17.3464V26.8964C10.1327 27.678 9.40265 28.3261 8.47345 28.3261ZM8.47345 16.317C7.80973 16.317 7.25663 16.7936 7.25663 17.3655V26.9155C7.25663 27.4873 7.80973 27.9639 8.47345 27.9639C9.13716 27.9639 9.69026 27.4873 9.69026 26.9155V17.3655C9.69026 16.7936 9.13716 16.317 8.47345 16.317ZM29.0708 26.763C29.0708 26.763 28.9602 26.763 28.9159 26.7058C28.8717 26.6677 28.8496 26.6105 28.8496 26.5724V17.8229C28.8496 17.8229 28.8717 17.7276 28.9159 17.6895C28.9602 17.6514 29.0265 17.6323 29.0929 17.6514C31.792 17.9182 33.8274 19.8817 33.8274 22.2072C33.8274 24.5328 31.792 26.4961 29.0929 26.763C29.0929 26.763 29.0929 26.763 29.0708 26.763ZM29.292 18.0326V26.3436C31.6372 26.0196 33.385 24.2659 33.385 22.1881C33.385 20.1104 31.6372 18.3567 29.292 18.0326ZM5.88496 26.763C5.88496 26.763 5.88495 26.763 5.86283 26.763C3.16371 26.4961 1.12831 24.5328 1.12831 22.2072C1.12831 19.8817 3.16371 17.9182 5.86283 17.6514C5.9292 17.6514 5.99557 17.6514 6.03982 17.6895C6.08407 17.7276 6.10619 17.7848 6.10619 17.8229V26.5724C6.10619 26.5724 6.08407 26.6677 6.03982 26.7058C5.99557 26.7439 5.95133 26.763 5.88496 26.763ZM5.66371 18.0326C3.31858 18.3567 1.57079 20.1104 1.57079 22.1881C1.57079 24.2659 3.31858 26.0196 5.66371 26.3436V18.0326Z" fill="black"/>
</svg>
