<svg viewBox="0 0 99 71" fill="none" xmlns="http://www.w3.org/2000/svg">
<g id="Group">
<path id="Vector" d="M62.1496 70.4566C60.5595 70.4566 59.0608 69.6981 58.1196 68.4096L37.4944 40.7297C35.8678 38.4999 36.3521 35.3838 38.5819 33.7571C40.8116 32.1305 43.9278 32.6149 45.5544 34.8446L62.0217 56.8223L72.6404 41.2871C74.1939 39.0117 77.3009 38.4268 79.5764 39.9803C81.8518 41.5339 82.4367 44.6409 80.8831 46.9163L66.2801 68.2817C65.3663 69.6159 63.8585 70.4292 62.241 70.4566C62.2136 70.4566 62.1861 70.4566 62.1587 70.4566H62.1496ZM32.3952 57.5716C33.9487 57.4985 35.4566 57.27 36.9004 56.8954C37.8965 56.6395 37.6589 55.1774 36.6354 55.2413C36.5532 55.2413 36.4801 55.2505 36.3978 55.2596C24.8927 55.9267 14.9502 47.0077 14.3562 35.5026C14.0364 29.2976 16.458 23.5953 20.5611 19.5562C21.283 18.8434 20.3418 17.7011 19.5011 18.2586C13.5429 22.2429 9.72306 29.1149 9.96066 36.7636C10.3262 48.6069 20.5611 58.1016 32.3952 57.5716Z" fill="var(--fill-0, #ED1C24)"/>
<path id="Vector_2" d="M78.023 26.3549C74.2123 26.3549 70.6483 27.3784 67.587 29.1695C65.2567 12.684 51.1015 0 33.9671 0C15.2062 0 0 15.2062 0 33.958C0 52.7098 15.2062 67.916 33.958 67.916C40.2817 67.916 46.1942 66.1797 51.2568 63.1732L46.907 57.3338C42.6211 60.3129 37.4214 62.0675 31.8105 62.0675C17.18 62.0675 5.3185 50.2059 5.3185 35.5755C5.3185 20.945 17.18 9.08349 31.8105 9.08349C46.4409 9.08349 58.3025 20.945 58.3025 35.5755C58.3025 39.048 57.6262 42.3652 56.4108 45.3992L61.9213 52.7464L64.1784 49.4383C65.8964 46.1028 67.0753 42.4384 67.6053 38.5728C69.7254 36.8457 72.4303 35.8039 75.382 35.8039C82.19 35.8039 87.7096 41.3235 87.7096 48.1315C87.7096 54.9396 82.19 60.4591 75.382 60.4591C75.0804 60.4591 74.788 60.4408 74.4956 60.4226L70.3742 66.4447C72.741 67.386 75.318 67.8977 78.0138 67.8977C89.4916 67.8977 98.7944 58.5949 98.7944 47.1172C98.7944 35.6394 89.4916 26.3366 78.0138 26.3366L78.023 26.3549Z" fill="var(--fill-0, #0086C9)"/>
</g>
</svg>
