<svg width="35" height="34" viewBox="0 0 35 34" fill="none" xmlns="http://www.w3.org/2000/svg">
<path d="M7.08323 33.1984C6.99311 33.1984 6.88492 33.1624 6.81282 33.1083C6.6506 32.9821 6.57855 32.7658 6.63262 32.5856L10.5078 20.6534L0.360067 13.2815C0.197848 13.1553 0.125794 12.939 0.179868 12.7588C0.251965 12.5605 0.432209 12.4343 0.630477 12.4343H13.1755L17.0507 0.502215C17.1228 0.303947 17.303 0.177734 17.5013 0.177734C17.6995 0.177734 17.8798 0.303947 17.9519 0.502215L21.8272 12.4343H34.372C34.5703 12.4343 34.7506 12.5605 34.8227 12.7588C34.8948 12.957 34.8227 13.1733 34.6425 13.2815L24.4947 20.6534L28.37 32.5856C28.4421 32.7838 28.3699 33.0001 28.1897 33.1083C28.0275 33.2345 27.7932 33.2345 27.631 33.1083L17.4832 25.7363L7.33549 33.1083C7.33549 33.1083 7.15531 33.1984 7.06519 33.1984H7.08323ZM2.09045 13.3716L11.337 20.0947C11.4992 20.2209 11.5712 20.4192 11.5172 20.6174L7.98445 31.4861L17.231 24.763C17.3932 24.6368 17.6275 24.6368 17.7897 24.763L27.0362 31.4861L23.5034 20.6174C23.4493 20.4192 23.5034 20.2028 23.6836 20.0947L32.9301 13.3716H21.5027C21.3045 13.3716 21.1242 13.2454 21.0521 13.0472L17.5193 2.17847L13.9865 13.0472C13.9144 13.2454 13.7341 13.3716 13.5359 13.3716H2.10849H2.09045Z" fill="black"/>
<path d="M7.08197 33.3811C6.93778 33.3811 6.81156 33.3451 6.70342 33.2549C6.4691 33.0927 6.37897 32.8043 6.46909 32.534L10.3083 20.728L0.268705 13.4281C0.0343886 13.2659 -0.0557421 12.9775 0.0343798 12.7072C0.124502 12.4368 0.376891 12.2566 0.647257 12.2566H13.048L16.8872 0.450609C16.9774 0.180244 17.2296 0 17.5 0C17.7704 0 18.0228 0.180244 18.1129 0.450609L21.9521 12.2566H34.3529C34.6412 12.2566 34.8755 12.4368 34.9656 12.7072C35.0557 12.9775 34.9656 13.2659 34.7313 13.4281L24.6917 20.728L28.5309 32.534C28.621 32.8043 28.5309 33.0927 28.2966 33.2549C28.0623 33.4172 27.7559 33.4172 27.5396 33.2549L17.5 25.9551L7.46041 33.2549C7.35227 33.3451 7.20814 33.3811 7.08197 33.3811ZM0.647257 12.6171C0.521086 12.6171 0.412878 12.7072 0.358805 12.8153C0.322756 12.9415 0.358801 13.0676 0.466947 13.1397L10.6147 20.5117C10.6147 20.5117 10.7049 20.6379 10.6868 20.71L6.81156 32.6421C6.77551 32.7683 6.81156 32.8944 6.9197 32.9665C7.02785 33.0386 7.17205 33.0386 7.26217 32.9665L17.4099 25.5946C17.4099 25.5946 17.5541 25.5585 17.6262 25.5946L27.7739 32.9665C27.8821 33.0386 28.0082 33.0386 28.1164 32.9665C28.2245 32.8944 28.2606 32.7503 28.2245 32.6421L24.3492 20.71C24.3492 20.71 24.3493 20.5477 24.4214 20.5117L34.5691 13.1397C34.6773 13.0676 34.7133 12.9234 34.6773 12.8153C34.6412 12.6891 34.533 12.6171 34.3888 12.6171H21.8439C21.8439 12.6171 21.6997 12.563 21.6817 12.4909L17.8064 0.558751C17.7343 0.30641 17.3197 0.30641 17.2476 0.558751L13.3725 12.4909C13.3725 12.4909 13.2823 12.6171 13.2102 12.6171H0.665299H0.647257ZM27.035 31.6688C27.035 31.6688 26.9629 31.6688 26.9268 31.6328L17.6803 24.9096C17.5722 24.8375 17.446 24.8375 17.3378 24.9096L8.09133 31.6328C8.09133 31.6328 7.94714 31.6688 7.87505 31.6328C7.82097 31.5787 7.78485 31.5066 7.80288 31.4345L11.3357 20.5658C11.3717 20.4396 11.3357 20.3134 11.2276 20.2413L1.98104 13.5183C1.98104 13.5183 1.89096 13.3921 1.90898 13.32C1.92701 13.2479 1.99905 13.1938 2.07114 13.1938H13.4986C13.6248 13.1938 13.7329 13.1037 13.787 12.9956L17.3198 2.12686C17.3739 1.98267 17.6082 1.98267 17.6623 2.12686L21.195 12.9956C21.231 13.1217 21.3392 13.1938 21.4834 13.1938H32.9108C32.9108 13.1938 33.0551 13.2479 33.0731 13.32C33.0911 13.3921 33.0731 13.4642 33.001 13.5183L23.7545 20.2413C23.6464 20.3134 23.6103 20.4576 23.6464 20.5658L27.1791 31.4345C27.1791 31.4345 27.1791 31.5787 27.107 31.6328C27.071 31.6508 27.0349 31.6688 26.9989 31.6688H27.035ZM2.64794 13.5543L11.4438 19.9529C11.6782 20.1152 11.7683 20.4036 11.6782 20.674L8.30761 31.0199L17.1035 24.6212C17.3378 24.459 17.6442 24.459 17.8605 24.6212L26.6564 31.0199L23.2859 20.674C23.1957 20.4036 23.2859 20.1152 23.5202 19.9529L32.3161 13.5543H21.4293C21.1409 13.5543 20.9067 13.3741 20.8165 13.1037L17.446 2.75773L14.0754 13.1037C13.9853 13.3741 13.7329 13.5543 13.4626 13.5543H2.57588H2.64794Z" fill="black"/>
</svg>
