<svg width="129" height="41" viewBox="0 0 129 41" fill="none" xmlns="http://www.w3.org/2000/svg">
<path d="M40.8137 20.7786C40.8137 19.1292 40.6772 17.9256 40.3816 16.6774H21.1626V24.122H32.4437C32.2163 25.9721 30.9881 28.7583 28.2588 30.6305L28.2205 30.8798L34.2972 35.4932L34.7182 35.5343C38.5847 32.0348 40.8137 26.8859 40.8137 20.7786Z" fill="#4285F4"/>
<path d="M21.1613 40.3937C26.6881 40.3937 31.3279 38.6104 34.7169 35.5345L28.2575 30.6307C26.5289 31.812 24.209 32.6368 21.1613 32.6368C15.7482 32.6368 11.1538 29.1374 9.51609 24.3005L9.27603 24.3205L2.95741 29.1128L2.87477 29.3379C6.2409 35.891 13.1552 40.3937 21.1613 40.3937Z" fill="#34A853"/>
<path d="M9.51725 24.3006C9.08511 23.0524 8.83502 21.7149 8.83502 20.333C8.83502 18.951 9.08511 17.6137 9.49451 16.3655L9.48307 16.0996L3.08524 11.2304L2.87592 11.328C1.48857 14.0473 0.692505 17.101 0.692505 20.333C0.692505 23.565 1.48857 26.6186 2.87592 29.3379L9.51725 24.3006Z" fill="#FBBC05"/>
<path d="M21.1614 8.02919C25.0051 8.02919 27.598 9.65632 29.0764 11.0161L34.8535 5.48824C31.3055 2.25626 26.6882 0.272484 21.1614 0.272484C13.1553 0.272484 6.24092 4.77494 2.87477 11.328L9.49339 16.3655C11.1539 11.5287 15.7482 8.02919 21.1614 8.02919Z" fill="#EB4335"/>
<path d="M52.3515 5.49949C52.4969 5.14983 52.9922 5.14983 53.1377 5.49949L54.8969 9.72916C54.9582 9.87657 55.0968 9.97728 55.256 9.99004L59.8223 10.3561C60.1997 10.3864 60.3528 10.8575 60.0652 11.1038L56.5862 14.084C56.4649 14.1878 56.412 14.3508 56.449 14.5061L57.5119 18.962C57.5998 19.3304 57.1991 19.6215 56.8759 19.4241L52.9665 17.0363C52.8303 16.9531 52.6589 16.9531 52.5227 17.0363L48.6133 19.4241C48.2901 19.6215 47.8894 19.3304 47.9773 18.962L49.0402 14.5061C49.0772 14.3508 49.0242 14.1878 48.903 14.084L45.424 11.1038C45.1364 10.8575 45.2894 10.3864 45.6669 10.3561L50.2332 9.99004C50.3923 9.97728 50.531 9.87657 50.5923 9.72916L52.3515 5.49949Z" fill="#F2F4F7"/>
<path d="M52.3515 5.49949C52.4969 5.14983 52.9922 5.14983 53.1377 5.49949L54.8969 9.72916C54.9582 9.87657 55.0968 9.97728 55.256 9.99004L59.8223 10.3561C60.1997 10.3864 60.3528 10.8575 60.0652 11.1038L56.5862 14.084C56.4649 14.1878 56.412 14.3508 56.449 14.5061L57.5119 18.962C57.5998 19.3304 57.1991 19.6215 56.8759 19.4241L52.9665 17.0363C52.8303 16.9531 52.6589 16.9531 52.5227 17.0363L48.6133 19.4241C48.2901 19.6215 47.8894 19.3304 47.9773 18.962L49.0402 14.5061C49.0772 14.3508 49.0242 14.1878 48.903 14.084L45.424 11.1038C45.1364 10.8575 45.2894 10.3864 45.6669 10.3561L50.2332 9.99004C50.3923 9.97728 50.531 9.87657 50.5923 9.72916L52.3515 5.49949Z" fill="#FEC84B"/>
<path d="M69.381 5.49949C69.5264 5.14983 70.0217 5.14983 70.1671 5.49949L71.9264 9.72916C71.9877 9.87657 72.1263 9.97728 72.2854 9.99004L76.8517 10.3561C77.2292 10.3864 77.3823 10.8575 77.0947 11.1038L73.6156 14.084C73.4944 14.1878 73.4414 14.3508 73.4785 14.5061L74.5414 18.962C74.6292 19.3304 74.2285 19.6215 73.9053 19.4241L69.996 17.0363C69.8597 16.9531 69.6884 16.9531 69.5521 17.0363L65.6427 19.4241C65.3196 19.6215 64.9188 19.3304 65.0067 18.962L66.0696 14.5061C66.1067 14.3508 66.0537 14.1878 65.9325 14.084L62.4534 11.1038C62.1658 10.8575 62.3189 10.3864 62.6964 10.3561L67.2627 9.99004C67.4218 9.97728 67.5604 9.87657 67.6217 9.72916L69.381 5.49949Z" fill="#F2F4F7"/>
<path d="M69.381 5.49949C69.5264 5.14983 70.0217 5.14983 70.1671 5.49949L71.9264 9.72916C71.9877 9.87657 72.1263 9.97728 72.2854 9.99004L76.8517 10.3561C77.2292 10.3864 77.3823 10.8575 77.0947 11.1038L73.6156 14.084C73.4944 14.1878 73.4414 14.3508 73.4785 14.5061L74.5414 18.962C74.6292 19.3304 74.2285 19.6215 73.9053 19.4241L69.996 17.0363C69.8597 16.9531 69.6884 16.9531 69.5521 17.0363L65.6427 19.4241C65.3196 19.6215 64.9188 19.3304 65.0067 18.962L66.0696 14.5061C66.1067 14.3508 66.0537 14.1878 65.9325 14.084L62.4534 11.1038C62.1658 10.8575 62.3189 10.3864 62.6964 10.3561L67.2627 9.99004C67.4218 9.97728 67.5604 9.87657 67.6217 9.72916L69.381 5.49949Z" fill="#FEC84B"/>
<path d="M86.4104 5.49949C86.5558 5.14983 87.0512 5.14983 87.1966 5.49949L88.9558 9.72916C89.0171 9.87657 89.1558 9.97728 89.3149 9.99004L93.8812 10.3561C94.2587 10.3864 94.4117 10.8575 94.1241 11.1038L90.6451 14.084C90.5238 14.1878 90.4709 14.3508 90.5079 14.5061L91.5708 18.962C91.6587 19.3304 91.258 19.6215 90.9348 19.4241L87.0254 17.0363C86.8892 16.9531 86.7178 16.9531 86.5816 17.0363L82.6722 19.4241C82.349 19.6215 81.9483 19.3304 82.0362 18.962L83.0991 14.5061C83.1361 14.3508 83.0832 14.1878 82.9619 14.084L79.4829 11.1038C79.1953 10.8575 79.3484 10.3864 79.7258 10.3561L84.2921 9.99004C84.4513 9.97728 84.5899 9.87657 84.6512 9.72916L86.4104 5.49949Z" fill="#F2F4F7"/>
<path d="M86.4104 5.49949C86.5558 5.14983 87.0512 5.14983 87.1966 5.49949L88.9558 9.72916C89.0171 9.87657 89.1558 9.97728 89.3149 9.99004L93.8812 10.3561C94.2587 10.3864 94.4117 10.8575 94.1241 11.1038L90.6451 14.084C90.5238 14.1878 90.4709 14.3508 90.5079 14.5061L91.5708 18.962C91.6587 19.3304 91.258 19.6215 90.9348 19.4241L87.0254 17.0363C86.8892 16.9531 86.7178 16.9531 86.5816 17.0363L82.6722 19.4241C82.349 19.6215 81.9483 19.3304 82.0362 18.962L83.0991 14.5061C83.1361 14.3508 83.0832 14.1878 82.9619 14.084L79.4829 11.1038C79.1953 10.8575 79.3484 10.3864 79.7258 10.3561L84.2921 9.99004C84.4513 9.97728 84.5899 9.87657 84.6512 9.72916L86.4104 5.49949Z" fill="#FEC84B"/>
<path d="M103.44 5.49949C103.585 5.14983 104.081 5.14983 104.226 5.49949L105.985 9.72916C106.047 9.87657 106.185 9.97728 106.344 9.99004L110.911 10.3561C111.288 10.3864 111.441 10.8575 111.154 11.1038L107.675 14.084C107.553 14.1878 107.5 14.3508 107.537 14.5061L108.6 18.962C108.688 19.3304 108.287 19.6215 107.964 19.4241L104.055 17.0363C103.919 16.9531 103.747 16.9531 103.611 17.0363L99.7017 19.4241C99.3785 19.6215 98.9778 19.3304 99.0656 18.962L100.129 14.5061C100.166 14.3508 100.113 14.1878 99.9914 14.084L96.5124 11.1038C96.2248 10.8575 96.3778 10.3864 96.7553 10.3561L101.322 9.99004C101.481 9.97728 101.619 9.87657 101.681 9.72916L103.44 5.49949Z" fill="#F2F4F7"/>
<path d="M103.44 5.49949C103.585 5.14983 104.081 5.14983 104.226 5.49949L105.985 9.72916C106.047 9.87657 106.185 9.97728 106.344 9.99004L110.911 10.3561C111.288 10.3864 111.441 10.8575 111.154 11.1038L107.675 14.084C107.553 14.1878 107.5 14.3508 107.537 14.5061L108.6 18.962C108.688 19.3304 108.287 19.6215 107.964 19.4241L104.055 17.0363C103.919 16.9531 103.747 16.9531 103.611 17.0363L99.7017 19.4241C99.3785 19.6215 98.9778 19.3304 99.0656 18.962L100.129 14.5061C100.166 14.3508 100.113 14.1878 99.9914 14.084L96.5124 11.1038C96.2248 10.8575 96.3778 10.3864 96.7553 10.3561L101.322 9.99004C101.481 9.97728 101.619 9.87657 101.681 9.72916L103.44 5.49949Z" fill="#FEC84B"/>
<path d="M120.469 5.49949C120.615 5.14983 121.11 5.14983 121.256 5.49949L123.015 9.72916C123.076 9.87657 123.215 9.97728 123.374 9.99004L127.94 10.3561C128.318 10.3864 128.471 10.8575 128.183 11.1038L124.704 14.084C124.583 14.1878 124.53 14.3508 124.567 14.5061L125.63 18.962C125.718 19.3304 125.317 19.6215 124.994 19.4241L121.084 17.0363C120.948 16.9531 120.777 16.9531 120.641 17.0363L116.731 19.4241C116.408 19.6215 116.007 19.3304 116.095 18.962L117.158 14.5061C117.195 14.3508 117.142 14.1878 117.021 14.084L113.542 11.1038C113.254 10.8575 113.407 10.3864 113.785 10.3561L118.351 9.99004C118.51 9.97728 118.649 9.87657 118.71 9.72916L120.469 5.49949Z" fill="#F2F4F7"/>
<path d="M120.469 5.49949C120.615 5.14983 121.11 5.14983 121.256 5.49949L123.015 9.72916C123.076 9.87657 123.215 9.97728 123.374 9.99004L127.94 10.3561C128.318 10.3864 128.471 10.8575 128.183 11.1038L124.704 14.084C124.583 14.1878 124.53 14.3508 124.567 14.5061L125.63 18.962C125.718 19.3304 125.317 19.6215 124.994 19.4241L121.084 17.0363C120.948 16.9531 120.777 16.9531 120.641 17.0363L116.731 19.4241C116.408 19.6215 116.007 19.3304 116.095 18.962L117.158 14.5061C117.195 14.3508 117.142 14.1878 117.021 14.084L113.542 11.1038C113.254 10.8575 113.407 10.3864 113.785 10.3561L118.351 9.99004C118.51 9.97728 118.649 9.87657 118.71 9.72916L120.469 5.49949Z" fill="#FEC84B"/>
<path d="M44.8137 32.6459V31.1711L48.5117 25.3452H49.7832V27.3867H49.0307L46.6995 31.0759V31.1451H51.9544V32.6459H44.8137ZM49.0653 34.2029V32.1961L49.0999 31.543V25.3452H50.8559V34.2029H49.0653Z" fill="#667085"/>
<path d="M54.1299 34.3154C53.8445 34.3154 53.5994 34.2145 53.3947 34.0126C53.1928 33.8079 53.0919 33.5628 53.0919 33.2774C53.0919 32.9948 53.1928 32.7526 53.3947 32.5508C53.5994 32.3489 53.8445 32.248 54.1299 32.248C54.4067 32.248 54.6489 32.3489 54.8565 32.5508C55.0641 32.7526 55.1679 32.9948 55.1679 33.2774C55.1679 33.4677 55.1189 33.6421 55.0209 33.8007C54.9257 33.9564 54.8003 34.0819 54.6446 34.177C54.4889 34.2693 54.3173 34.3154 54.1299 34.3154Z" fill="#667085"/>
<path d="M59.6109 34.3241C58.9448 34.3241 58.3523 34.2159 57.8333 33.9997C57.3171 33.7805 56.912 33.4821 56.6179 33.1044C56.3238 32.7267 56.1768 32.2985 56.1768 31.8198C56.1768 31.4508 56.2604 31.112 56.4276 30.8035C56.5977 30.492 56.8284 30.234 57.1196 30.0293C57.4108 29.8217 57.7367 29.689 58.0971 29.6314V29.5708C57.6242 29.4757 57.2407 29.2464 56.9466 28.8831C56.6525 28.5169 56.5055 28.0916 56.5055 27.6072C56.5055 27.1488 56.6395 26.7408 56.9077 26.3832C57.1758 26.0228 57.5435 25.7402 58.0106 25.5355C58.4806 25.3279 59.014 25.2241 59.6109 25.2241C60.2077 25.2241 60.7397 25.3279 61.2068 25.5355C61.6768 25.7431 62.0459 26.0271 62.314 26.3876C62.5822 26.7451 62.7177 27.1517 62.7206 27.6072C62.7177 28.0945 62.5678 28.5198 62.2708 28.8831C61.9738 29.2464 61.5932 29.4757 61.129 29.5708V29.6314C61.4836 29.689 61.8051 29.8217 62.0934 30.0293C62.3847 30.234 62.6153 30.492 62.7854 30.8035C62.9585 31.112 63.0464 31.4508 63.0493 31.8198C63.0464 32.2985 62.8979 32.7267 62.6038 33.1044C62.3097 33.4821 61.9031 33.7805 61.3841 33.9997C60.868 34.2159 60.2769 34.3241 59.6109 34.3241ZM59.6109 32.9487C59.9078 32.9487 60.1673 32.8953 60.3894 32.7887C60.6114 32.6791 60.7844 32.5292 60.9084 32.3389C61.0352 32.1457 61.0987 31.9236 61.0987 31.6728C61.0987 31.4162 61.0338 31.1898 60.904 30.9938C60.7743 30.7948 60.5984 30.6391 60.3764 30.5266C60.1544 30.4113 59.8992 30.3536 59.6109 30.3536C59.3254 30.3536 59.0702 30.4113 58.8453 30.5266C58.6204 30.6391 58.4431 30.7948 58.3133 30.9938C58.1865 31.1898 58.123 31.4162 58.123 31.6728C58.123 31.9236 58.185 32.1457 58.309 32.3389C58.433 32.5292 58.6074 32.6791 58.8323 32.7887C59.0572 32.8953 59.3167 32.9487 59.6109 32.9487ZM59.6109 28.9913C59.8588 28.9913 60.0794 28.9408 60.2726 28.8399C60.4658 28.739 60.6171 28.5991 60.7267 28.4203C60.8363 28.2416 60.8911 28.0354 60.8911 27.8019C60.8911 27.5712 60.8363 27.3694 60.7267 27.1964C60.6171 27.0205 60.4672 26.8835 60.2769 26.7855C60.0866 26.6846 59.8646 26.6341 59.6109 26.6341C59.36 26.6341 59.138 26.6846 58.9448 26.7855C58.7516 26.8835 58.6002 27.0205 58.4907 27.1964C58.384 27.3694 58.3306 27.5712 58.3306 27.8019C58.3306 28.0354 58.3854 28.2416 58.495 28.4203C58.6046 28.5991 58.7559 28.739 58.9491 28.8399C59.1423 28.9408 59.3629 28.9913 59.6109 28.9913Z" fill="#667085"/>
<path d="M68.7801 31.2802L68.2603 31.4273C68.2276 31.3407 68.1793 31.2565 68.1156 31.1748C68.0535 31.0914 67.9685 31.0227 67.8606 30.9688C67.7527 30.9148 67.6146 30.8879 67.4462 30.8879C67.2157 30.8879 67.0236 30.941 66.87 31.0473C66.718 31.1519 66.642 31.2851 66.642 31.4469C66.642 31.5908 66.6943 31.7044 66.7989 31.7878C66.9035 31.8711 67.067 31.9406 67.2893 31.9962L67.8483 32.1335C68.1851 32.2152 68.436 32.3403 68.6011 32.5086C68.7662 32.6754 68.8487 32.8903 68.8487 33.1535C68.8487 33.3693 68.7866 33.5622 68.6624 33.7322C68.5398 33.9022 68.3681 34.0362 68.1475 34.1343C67.9268 34.2324 67.6702 34.2814 67.3775 34.2814C66.9934 34.2814 66.6755 34.198 66.4237 34.0313C66.172 33.8646 66.0126 33.621 65.9456 33.3006L66.4948 33.1633C66.5471 33.366 66.646 33.518 66.7915 33.6194C66.9386 33.7207 67.1307 33.7714 67.3677 33.7714C67.6375 33.7714 67.8516 33.7142 68.0102 33.5998C68.1704 33.4837 68.2505 33.3448 68.2505 33.1829C68.2505 33.0522 68.2047 32.9426 68.1131 32.8544C68.0216 32.7645 67.881 32.6974 67.6914 32.6533L67.0637 32.5062C66.7188 32.4244 66.4654 32.2978 66.3036 32.1261C66.1434 31.9529 66.0633 31.7363 66.0633 31.4763C66.0633 31.2638 66.1229 31.0759 66.2423 30.9124C66.3632 30.7489 66.5275 30.6206 66.7351 30.5274C66.9444 30.4343 67.1814 30.3877 67.4462 30.3877C67.8189 30.3877 68.1115 30.4694 68.324 30.6329C68.5382 30.7963 68.6902 31.0121 68.7801 31.2802Z" fill="#667085"/>
<path d="M71.3577 30.4367V30.9271H69.4059V30.4367H71.3577ZM69.9748 29.5344H70.5535V33.1241C70.5535 33.2875 70.5772 33.4101 70.6246 33.4919C70.6736 33.572 70.7357 33.6259 70.8109 33.6537C70.8878 33.6799 70.9687 33.6929 71.0537 33.6929C71.1174 33.6929 71.1697 33.6897 71.2106 33.6831C71.2515 33.675 71.2842 33.6684 71.3087 33.6635L71.4264 34.1833C71.3871 34.198 71.3324 34.2128 71.2621 34.2275C71.1918 34.2438 71.1027 34.252 70.9948 34.252C70.8314 34.252 70.6712 34.2168 70.5142 34.1466C70.359 34.0763 70.2298 33.9692 70.1268 33.8253C70.0255 33.6815 69.9748 33.5 69.9748 33.281V29.5344Z" fill="#667085"/>
<path d="M73.3365 34.2912C73.0978 34.2912 72.8812 34.2463 72.6867 34.1564C72.4922 34.0648 72.3377 33.9332 72.2233 33.7616C72.1088 33.5883 72.0516 33.3791 72.0516 33.1339C72.0516 32.9181 72.0941 32.7432 72.1791 32.6092C72.2641 32.4735 72.3777 32.3672 72.52 32.2904C72.6622 32.2136 72.8191 32.1564 72.9907 32.1188C73.164 32.0795 73.3381 32.0485 73.513 32.0256C73.7419 31.9962 73.9274 31.9741 74.0696 31.9594C74.2135 31.943 74.3181 31.9161 74.3835 31.8785C74.4505 31.8409 74.484 31.7755 74.484 31.6823V31.6627C74.484 31.4208 74.4178 31.2328 74.2854 31.0987C74.1546 30.9647 73.956 30.8977 73.6896 30.8977C73.4133 30.8977 73.1967 30.9582 73.0398 31.0791C72.8829 31.2001 72.7725 31.3292 72.7088 31.4665L72.1595 31.2704C72.2576 31.0415 72.3884 30.8634 72.5518 30.7359C72.7169 30.6067 72.8968 30.5168 73.0913 30.4661C73.2874 30.4138 73.4803 30.3877 73.6699 30.3877C73.7909 30.3877 73.9298 30.4024 74.0868 30.4318C74.2453 30.4596 74.3982 30.5176 74.5453 30.6059C74.6941 30.6942 74.8175 30.8274 74.9156 31.0056C75.0136 31.1837 75.0627 31.4224 75.0627 31.7215V34.2029H74.484V33.6929H74.4546C74.4153 33.7747 74.35 33.8621 74.2584 33.9553C74.1669 34.0485 74.0451 34.1278 73.8931 34.1931C73.7411 34.2585 73.5555 34.2912 73.3365 34.2912ZM73.4247 33.7714C73.6536 33.7714 73.8465 33.7264 74.0034 33.6365C74.162 33.5466 74.2813 33.4306 74.3614 33.2884C74.4431 33.1461 74.484 32.9966 74.484 32.8396V32.31C74.4595 32.3394 74.4055 32.3664 74.3222 32.3909C74.2404 32.4138 74.1456 32.4343 74.0377 32.4522C73.9315 32.4686 73.8277 32.4833 73.7263 32.4964C73.6266 32.5078 73.5457 32.5176 73.4836 32.5258C73.3332 32.5454 73.1926 32.5773 73.0619 32.6214C72.9327 32.6639 72.8281 32.7285 72.748 32.8151C72.6695 32.9001 72.6303 33.0162 72.6303 33.1633C72.6303 33.3644 72.7047 33.5164 72.8534 33.6194C73.0038 33.7207 73.1943 33.7714 73.4247 33.7714Z" fill="#667085"/>
<path d="M76.1189 34.2029V30.4367H76.6779V31.0056H76.7171C76.7858 30.8192 76.91 30.668 77.0898 30.552C77.2697 30.4359 77.4723 30.3779 77.6979 30.3779C77.7404 30.3779 77.7936 30.3787 77.8573 30.3803C77.9211 30.3819 77.9693 30.3844 78.002 30.3877V30.9761C77.9824 30.9712 77.9374 30.9639 77.8671 30.9541C77.7985 30.9426 77.7257 30.9369 77.6489 30.9369C77.4658 30.9369 77.3024 30.9753 77.1585 31.0522C77.0163 31.1273 76.9035 31.232 76.8201 31.366C76.7384 31.4984 76.6975 31.6496 76.6975 31.8196V34.2029H76.1189Z" fill="#667085"/>
<path d="M81.3557 31.2802L80.8359 31.4273C80.8032 31.3407 80.7549 31.2565 80.6912 31.1748C80.6291 31.0914 80.5441 31.0227 80.4362 30.9688C80.3283 30.9148 80.1902 30.8879 80.0218 30.8879C79.7913 30.8879 79.5992 30.941 79.4456 31.0473C79.2936 31.1519 79.2175 31.2851 79.2175 31.4469C79.2175 31.5908 79.2699 31.7044 79.3745 31.7878C79.4791 31.8711 79.6426 31.9406 79.8649 31.9962L80.4239 32.1335C80.7607 32.2152 81.0116 32.3403 81.1767 32.5086C81.3418 32.6754 81.4243 32.8903 81.4243 33.1535C81.4243 33.3693 81.3622 33.5622 81.238 33.7322C81.1154 33.9022 80.9437 34.0362 80.7231 34.1343C80.5024 34.2324 80.2457 34.2814 79.9531 34.2814C79.569 34.2814 79.2511 34.198 78.9993 34.0313C78.7476 33.8646 78.5882 33.621 78.5212 33.3006L79.0704 33.1633C79.1227 33.366 79.2216 33.518 79.3671 33.6194C79.5142 33.7207 79.7063 33.7714 79.9433 33.7714C80.2131 33.7714 80.4272 33.7142 80.5858 33.5998C80.7459 33.4837 80.826 33.3448 80.826 33.1829C80.826 33.0522 80.7803 32.9426 80.6887 32.8544C80.5972 32.7645 80.4566 32.6974 80.267 32.6533L79.6393 32.5062C79.2944 32.4244 79.041 32.2978 78.8792 32.1261C78.719 31.9529 78.6389 31.7363 78.6389 31.4763C78.6389 31.2638 78.6985 31.0759 78.8179 30.9124C78.9388 30.7489 79.1031 30.6206 79.3107 30.5274C79.52 30.4343 79.757 30.3877 80.0218 30.3877C80.3945 30.3877 80.6871 30.4694 80.8996 30.6329C81.1137 30.7963 81.2658 31.0121 81.3557 31.2802Z" fill="#667085"/>
<path d="M83.1585 33.5164L83.1193 33.7812C83.0915 33.9676 83.049 34.167 82.9918 34.3795C82.9362 34.592 82.8782 34.7922 82.8177 34.9802C82.7572 35.1682 82.7073 35.3178 82.6681 35.4289H82.2267C82.248 35.3243 82.2758 35.1862 82.3101 35.0146C82.3444 34.8429 82.3788 34.6508 82.4131 34.4383C82.4491 34.2275 82.4785 34.0117 82.5014 33.791L82.5308 33.5164H83.1585Z" fill="#667085"/>
<path d="M87.9233 34.2716C87.5457 34.2716 87.2098 34.2103 86.9155 34.0877C86.6229 33.9635 86.3933 33.7943 86.2265 33.5801C86.0598 33.366 85.9764 33.1233 85.9764 32.8519C85.9764 32.6427 86.0238 32.4506 86.1186 32.2757C86.2151 32.0992 86.3459 31.9529 86.511 31.8368C86.6761 31.7191 86.8608 31.6439 87.0651 31.6112V31.5769C86.797 31.5229 86.5796 31.393 86.4129 31.187C86.2462 30.9794 86.1628 30.7383 86.1628 30.4637C86.1628 30.2038 86.2388 29.9725 86.3908 29.7698C86.5428 29.5654 86.7513 29.4052 87.0161 29.2892C87.2825 29.1715 87.5849 29.1126 87.9233 29.1126C88.2617 29.1126 88.5633 29.1715 88.8281 29.2892C89.0945 29.4069 89.3038 29.5679 89.4558 29.7722C89.6078 29.9749 89.6846 30.2054 89.6863 30.4637C89.6846 30.7399 89.5996 30.981 89.4313 31.187C89.2629 31.393 89.0471 31.5229 88.784 31.5769V31.6112C88.985 31.6439 89.1673 31.7191 89.3307 31.8368C89.4958 31.9529 89.6266 32.0992 89.7231 32.2757C89.8211 32.4506 89.871 32.6427 89.8726 32.8519C89.871 33.1233 89.7868 33.366 89.6201 33.5801C89.4533 33.7943 89.2229 33.9635 88.9286 34.0877C88.636 34.2103 88.3009 34.2716 87.9233 34.2716ZM87.9233 33.4919C88.0917 33.4919 88.2388 33.4616 88.3647 33.4012C88.4905 33.339 88.5886 33.254 88.6589 33.1461C88.7308 33.0366 88.7668 32.9108 88.7668 32.7685C88.7668 32.6231 88.73 32.4947 88.6564 32.3836C88.5829 32.2708 88.4832 32.1825 88.3573 32.1188C88.2314 32.0534 88.0868 32.0207 87.9233 32.0207C87.7615 32.0207 87.6168 32.0534 87.4893 32.1188C87.3618 32.1825 87.2613 32.2708 87.1877 32.3836C87.1158 32.4947 87.0798 32.6231 87.0798 32.7685C87.0798 32.9108 87.115 33.0366 87.1853 33.1461C87.2555 33.254 87.3544 33.339 87.4819 33.4012C87.6095 33.4616 87.7566 33.4919 87.9233 33.4919ZM87.9233 31.2483C88.0639 31.2483 88.1889 31.2197 88.2985 31.1625C88.408 31.1053 88.4938 31.026 88.5559 30.9247C88.618 30.8233 88.6491 30.7064 88.6491 30.574C88.6491 30.4432 88.618 30.3288 88.5559 30.2307C88.4938 30.131 88.4088 30.0534 88.3009 29.9978C88.193 29.9406 88.0672 29.912 87.9233 29.912C87.7811 29.912 87.6552 29.9406 87.5457 29.9978C87.4362 30.0534 87.3504 30.131 87.2882 30.2307C87.2278 30.3288 87.1975 30.4432 87.1975 30.574C87.1975 30.7064 87.2286 30.8233 87.2907 30.9247C87.3528 31.026 87.4386 31.1053 87.5481 31.1625C87.6577 31.2197 87.7827 31.2483 87.9233 31.2483Z" fill="#667085"/>
<path d="M92.4711 34.2716C92.1049 34.2716 91.7788 34.2087 91.4928 34.0828C91.2083 33.9553 90.9836 33.7804 90.8185 33.5581C90.655 33.3341 90.5708 33.0759 90.5659 32.7833H91.635C91.6415 32.9059 91.6816 33.0137 91.7551 33.1069C91.8303 33.1985 91.93 33.2696 92.0543 33.3202C92.1785 33.3709 92.3183 33.3962 92.4736 33.3962C92.6354 33.3962 92.7784 33.3676 92.9027 33.3104C93.0269 33.2532 93.1242 33.1739 93.1945 33.0726C93.2647 32.9712 93.2999 32.8544 93.2999 32.722C93.2999 32.5879 93.2623 32.4694 93.1871 32.3664C93.1135 32.2618 93.0073 32.1801 92.8683 32.1212C92.731 32.0624 92.5676 32.0329 92.3779 32.0329H91.9096V31.2532H92.3779C92.5381 31.2532 92.6795 31.2254 92.8021 31.1699C92.9264 31.1143 93.0228 31.0374 93.0915 30.9394C93.1601 30.8397 93.1945 30.7236 93.1945 30.5912C93.1945 30.4653 93.1642 30.355 93.1037 30.2602C93.0449 30.1637 92.9615 30.0885 92.8536 30.0346C92.7474 29.9806 92.6231 29.9537 92.4809 29.9537C92.3371 29.9537 92.2055 29.9798 92.0862 30.0321C91.9668 30.0828 91.8712 30.1555 91.7993 30.2504C91.7273 30.3452 91.6889 30.4563 91.684 30.5838H90.6665C90.6714 30.2945 90.7539 30.0395 90.9141 29.8188C91.0743 29.5981 91.2901 29.4257 91.5614 29.3014C91.8344 29.1756 92.1425 29.1126 92.4858 29.1126C92.8324 29.1126 93.1356 29.1756 93.3955 29.3014C93.6554 29.4273 93.8573 29.5973 94.0012 29.8115C94.1466 30.024 94.2186 30.2626 94.2169 30.5274C94.2186 30.8086 94.1311 31.0432 93.9546 31.2312C93.7796 31.4191 93.5516 31.5385 93.2705 31.5891V31.6284C93.6399 31.6758 93.9211 31.8041 94.1139 32.0133C94.3085 32.2209 94.4049 32.4808 94.4033 32.7931C94.4049 33.0791 94.3224 33.3333 94.1556 33.5556C93.9905 33.7779 93.7625 33.9529 93.4715 34.0804C93.1805 34.2079 92.8471 34.2716 92.4711 34.2716Z" fill="#667085"/>
<path d="M97.3512 29.1813V34.2029H96.2895V30.1891H96.26L95.1101 30.9099V29.9684L96.3532 29.1813H97.3512Z" fill="#667085"/>
<path d="M100.609 34.2029V30.4367H101.168V31.0056H101.208C101.276 30.8192 101.4 30.668 101.58 30.552C101.76 30.4359 101.963 30.3779 102.188 30.3779C102.231 30.3779 102.284 30.3787 102.348 30.3803C102.411 30.3819 102.46 30.3844 102.492 30.3877V30.9761C102.473 30.9712 102.428 30.9639 102.357 30.9541C102.289 30.9426 102.216 30.9369 102.139 30.9369C101.956 30.9369 101.793 30.9753 101.649 31.0522C101.507 31.1273 101.394 31.232 101.311 31.366C101.229 31.4984 101.188 31.6496 101.188 31.8196V34.2029H100.609Z" fill="#667085"/>
<path d="M104.643 34.2814C104.28 34.2814 103.967 34.2013 103.704 34.0411C103.442 33.8793 103.24 33.6537 103.098 33.3644C102.957 33.0734 102.887 32.735 102.887 32.3493C102.887 31.9635 102.957 31.6235 103.098 31.3292C103.24 31.0334 103.438 30.8029 103.691 30.6378C103.946 30.471 104.244 30.3877 104.584 30.3877C104.78 30.3877 104.974 30.4204 105.165 30.4857C105.356 30.5511 105.53 30.6574 105.687 30.8045C105.844 30.95 105.969 31.1429 106.062 31.3832C106.156 31.6235 106.202 31.9193 106.202 32.2708V32.516H103.299V32.0158H105.614C105.614 31.8033 105.571 31.6137 105.486 31.4469C105.403 31.2802 105.284 31.1486 105.128 31.0522C104.975 30.9557 104.793 30.9075 104.584 30.9075C104.353 30.9075 104.154 30.9647 103.986 31.0791C103.819 31.1919 103.691 31.339 103.601 31.5205C103.511 31.7019 103.466 31.8965 103.466 32.1041V32.4375C103.466 32.722 103.515 32.9631 103.613 33.1609C103.713 33.357 103.851 33.5066 104.027 33.6096C104.204 33.7109 104.409 33.7616 104.643 33.7616C104.795 33.7616 104.932 33.7403 105.055 33.6978C105.179 33.6537 105.286 33.5883 105.376 33.5017C105.466 33.4134 105.535 33.3039 105.584 33.1731L106.143 33.33C106.085 33.5197 105.986 33.6864 105.847 33.8302C105.708 33.9725 105.536 34.0836 105.332 34.1637C105.127 34.2422 104.898 34.2814 104.643 34.2814Z" fill="#667085"/>
<path d="M110.048 30.4367L108.655 34.2029H108.066L106.674 30.4367H107.301L108.341 33.4379H108.38L109.42 30.4367H110.048Z" fill="#667085"/>
<path d="M110.811 34.2029V30.4367H111.39V34.2029H110.811ZM111.106 29.809C110.993 29.809 110.896 29.7706 110.814 29.6938C110.734 29.6169 110.694 29.5246 110.694 29.4167C110.694 29.3088 110.734 29.2164 110.814 29.1396C110.896 29.0628 110.993 29.0244 111.106 29.0244C111.218 29.0244 111.315 29.0628 111.395 29.1396C111.477 29.2164 111.517 29.3088 111.517 29.4167C111.517 29.5246 111.477 29.6169 111.395 29.6938C111.315 29.7706 111.218 29.809 111.106 29.809Z" fill="#667085"/>
<path d="M114.029 34.2814C113.666 34.2814 113.353 34.2013 113.09 34.0411C112.828 33.8793 112.626 33.6537 112.484 33.3644C112.344 33.0734 112.273 32.735 112.273 32.3493C112.273 31.9635 112.344 31.6235 112.484 31.3292C112.626 31.0334 112.824 30.8029 113.078 30.6378C113.333 30.471 113.63 30.3877 113.97 30.3877C114.166 30.3877 114.36 30.4204 114.551 30.4857C114.742 30.5511 114.917 30.6574 115.073 30.8045C115.23 30.95 115.355 31.1429 115.449 31.3832C115.542 31.6235 115.588 31.9193 115.588 32.2708V32.516H112.685V32.0158H115C115 31.8033 114.957 31.6137 114.872 31.4469C114.789 31.2802 114.67 31.1486 114.514 31.0522C114.361 30.9557 114.179 30.9075 113.97 30.9075C113.74 30.9075 113.54 30.9647 113.372 31.0791C113.205 31.1919 113.077 31.339 112.987 31.5205C112.897 31.7019 112.852 31.8965 112.852 32.1041V32.4375C112.852 32.722 112.901 32.9631 112.999 33.1609C113.099 33.357 113.237 33.5066 113.413 33.6096C113.59 33.7109 113.795 33.7616 114.029 33.7616C114.181 33.7616 114.318 33.7403 114.441 33.6978C114.565 33.6537 114.672 33.5883 114.762 33.5017C114.852 33.4134 114.921 33.3039 114.97 33.1731L115.53 33.33C115.471 33.5197 115.372 33.6864 115.233 33.8302C115.094 33.9725 114.922 34.0836 114.718 34.1637C114.514 34.2422 114.284 34.2814 114.029 34.2814Z" fill="#667085"/>
<path d="M117.322 34.2029L116.174 30.4367H116.783L117.597 33.3202H117.636L118.44 30.4367H119.058L119.852 33.3104H119.892L120.706 30.4367H121.314L120.166 34.2029H119.597L118.774 31.3096H118.715L117.891 34.2029H117.322Z" fill="#667085"/>
<path d="M124.747 31.2802L124.227 31.4273C124.194 31.3407 124.146 31.2565 124.082 31.1748C124.02 31.0914 123.935 31.0227 123.827 30.9688C123.719 30.9148 123.581 30.8879 123.413 30.8879C123.182 30.8879 122.99 30.941 122.836 31.0473C122.684 31.1519 122.608 31.2851 122.608 31.4469C122.608 31.5908 122.661 31.7044 122.765 31.7878C122.87 31.8711 123.033 31.9406 123.256 31.9962L123.815 32.1335C124.152 32.2152 124.402 32.3403 124.568 32.5086C124.733 32.6754 124.815 32.8903 124.815 33.1535C124.815 33.3693 124.753 33.5622 124.629 33.7322C124.506 33.9022 124.335 34.0362 124.114 34.1343C123.893 34.2324 123.637 34.2814 123.344 34.2814C122.96 34.2814 122.642 34.198 122.39 34.0313C122.138 33.8646 121.979 33.621 121.912 33.3006L122.461 33.1633C122.514 33.366 122.612 33.518 122.758 33.6194C122.905 33.7207 123.097 33.7714 123.334 33.7714C123.604 33.7714 123.818 33.7142 123.977 33.5998C124.137 33.4837 124.217 33.3448 124.217 33.1829C124.217 33.0522 124.171 32.9426 124.08 32.8544C123.988 32.7645 123.847 32.6974 123.658 32.6533L123.03 32.5062C122.685 32.4244 122.432 32.2978 122.27 32.1261C122.11 31.9529 122.03 31.7363 122.03 31.4763C122.03 31.2638 122.089 31.0759 122.209 30.9124C122.33 30.7489 122.494 30.6206 122.702 30.5274C122.911 30.4343 123.148 30.3877 123.413 30.3877C123.785 30.3877 124.078 30.4694 124.29 30.6329C124.505 30.7963 124.657 31.0121 124.747 31.2802Z" fill="#667085"/>
</svg>
