<svg width="97" height="47" viewBox="0 0 97 47" fill="none" xmlns="http://www.w3.org/2000/svg">
<path d="M25.5511 8.83915H35.4187V10.7368H31.6235V20.9839H29.3464V10.7368H25.5511V8.83915ZM34.8494 12.0651H36.7471V13.773C36.7471 13.5832 36.9368 13.3934 37.1266 13.0139C37.3163 12.6344 37.5061 12.6344 37.6959 12.4446C37.8856 12.2549 38.2652 12.0651 38.4549 12.0651C38.6447 11.8753 39.0242 11.8753 39.4037 11.8753C39.5935 11.8753 39.7832 11.8753 39.7832 11.8753H39.973V13.773C39.7832 13.773 39.7832 13.773 39.5935 13.773C39.4037 13.773 39.4037 13.773 39.214 13.773C38.8344 13.773 38.6447 13.773 38.2652 13.9627C37.8856 14.1525 37.6959 14.3422 37.5061 14.532C37.3163 14.7218 37.1266 15.1013 36.9368 15.4808C36.7471 15.8603 36.7471 16.2399 36.7471 16.8091V20.9839H34.8494V12.0651ZM48.8918 20.9839H46.9942V19.8453C46.8044 20.2248 46.4249 20.6044 45.8556 20.9839C45.4761 21.1737 44.9068 21.3634 44.3375 21.3634C43.199 21.3634 42.4399 21.1737 41.8706 20.4146C41.3013 19.6556 41.1116 18.8965 41.1116 17.7579V12.2549H43.0092V17.5682C43.0092 18.3272 43.199 18.8965 43.3887 19.276C43.7682 19.6556 44.1478 19.8453 44.717 19.8453C45.0966 19.8453 45.4761 19.8453 45.6659 19.6556C45.8556 19.4658 46.2351 19.276 46.2351 19.0863C46.4249 18.8965 46.6147 18.7068 46.6147 18.3272C46.6147 17.9477 46.8044 17.7579 46.8044 17.3784V12.2549H48.702V20.9839H48.8918ZM52.1178 18.1375C52.1178 18.7068 52.3075 19.0863 52.687 19.276C53.0666 19.4658 53.4461 19.6556 54.0154 19.6556C54.2051 19.6556 54.3949 19.6556 54.5847 19.6556C54.7744 19.6556 54.9642 19.6556 55.1539 19.4658C55.3437 19.4658 55.5335 19.276 55.7232 19.0863C55.913 18.8965 55.913 18.7068 55.913 18.517C55.913 18.3272 55.7232 18.1375 55.7232 17.9477C55.5335 17.7579 55.3437 17.7579 55.1539 17.5682C54.9642 17.5682 54.5847 17.3784 54.2051 17.3784C53.8256 17.3784 53.4461 17.1887 53.2563 17.1887C52.8768 17.1887 52.4973 16.9989 52.3075 16.8091C52.1177 16.6194 51.7382 16.6194 51.3587 16.4296C51.1689 16.2399 50.7894 16.0501 50.7894 15.6706C50.5997 15.291 50.5997 14.9115 50.5997 14.532C50.5997 13.9627 50.7894 13.5832 50.9792 13.3934C51.1689 13.2037 51.5485 12.8241 51.928 12.6344C52.3075 12.4446 52.687 12.2549 53.0666 12.2549C53.4461 12.2549 54.0154 12.0651 54.3949 12.0651C54.7744 12.0651 55.3437 12.0651 55.7232 12.2549C56.1027 12.2549 56.4823 12.4446 56.8618 12.6344C57.2413 12.8241 57.4311 13.2037 57.6208 13.3934C57.8106 13.773 58.0004 14.1525 58.0004 14.7218H55.913C55.913 14.3422 55.5335 13.9627 55.3437 13.773C54.7744 13.5832 54.3949 13.3934 54.0154 13.3934C53.8256 13.3934 53.6358 13.3934 53.4461 13.3934C53.2563 13.3934 53.0666 13.3934 52.8768 13.5832C52.687 13.5832 52.4973 13.773 52.4973 13.773C52.3075 13.9627 52.3075 13.9627 52.3075 14.1525C52.3075 14.3422 52.3075 14.532 52.4973 14.7218C52.687 14.9115 52.8768 14.9115 53.0666 15.1013C53.2563 15.1013 53.6358 15.291 54.0154 15.291C54.3949 15.291 54.7744 15.4808 55.1539 15.4808C55.5335 15.4808 55.913 15.6706 56.1027 15.8603C56.4823 16.0501 56.672 16.0501 57.0516 16.2399C57.4311 16.4296 57.6208 16.6194 57.6208 16.9989C57.8106 17.3784 57.8106 17.5682 57.8106 18.1375C57.8106 18.7068 57.6208 19.0863 57.4311 19.4658C57.2413 19.8453 56.8618 20.0351 56.4823 20.4146C56.2925 20.7941 55.913 20.9839 55.5335 20.9839C55.1539 20.9839 54.5847 21.1737 54.2051 21.1737C53.6358 21.1737 53.0666 21.1737 52.687 20.9839C52.3075 20.7941 51.7382 20.6044 51.5485 20.4146C51.1689 20.2248 50.9792 19.8453 50.7894 19.4658C50.4099 19.0863 50.2201 18.7068 50.2201 18.1375H52.1178ZM58.5697 12.0651H60.0877V9.5982H61.9854V12.2549H63.6932V13.773H61.9854V18.517C61.9854 18.7068 61.9854 18.8965 61.9854 19.0863C61.9854 19.276 61.9854 19.276 62.1751 19.4658C62.3649 19.6556 62.3649 19.6556 62.3649 19.6556C62.5546 19.6556 62.7444 19.6556 62.9342 19.6556C63.1239 19.6556 63.1239 19.6556 63.3137 19.6556C63.5035 19.6556 63.5034 19.6556 63.6932 19.6556V20.9839C63.5034 20.9839 63.3137 20.9839 63.1239 20.9839C62.9342 20.9839 62.7444 20.9839 62.5546 20.9839C61.9854 20.9839 61.6058 20.9839 61.4161 20.7941C61.0366 20.7941 60.8468 20.6044 60.657 20.4146C60.4673 20.2248 60.2775 20.0351 60.2775 19.6556C60.2775 19.4658 60.0877 19.0863 60.0877 18.7068V13.5832H58.5697V12.0651ZM65.0215 12.0651H66.9192V13.3934C67.1089 12.8241 67.4884 12.4446 68.0577 12.2549C68.627 12.0651 69.0065 11.8753 69.5758 11.8753C70.3349 11.8753 70.9042 12.0651 71.4734 12.2549C72.0427 12.4446 72.4222 12.8241 72.8018 13.2037C73.1813 13.5832 73.3711 14.1525 73.5608 14.7218C73.7506 15.291 73.7506 15.8603 73.7506 16.6194C73.7506 17.1887 73.7506 17.7579 73.5608 18.3272C73.3711 18.8965 73.1813 19.276 72.8018 19.8453C72.4222 20.2248 72.0427 20.6044 71.6632 20.7941C71.0939 20.9839 70.7144 21.1737 69.9554 21.1737C69.7656 21.1737 69.3861 21.1737 69.1963 21.1737C69.0065 21.1737 68.627 20.9839 68.4372 20.9839C68.2475 20.7941 67.868 20.7941 67.6782 20.6044C67.4884 20.4146 67.2987 20.2248 67.1089 20.0351V24.3996H65.2113V12.0651H65.0215ZM71.853 16.6194C71.853 16.2399 71.853 15.8603 71.6632 15.4808C71.4734 15.1013 71.4734 14.7218 71.2837 14.532C71.0939 14.3422 70.9042 13.9627 70.5246 13.773C70.1451 13.5832 69.9553 13.5832 69.3861 13.5832C68.627 13.5832 67.868 13.773 67.4884 14.3422C67.1089 14.9115 66.9192 15.6706 66.9192 16.6194C66.9192 16.9989 66.9192 17.5682 67.1089 17.7579C67.2987 18.1375 67.2987 18.517 67.6782 18.7068C67.868 18.8965 68.0577 19.276 68.4372 19.276C68.8168 19.4658 69.0065 19.4658 69.3861 19.4658C69.7656 19.4658 70.1451 19.4658 70.5246 19.276C70.9042 19.0863 71.0939 18.8965 71.2837 18.517C71.4734 18.1375 71.6632 17.9477 71.6632 17.5682C71.6632 17.3784 71.853 16.9989 71.853 16.6194ZM75.2687 8.83915H77.1663V10.7368H75.2687V8.83915ZM75.2687 12.0651H77.1663V20.9839H75.2687V12.0651ZM78.8741 8.83915H80.7718V20.9839H78.8741V8.83915ZM86.6544 21.1737C85.8953 21.1737 85.326 20.9839 84.7568 20.7941C84.1875 20.6044 83.8079 20.2248 83.4284 19.8453C83.0489 19.4658 82.6694 18.8965 82.4796 18.3272C82.2899 17.7579 82.1001 17.1887 82.1001 16.4296C82.1001 15.6706 82.2899 15.1013 82.4796 14.532C82.6694 13.9627 83.0489 13.3934 83.4284 13.0139C83.8079 12.6344 84.1875 12.2549 84.7568 12.0651C85.326 11.8753 85.8953 11.6856 86.6544 11.6856C87.4134 11.6856 87.9827 11.8753 88.552 12.0651C89.1213 12.2549 89.5008 12.6344 89.8803 13.0139C90.2598 13.3934 90.6394 13.9627 90.8291 14.532C91.0189 15.1013 91.2086 15.6706 91.2086 16.4296C91.2086 17.1887 91.0189 17.7579 90.8291 18.3272C90.6394 18.8965 90.2598 19.4658 89.8803 19.8453C89.5008 20.2248 89.1213 20.6044 88.552 20.7941C87.9827 20.9839 87.4134 21.1737 86.6544 21.1737ZM86.6544 19.6556C87.0339 19.6556 87.4134 19.6556 87.7929 19.4658C88.1725 19.276 88.3622 19.0863 88.552 18.7068C88.7417 18.3272 88.9315 18.1375 88.9315 17.7579C88.9315 17.3784 89.1213 16.9989 89.1213 16.6194C89.1213 16.2399 89.1213 15.8603 88.9315 15.4808C88.9315 15.1013 88.7417 14.7218 88.552 14.532C88.3622 14.3422 88.1725 13.9627 87.7929 13.773C87.4134 13.5832 87.0339 13.5832 86.6544 13.5832C86.2748 13.5832 85.8953 13.5832 85.5158 13.773C85.1363 13.9627 84.9465 14.1525 84.7568 14.532C84.567 14.9115 84.3772 15.1013 84.3772 15.4808C84.3772 15.8603 84.1875 16.2399 84.1875 16.6194C84.1875 16.9989 84.1875 17.3784 84.3772 17.7579C84.3772 18.1375 84.567 18.517 84.7568 18.7068C84.9465 19.0863 85.1363 19.276 85.5158 19.4658C85.8953 19.4658 86.2748 19.6556 86.6544 19.6556ZM91.7779 12.0651H93.296V9.5982H95.1936V12.2549H96.9015V13.773H95.1936V18.517C95.1936 18.7068 95.1936 18.8965 95.1936 19.0863C95.1936 19.276 95.1936 19.276 95.3834 19.4658C95.5732 19.6556 95.5732 19.6556 95.5732 19.6556C95.7629 19.6556 95.9527 19.6556 96.1425 19.6556C96.3322 19.6556 96.3322 19.6556 96.522 19.6556C96.7117 19.6556 96.7117 19.6556 96.9015 19.6556V20.9839C96.7117 20.9839 96.522 20.9839 96.3322 20.9839C96.1425 20.9839 95.9527 20.9839 95.7629 20.9839C95.1936 20.9839 94.8141 20.9839 94.6244 20.7941C94.2448 20.7941 94.0551 20.6044 93.8653 20.4146C93.6756 20.2248 93.4858 20.0351 93.4858 19.6556C93.4858 19.4658 93.296 19.0863 93.296 18.7068V13.5832H91.7779V12.0651Z" fill="#191919"/>
<path d="M23.2742 8.83978H14.3554L11.6988 0.300507L8.85233 8.83978H0.123291L7.14447 13.9633L4.48781 22.5026L11.6988 17.1893L18.7199 22.5026L16.0633 13.9633L23.2742 8.83978Z" fill="#00B67A"/>
<path d="M16.6325 15.8609L16.0633 13.9633L11.6988 17.1893L16.6325 15.8609Z" fill="#005128"/>
<path d="M18.3404 27.8155H0.123291V46.0326H18.3404V27.8155Z" fill="#00B67A"/>
<path d="M37.8857 27.8155H19.6686V46.0326H37.8857V27.8155Z" fill="#00B67A"/>
<path d="M57.6211 27.8155H39.404V46.0326H57.6211V27.8155Z" fill="#00B67A"/>
<path d="M77.1662 27.8155H58.9491V46.0326H77.1662V27.8155Z" fill="#00B67A"/>
<path d="M96.9016 27.8155H78.6845V46.0326H96.9016V27.8155Z" fill="#DCDCE6"/>
<path d="M78.6845 27.8155H87.793V45.8428H78.6845V27.8155Z" fill="#00B67A"/>
<path d="M9.04199 39.9603L11.8884 39.2012L13.027 42.8067L9.04199 39.9603ZM15.4939 35.406H10.5601L9.04199 30.8517L7.5239 35.406H2.77986L6.76485 38.2524L5.24676 42.8067L9.23175 39.9603L11.6987 38.2524L15.4939 35.406Z" fill="white"/>
<path d="M28.7775 39.9603L31.6239 39.2012L32.7625 42.8067L28.7775 39.9603ZM35.0396 35.406H30.1058L28.5878 30.8517L27.0697 35.406H22.1359L26.1209 38.2524L24.6028 42.8067L28.5878 39.9603L31.0547 38.2524L35.0396 35.406Z" fill="white"/>
<path d="M48.5122 39.9603L51.3586 39.2012L52.4972 42.8067L48.5122 39.9603ZM54.7743 35.406H49.8405L48.3224 30.8517L46.8043 35.406H41.8705L45.8555 38.2524L44.5272 42.8067L48.5122 39.9603L50.9791 38.2524L54.7743 35.406Z" fill="white"/>
<path d="M68.0578 39.9603L70.9042 39.2012L72.0428 42.8067L68.0578 39.9603ZM74.5097 35.406H69.5759L68.0578 30.8517L66.5397 35.406H61.6059L65.5909 38.2524L64.0728 42.8067L68.0578 39.9603L70.5247 38.2524L74.5097 35.406Z" fill="white"/>
<path d="M87.792 39.9603L90.6384 39.2012L91.777 42.8067L87.792 39.9603ZM94.0541 35.406H89.1203L87.6022 30.8517L86.2739 35.406H81.3401L85.3251 38.2524L83.807 42.8067L87.792 39.9603L90.2589 38.2524L94.0541 35.406Z" fill="white"/>
</svg>
