<svg width="132" height="47" viewBox="0 0 132 47" fill="none" xmlns="http://www.w3.org/2000/svg">
<path fill-rule="evenodd" clip-rule="evenodd" d="M78.7029 0.360352H2.84974C2.15941 0.360352 1.55275 0.632302 1.09253 1.09253C0.653221 1.53183 0.360352 2.15941 0.360352 2.84974V43.0984C0.360352 43.7887 0.632302 44.3954 1.09253 44.8556C1.53183 45.2949 2.15941 45.5878 2.84974 45.5878H78.7029C79.3933 45.5878 79.9999 45.3158 80.4602 44.8556C80.8995 44.4163 81.1923 43.7887 81.1923 43.0984V2.84974C81.1923 2.15941 80.9204 1.55275 80.4602 1.09253C80.0209 0.632302 79.3933 0.360352 78.7029 0.360352Z" fill="#FFFDFC"/>
<path d="M80.832 2.84961C80.832 2.25951 80.601 1.74362 80.2051 1.34766L80.1992 1.3418C79.83 0.955254 79.2978 0.720749 78.7031 0.720703H2.84961C2.2595 0.720738 1.74363 0.951687 1.34766 1.34766C0.970993 1.72432 0.72074 2.26165 0.720703 2.84961V43.0986C0.720768 43.6887 0.951713 44.2046 1.34766 44.6006C1.72432 44.9772 2.26168 45.2275 2.84961 45.2275H78.7031C79.2932 45.2275 79.8091 44.9965 80.2051 44.6006C80.5817 44.2239 80.832 43.6865 80.832 43.0986V2.84961ZM81.5527 43.0986C81.5527 43.8912 81.2167 44.6085 80.7148 45.1104C80.1904 45.6347 79.4935 45.9482 78.7031 45.9482H2.84961C2.05703 45.9482 1.33978 45.6122 0.837891 45.1104C0.313498 44.586 6.6012e-05 43.889 0 43.0986V2.84961C3.72263e-05 2.057 0.336001 1.33978 0.837891 0.837891C1.36231 0.313472 2.05916 3.52451e-05 2.84961 0H78.7031C79.4888 4.65027e-05 80.2114 0.310196 80.7207 0.84375C81.2419 1.36755 81.5527 2.06187 81.5527 2.84961V43.0986Z" fill="#004F87"/>
<path fill-rule="evenodd" clip-rule="evenodd" d="M61.8935 0.00461757H126.486C129.007 0.00461757 131.025 1.28806 131.025 2.84503V43.3261C131.025 44.9041 128.974 46.1666 126.486 46.1666H61.8935V0.00461757Z" fill="#004F87"/>
<path d="M92.2002 23.3296L91.1543 20.6728H85.9454L84.9622 23.3296H81.4478L87.075 9.83668H90.2338L95.8193 23.3296H92.2002ZM88.6021 13.4139L86.8868 18.0579H90.2548L88.6021 13.4139ZM103.12 18.7483V22.7439H100.652V18.7483H96.6142V16.3426H100.631V12.347H103.099V16.3426H107.137V18.7483H103.12ZM82.7029 35.3372V27.8272H84.8994C85.2551 27.8272 85.6107 27.8691 85.9245 27.9318C86.2383 27.9946 86.5102 28.1201 86.7403 28.2665C86.9704 28.4339 87.1378 28.6222 87.2633 28.8941C87.3888 29.1451 87.4516 29.4589 87.4516 29.8355C87.4516 30.1074 87.4097 30.3585 87.3051 30.5886C87.2005 30.8187 87.075 31.007 86.9077 31.1743C86.7403 31.3417 86.5311 31.4672 86.301 31.5718C86.0709 31.6764 85.8199 31.7391 85.5479 31.7601L87.7235 35.3372H86.8031L84.7321 31.8228H83.4769V35.3372H82.7029ZM83.456 31.1743H84.7739C85.3806 31.1743 85.8617 31.0697 86.1964 30.8396C86.5311 30.6095 86.6985 30.2748 86.6985 29.8355C86.6985 29.5845 86.6567 29.3753 86.5521 29.2079C86.4684 29.0406 86.3429 28.8941 86.1755 28.7895C86.0082 28.6849 85.8199 28.6012 85.5898 28.5594C85.3597 28.5176 85.1086 28.4757 84.8158 28.4757H83.456V31.1743ZM91.9701 32.1366C91.9701 31.6973 91.8655 31.3835 91.6354 31.1743C91.4053 30.9651 91.0915 30.8605 90.6522 30.8605C90.3594 30.8605 90.0874 30.9233 89.8364 31.0279C89.5854 31.1325 89.3762 31.2789 89.1879 31.4463L88.7904 30.9651C88.9996 30.7559 89.2716 30.5886 89.6063 30.4631C89.941 30.3375 90.3175 30.2539 90.7359 30.2539C91.0079 30.2539 91.2589 30.2957 91.489 30.3585C91.7191 30.4212 91.9283 30.5467 92.0956 30.6932C92.263 30.8396 92.4094 31.0279 92.514 31.258C92.6186 31.4881 92.6605 31.7391 92.6605 32.0529V34.2285C92.6605 34.4168 92.6605 34.626 92.6814 34.8143C92.7023 35.0235 92.7232 35.1908 92.7441 35.3372H92.0956C92.0747 35.2117 92.0538 35.0862 92.0329 34.9398C92.012 34.7933 92.012 34.6678 92.012 34.5214H91.9911C91.7609 34.8561 91.5099 35.0862 91.217 35.2327C90.9242 35.3791 90.5895 35.4418 90.192 35.4418C90.0037 35.4418 89.8155 35.4209 89.6063 35.3582C89.3971 35.2954 89.2297 35.2117 89.0624 35.1071C88.895 34.9816 88.7695 34.8352 88.644 34.6469C88.5394 34.4586 88.4766 34.2285 88.4766 33.9566C88.4766 33.58 88.5812 33.2662 88.7695 33.057C88.9578 32.8269 89.2297 32.6596 89.5435 32.555C89.8573 32.4504 90.2338 32.3667 90.6522 32.3458C91.0706 32.304 91.5099 32.304 91.9492 32.304V32.1366H91.9701ZM91.7609 32.8479C91.4681 32.8479 91.1752 32.8688 90.8614 32.8897C90.5686 32.9106 90.2966 32.9734 90.0456 33.0361C89.7945 33.1198 89.6063 33.2244 89.4598 33.3499C89.3134 33.4754 89.2297 33.6846 89.2297 33.9147C89.2297 34.0821 89.2716 34.2494 89.3343 34.354C89.3971 34.4586 89.4807 34.5632 89.6063 34.6469C89.7318 34.7306 89.8364 34.7724 89.9828 34.8143C90.1292 34.8561 90.2548 34.8561 90.4012 34.8561C90.6522 34.8561 90.8823 34.8143 91.0706 34.7306C91.2589 34.6469 91.4262 34.5214 91.5727 34.375C91.6982 34.2285 91.8028 34.0403 91.8865 33.852C91.9701 33.6637 91.9911 33.4545 91.9911 33.2244V32.8479H91.7609ZM96.5933 30.9651H95.1917V33.852C95.1917 34.0403 95.2126 34.1867 95.2545 34.3122C95.2963 34.4377 95.3381 34.5214 95.4009 34.5842C95.4637 34.6469 95.5473 34.6888 95.631 34.7306C95.7147 34.7515 95.8193 34.7724 95.9239 34.7724C96.0285 34.7724 96.1331 34.7515 96.2377 34.7306C96.3423 34.7097 96.4469 34.6678 96.5515 34.6051L96.5933 35.2327C96.4678 35.2745 96.3423 35.3163 96.1958 35.3372C96.0494 35.3582 95.903 35.3791 95.7565 35.3791C95.631 35.3791 95.4846 35.3582 95.3381 35.3163C95.1917 35.2745 95.0453 35.2117 94.9198 35.1071C94.7942 35.0025 94.6896 34.877 94.606 34.7097C94.5223 34.5423 94.4804 34.3122 94.4804 34.0403V30.9442H93.4554V30.3375H94.4804V28.936H95.1917V30.3375H96.5933V30.9651ZM98.4551 35.3372H97.7439V30.3794H98.4551V35.3372ZM98.6015 28.4548C98.6015 28.6012 98.5388 28.7268 98.4342 28.8104C98.3296 28.915 98.2041 28.9569 98.0786 28.9569C97.953 28.9569 97.8275 28.915 97.7229 28.8104C97.6183 28.7058 97.5556 28.6012 97.5556 28.4548C97.5556 28.3084 97.6183 28.1829 97.7229 28.0992C97.8275 27.9946 97.953 27.9528 98.0786 27.9528C98.2041 27.9528 98.3296 27.9946 98.4342 28.0992C98.5388 28.1829 98.6015 28.3084 98.6015 28.4548ZM100.986 30.3794C101.007 30.5049 101.007 30.6723 101.028 30.8187C101.028 30.986 101.049 31.1116 101.049 31.2162H101.07C101.216 30.9233 101.447 30.6932 101.76 30.5049C102.074 30.3166 102.409 30.233 102.764 30.233C103.392 30.233 103.852 30.4212 104.166 30.7978C104.48 31.1743 104.626 31.6764 104.626 32.283V35.3163H103.915V32.5759C103.915 32.3249 103.894 32.0738 103.852 31.8647C103.81 31.6555 103.748 31.4672 103.643 31.3207C103.538 31.1743 103.413 31.0488 103.225 30.9651C103.057 30.8814 102.827 30.8396 102.576 30.8396C102.388 30.8396 102.2 30.8814 102.032 30.9651C101.844 31.0488 101.698 31.1534 101.551 31.3207C101.405 31.4881 101.3 31.6764 101.216 31.9274C101.133 32.1784 101.091 32.4504 101.091 32.7851V35.3372H100.38V31.4672C100.38 31.3417 100.38 31.1534 100.359 30.9442C100.359 30.735 100.338 30.5467 100.317 30.3794H100.986ZM106.739 36.3205C106.927 36.5715 107.199 36.7807 107.555 36.9689C107.89 37.1363 108.266 37.2409 108.643 37.2409C108.998 37.2409 109.291 37.1991 109.542 37.0945C109.793 36.9899 109.982 36.8434 110.128 36.6761C110.274 36.5087 110.4 36.2995 110.463 36.0485C110.526 35.8184 110.567 35.5674 110.567 35.2954V34.354H110.526C110.337 34.6678 110.065 34.8979 109.71 35.0653C109.354 35.2327 108.998 35.3163 108.643 35.3163C108.266 35.3163 107.911 35.2536 107.597 35.1281C107.283 35.0025 107.011 34.8352 106.802 34.6051C106.572 34.375 106.404 34.1239 106.279 33.8101C106.153 33.4964 106.091 33.1616 106.091 32.806C106.091 32.4504 106.153 32.1157 106.279 31.8019C106.404 31.4881 106.572 31.2162 106.802 30.986C107.032 30.7559 107.283 30.5677 107.597 30.4421C107.911 30.3166 108.266 30.233 108.643 30.233C108.998 30.233 109.354 30.3166 109.689 30.484C110.023 30.6513 110.295 30.9024 110.505 31.2162H110.526V30.3585H111.237V35.2745C111.237 35.5464 111.195 35.8393 111.132 36.1322C111.048 36.446 110.923 36.7179 110.714 36.9689C110.505 37.22 110.233 37.4292 109.898 37.5965C109.563 37.7639 109.103 37.8476 108.559 37.8476C108.099 37.8476 107.66 37.7639 107.262 37.5756C106.844 37.4083 106.488 37.1572 106.195 36.8434L106.739 36.3205ZM106.886 32.7851C106.886 33.0361 106.927 33.2872 107.011 33.5173C107.095 33.7474 107.22 33.9566 107.367 34.1239C107.534 34.2913 107.722 34.4377 107.952 34.5423C108.183 34.6469 108.455 34.6888 108.747 34.6888C109.019 34.6888 109.27 34.6469 109.5 34.5423C109.731 34.4586 109.94 34.3122 110.107 34.1448C110.274 33.9775 110.4 33.7683 110.505 33.5382C110.609 33.3081 110.651 33.0361 110.651 32.7433C110.651 32.4922 110.609 32.2412 110.505 32.0111C110.4 31.781 110.274 31.5718 110.107 31.4044C109.94 31.2371 109.731 31.0906 109.5 30.986C109.27 30.8814 109.019 30.8187 108.747 30.8187C108.455 30.8187 108.183 30.8814 107.952 30.986C107.722 31.0906 107.534 31.2371 107.367 31.4044C107.199 31.5718 107.095 31.781 107.011 32.0111C106.927 32.283 106.886 32.5341 106.886 32.7851Z" fill="white"/>
<path d="M43.5763 39.7094C43.7437 39.7094 43.911 39.7721 44.0156 39.8977C44.1411 40.0232 44.2039 40.1696 44.2039 40.337C44.2039 40.5043 44.1411 40.6717 44.0156 40.7972C43.8901 40.9227 43.7437 40.9855 43.5763 40.9855C43.409 40.9855 43.2416 40.9227 43.137 40.7972C43.0115 40.6717 42.9487 40.5252 42.9487 40.337C42.9487 40.1696 43.0115 40.0232 43.137 39.8977C43.2625 39.7721 43.409 39.7094 43.5763 39.7094ZM43.5763 39.7931C43.4299 39.7931 43.3044 39.8558 43.1998 39.9604C43.0952 40.065 43.0324 40.1905 43.0324 40.337C43.0324 40.4834 43.0952 40.6089 43.1998 40.7344C43.3044 40.839 43.4299 40.9018 43.5763 40.9018C43.7228 40.9018 43.8483 40.839 43.9529 40.7344C44.0575 40.6298 44.1202 40.5043 44.1202 40.337C44.1202 40.1905 44.0575 40.065 43.9529 39.9604C43.8692 39.8558 43.7228 39.7931 43.5763 39.7931ZM24.1214 32.6387C25.0628 32.6387 25.8368 32.8688 26.297 33.3499C26.6945 33.7474 26.8409 34.2076 26.8409 34.7515C26.8409 35.6929 26.3807 36.2368 25.7531 36.5506C26.6945 36.948 27.3011 37.4919 27.3011 38.5797C27.3011 40.0023 26.1506 40.7972 24.3934 40.839H20.3141V32.6178H24.1214V32.6387ZM31.8825 32.6387C32.8238 32.6387 33.5978 32.8688 34.0581 33.3499C34.4555 33.7474 34.602 34.2076 34.602 34.7515C34.602 35.6929 34.1417 36.2368 33.5142 36.5506C34.4555 36.948 35.0622 37.4919 35.0622 38.5797C35.0622 40.0023 33.9116 40.7972 32.1544 40.839H28.0752V32.6178H31.8825V32.6387ZM39.6644 32.6387C40.6058 32.6387 41.3798 32.8688 41.84 33.3499C42.2375 33.7474 42.3839 34.2076 42.3839 34.7515C42.3839 35.6929 41.9237 36.2368 41.2961 36.5506C42.2375 36.948 42.8441 37.4919 42.8441 38.5797C42.8441 40.0023 41.6936 40.7972 39.9364 40.839H35.8571V32.6178H39.6644V32.6387ZM43.5763 40.0023C43.66 40.0023 43.7228 40.0023 43.7646 40.0232C43.8274 40.0441 43.8692 40.1069 43.8692 40.1905C43.8692 40.2533 43.8483 40.2951 43.8064 40.337C43.7855 40.3579 43.7437 40.3579 43.7018 40.3788C43.7646 40.3788 43.7855 40.4206 43.8274 40.4416C43.8483 40.4834 43.8692 40.5043 43.8692 40.5462V40.588C43.8692 40.6089 43.8692 40.6298 43.8692 40.6298C43.8692 40.6507 43.8692 40.6507 43.8692 40.6717H43.7646V40.588C43.7646 40.5043 43.7437 40.4625 43.7018 40.4206C43.6809 40.3997 43.6391 40.3997 43.5554 40.3997H43.4508V40.6717H43.3253V39.9813H43.5763V40.0023ZM24.2051 37.4919H22.0295V39.291H24.2051C24.9791 39.291 25.523 38.9772 25.523 38.4333C25.523 37.8894 25.1255 37.4919 24.2051 37.4919ZM31.9661 37.4919H29.7905V39.291H31.9661C32.7402 39.291 33.2841 38.9772 33.2841 38.4333C33.2841 37.8894 32.9075 37.4919 31.9661 37.4919ZM39.6644 37.4919H37.5725V39.291H39.7272C40.5012 39.291 40.9614 38.9772 40.9614 38.4333C40.9823 37.8894 40.5849 37.4919 39.6644 37.4919ZM23.8913 34.2913H22.0295V36.0067H23.7449C24.5189 36.0067 25.0628 35.7766 25.0628 35.149C25.0628 34.6051 24.6653 34.2913 23.8913 34.2913ZM31.6524 34.2913H29.7905V36.0067H31.5059C32.2799 36.0067 32.8238 35.7766 32.8238 35.149C32.8238 34.6051 32.4264 34.2913 31.6524 34.2913ZM39.4134 34.2913H37.6353V36.0067H39.267C40.041 36.0067 40.5849 35.7766 40.5849 35.149C40.5849 34.6051 40.1874 34.2913 39.4134 34.2913ZM38.4929 27.2415L39.0159 28.8941H35.3132L34.6229 31.2371H28.4935L27.8032 28.8941H24.1005L24.6235 27.2415H38.4929ZM28.5981 15.2548L29.0793 15.6522C29.0793 15.6522 28.5981 16.3217 29.2466 16.9492L29.3512 17.0329L32.4891 19.3131C33.0958 19.7943 33.5142 20.4428 33.7234 21.154C33.7861 21.3632 33.9953 22.3882 33.6188 23.3714C33.556 23.5179 33.4723 23.6643 33.4096 23.8107L33.2841 24.0199L31.5059 26.4466L31.0039 26.0282C31.0248 26.0073 31.0457 25.9864 31.0457 25.9654C31.0666 25.9236 31.0875 25.9027 31.1085 25.8608C31.213 25.6726 31.213 25.4843 31.1712 25.3588C31.1712 25.3169 31.1503 25.296 31.1503 25.2542V25.2333C31.1503 25.2123 31.1294 25.1914 31.1085 25.1705L31.0666 25.0868L31.0248 25.0241C30.962 24.9613 30.8993 24.8986 30.8365 24.8358L30.7947 24.794L27.5522 22.4719C26.8618 21.928 26.3807 21.1331 26.2343 20.2754C26.2133 20.108 26.2133 19.9198 26.2133 19.7524C26.2133 19.0621 26.3598 18.4345 26.7154 17.8697L26.8409 17.6814L28.117 15.966L28.5981 15.2548ZM31.5059 4.25125L31.9034 4.56504C31.6733 4.87883 31.5896 5.2763 31.6733 5.65284C31.736 5.98755 31.9243 6.28042 32.1753 6.48961L32.2799 6.57329L37.3215 10.2551C38.4093 11.0291 39.0368 12.1378 39.267 13.393C39.4762 14.5644 39.2251 15.7987 38.5557 16.8028L38.4093 16.9911L35.0622 21.6142L34.602 21.2795C34.602 21.2795 34.8321 20.9657 34.9576 20.5264L34.9994 20.4009L35.0413 20.2336C35.0831 20.0244 35.0831 19.8152 35.0831 19.606L35.0622 19.4595V19.4177C35.0413 19.2504 34.9994 19.1039 34.9367 18.9366C34.9367 18.9156 34.9367 18.9156 34.9158 18.8947C34.7693 18.5182 34.4974 18.1626 34.1836 17.8906L34.0371 17.786L29.8533 14.7318C28.7655 13.9578 28.1379 12.8491 27.9078 11.5939C27.8241 11.3638 27.8241 11.05 27.8241 10.8199C27.8241 9.87853 28.0752 9.02084 28.5981 8.22591L28.7446 8.01672L31.5059 4.25125Z" fill="#004F87"/>
</svg>
