<svg width="20" height="24" viewBox="0 0 20 24" fill="none" xmlns="http://www.w3.org/2000/svg">
  <path d="M18.5 18.5C17.7 20 16.8 21.3 15.7 22.5C14.3 24 13.1 24.9 12.1 24.9C11.4 24.9 10.5 24.7 9.5 24.2C8.5 23.7 7.5 23.5 6.6 23.5C5.6 23.5 4.6 23.7 3.5 24.2C2.4 24.7 1.6 24.9 1 24.9C0.1 24.9 -0.9 24 -2.2 22.4C-3.4 21 -4.4 19.5 -5.2 17.8C-6.1 16 -6.5 14.2 -6.5 12.5C-6.5 10.5 -6 8.8 -5 7.3C-4 5.8 -2.5 4.9 -0.5 4.9C0.3 4.9 1.3 5.1 2.6 5.6C3.8 6.1 4.6 6.3 5 6.3C5.3 6.3 6.2 6.1 7.7 5.6C9.1 5.1 10.3 4.9 11.2 5C14 5.2 16.1 6.3 17.5 8.4C15.1 9.9 14 11.9 14 14.4C14 16.5 14.8 18.2 16.4 19.5C17.1 20.1 17.9 20.5 18.8 20.8C18.7 21.1 18.6 21.3 18.5 21.6V18.5ZM11.4 0.5C11.4 2.1 10.8 3.6 9.7 4.9C8.4 6.4 6.7 7.3 5 7.1C4.9 6.9 4.9 6.7 4.9 6.5C4.9 4.9 5.6 3.3 6.7 2.1C7.3 1.5 8 0.9 8.8 0.5C9.6 0.1 10.3 -0.1 11 0C11.1 0.2 11.1 0.4 11.1 0.5H11.4Z" fill="white"/>
</svg>
