<svg width="52" height="52" viewBox="0 0 52 52" fill="none" xmlns="http://www.w3.org/2000/svg">
<path d="M48.752 26.5051C48.752 24.6345 48.5971 23.2695 48.2619 21.854H26.4663V30.2967H39.2598C39.002 32.3948 37.6092 35.5545 34.5139 37.6778L34.4705 37.9604L41.3618 43.1923L41.8393 43.239C46.2241 39.2703 48.752 33.4311 48.752 26.5051Z" fill="#4285F4"/>
<path d="M26.4651 48.7498C32.7329 48.7498 37.9947 46.7274 41.8381 43.2392L34.5127 37.6779C32.5524 39.0176 29.9214 39.9529 26.4651 39.9529C20.3263 39.9529 15.116 35.9844 13.2587 30.499L12.9865 30.5217L5.82076 35.9565L5.72705 36.2118C9.54446 43.6435 17.3857 48.7498 26.4651 48.7498Z" fill="#34A853"/>
<path d="M13.2598 30.4992C12.7697 29.0837 12.4861 27.5669 12.4861 25.9997C12.4861 24.4324 12.7697 22.9158 13.234 21.5003L13.221 21.1988L5.96547 15.6768L5.72808 15.7874C4.15474 18.8713 3.25195 22.3345 3.25195 25.9997C3.25195 29.665 4.15474 33.1279 5.72808 36.2119L13.2598 30.4992Z" fill="#FBBC05"/>
<path d="M26.4652 12.0466C30.8243 12.0466 33.7647 13.8919 35.4414 15.4339L41.993 9.165C37.9693 5.49973 32.733 3.25 26.4652 3.25C17.3858 3.25 9.54448 8.35607 5.72705 15.7877L13.233 21.5005C15.1161 16.0153 20.3264 12.0466 26.4652 12.0466Z" fill="#EB4335"/>
</svg>
