<svg width="22" height="22" viewBox="0 0 22 22" fill="none" xmlns="http://www.w3.org/2000/svg">
<g filter="url(#filter0_d_0_519)">
<path d="M2.02299 7.55811C2.02299 5.35509 2.02299 4.25359 2.45172 3.41214C2.82885 2.67199 3.43061 2.07023 4.17077 1.6931C5.01221 1.26437 6.11371 1.26437 8.31673 1.26437H13.4304C15.6334 1.26437 16.7349 1.26437 17.5764 1.6931C18.3165 2.07023 18.9183 2.67199 19.2954 3.41214C19.7241 4.25359 19.7241 5.35509 19.7241 7.55811V12.6718C19.7241 14.8748 19.7241 15.9763 19.2954 16.8177C18.9183 17.5579 18.3165 18.1597 17.5764 18.5368C16.7349 18.9655 15.6334 18.9655 13.4304 18.9655H8.31673C6.11371 18.9655 5.01221 18.9655 4.17077 18.5368C3.43061 18.1597 2.82885 17.5579 2.45172 16.8177C2.02299 15.9763 2.02299 14.8748 2.02299 12.6718V7.55811Z" fill="white"/>
<path fill-rule="evenodd" clip-rule="evenodd" d="M15.931 8.09928L15.931 8.12615C15.9309 8.13747 15.9308 8.14879 15.9307 8.16011C15.9309 8.17332 15.931 8.18663 15.931 8.20007C15.931 10.3092 14.2878 12.1761 13.1882 13.4255C12.8692 13.788 12.5959 14.0985 12.4218 14.3478C11.8025 15.2347 11.4756 16.1955 11.3896 16.5651C11.3896 16.8434 11.1586 17.069 10.8736 17.069C10.5885 17.069 10.3575 16.8434 10.3575 16.5651C10.2715 16.1955 9.94464 15.2347 9.32536 14.3478C9.15126 14.0985 8.87797 13.788 8.5589 13.4255C7.45931 12.1761 5.81609 10.3092 5.81609 8.20007C5.81609 8.18663 5.81622 8.17332 5.81647 8.16011C5.81622 8.13986 5.81609 8.11958 5.81609 8.09928C5.81609 5.37189 8.08039 3.16092 10.8736 3.16092C13.6667 3.16092 15.931 5.37189 15.931 8.09928ZM10.8736 9.91338C11.9566 9.91338 12.8346 9.05606 12.8346 7.9985C12.8346 6.94094 11.9566 6.08362 10.8736 6.08362C9.7905 6.08362 8.9125 6.94094 8.9125 7.9985C8.9125 9.05606 9.7905 9.91338 10.8736 9.91338Z" fill="#34A851"/>
<path d="M15.3654 5.82783C14.7461 4.66265 13.6653 3.76894 12.3593 3.37762L9.45473 6.67678C9.81185 6.31142 10.3155 6.0838 10.8736 6.0838C11.9566 6.0838 12.8346 6.94111 12.8346 7.99867C12.8346 8.4301 12.6885 8.82821 12.442 9.14838L15.3654 5.82783Z" fill="#4285F5"/>
<path d="M8.61759 13.4922C8.59822 13.4702 8.57867 13.448 8.55894 13.4256C7.83412 12.6021 6.87311 11.5102 6.30221 10.2575L9.32109 6.82857C9.06495 7.15216 8.91254 7.558 8.91254 7.99863C8.91254 9.05618 9.79053 9.9135 10.8736 9.9135C11.4222 9.9135 11.9182 9.69351 12.2742 9.33895L8.61759 13.4922Z" fill="#F9BB0E"/>
<path d="M7.01274 4.9093C6.26625 5.76985 5.81609 6.88326 5.81609 8.09934C5.81609 8.11964 5.81622 8.13992 5.81647 8.16017C5.81622 8.17338 5.81609 8.18669 5.81609 8.20013C5.81609 8.91899 6.00698 9.60973 6.30217 10.2575L9.31597 6.83429L7.01274 4.9093Z" fill="#E74335"/>
<path d="M12.3594 3.37747C11.8896 3.2367 11.3907 3.16092 10.8736 3.16092C9.32586 3.16092 7.9405 3.8398 7.0128 4.90924L9.31603 6.83421L9.32104 6.82852C9.36294 6.7756 9.4076 6.72486 9.45484 6.67654L12.3594 3.37747Z" fill="#1A73E6"/>
</g>
<defs>
<filter id="filter0_d_0_519" x="-1.26437" y="-1.01149" width="24.2759" height="24.2759" filterUnits="userSpaceOnUse" color-interpolation-filters="sRGB">
<feFlood flood-opacity="0" result="BackgroundImageFix"/>
<feColorMatrix in="SourceAlpha" type="matrix" values="0 0 0 0 0 0 0 0 0 0 0 0 0 0 0 0 0 0 127 0" result="hardAlpha"/>
<feOffset dy="1"/>
<feGaussianBlur stdDeviation="1"/>
<feComposite in2="hardAlpha" operator="out"/>
<feColorMatrix type="matrix" values="0 0 0 0 0.0627451 0 0 0 0 0.0941176 0 0 0 0 0.156863 0 0 0 0.05 0"/>
<feBlend mode="normal" in2="BackgroundImageFix" result="effect1_dropShadow_0_519"/>
<feBlend mode="normal" in="SourceGraphic" in2="effect1_dropShadow_0_519" result="shape"/>
</filter>
</defs>
</svg>
