<svg width="18" height="17" viewBox="0 0 18 17" fill="none" xmlns="http://www.w3.org/2000/svg">
<path d="M8.44211 0.313053C8.61559 -0.104051 9.20646 -0.104051 9.37995 0.313053L11.4785 5.35864C11.5517 5.53448 11.717 5.65463 11.9069 5.66985L17.354 6.10654C17.8043 6.14264 17.9869 6.7046 17.6438 6.99848L13.4937 10.5535C13.349 10.6774 13.2859 10.8718 13.3301 11.0571L14.598 16.3725C14.7028 16.812 14.2248 17.1593 13.8393 16.9238L9.17575 14.0753C9.01323 13.9761 8.80882 13.9761 8.6463 14.0753L3.98279 16.9238C3.59727 17.1593 3.11925 16.812 3.22406 16.3725L4.492 11.0571C4.53619 10.8718 4.47302 10.6774 4.32839 10.5535L0.178244 6.99848C-0.164836 6.7046 0.0177537 6.14264 0.468052 6.10654L5.91519 5.66985C6.10503 5.65463 6.27039 5.53448 6.34353 5.35865L8.44211 0.313053Z" fill="#F2F4F7"/>
</svg>
