<svg width="22" height="22" viewBox="0 0 22 22" fill="none" xmlns="http://www.w3.org/2000/svg">
<g filter="url(#filter0_d_270_2262)">
<path d="M2 7.47222C2 5.29424 2 4.20525 2.42386 3.37337C2.7967 2.64163 3.39163 2.0467 4.12337 1.67386C4.95525 1.25 6.04424 1.25 8.22222 1.25H13.2778C15.4558 1.25 16.5448 1.25 17.3766 1.67386C18.1084 2.0467 18.7033 2.64163 19.0761 3.37337C19.5 4.20525 19.5 5.29424 19.5 7.47222V12.5278C19.5 14.7058 19.5 15.7948 19.0761 16.6266C18.7033 17.3584 18.1084 17.9533 17.3766 18.3261C16.5448 18.75 15.4558 18.75 13.2778 18.75H8.22222C6.04424 18.75 4.95525 18.75 4.12337 18.3261C3.39163 17.9533 2.7967 17.3584 2.42386 16.6266C2 15.7948 2 14.7058 2 12.5278V7.47222Z" fill="white"/>
<path fill-rule="evenodd" clip-rule="evenodd" d="M15.75 8.00725L15.7499 8.03381C15.7499 8.045 15.7498 8.05619 15.7496 8.06738C15.7499 8.08044 15.75 8.0936 15.75 8.10688C15.75 10.1921 14.1255 12.0378 13.0384 13.2729C12.7229 13.6313 12.4527 13.9383 12.2806 14.1848C11.6684 15.0616 11.3452 16.0115 11.2602 16.3768C11.2602 16.652 11.0318 16.875 10.75 16.875C10.4682 16.875 10.2398 16.652 10.2398 16.3768C10.1548 16.0115 9.83163 15.0616 9.21939 14.1848C9.04727 13.9383 8.77708 13.6313 8.46164 13.2729C7.37454 12.0378 5.75 10.1921 5.75 8.10688C5.75 8.0936 5.75012 8.08044 5.75037 8.06738C5.75012 8.04736 5.75 8.02731 5.75 8.00725C5.75 5.31085 7.98857 3.125 10.75 3.125C13.5114 3.125 15.75 5.31085 15.75 8.00725ZM10.75 9.80072C11.8208 9.80072 12.6888 8.95315 12.6888 7.90761C12.6888 6.86207 11.8208 6.01449 10.75 6.01449C9.67924 6.01449 8.81122 6.86207 8.81122 7.90761C8.81122 8.95315 9.67924 9.80072 10.75 9.80072Z" fill="#34A851"/>
<path d="M15.1908 5.7616C14.5785 4.60966 13.51 3.72611 12.2189 3.33923L9.34729 6.60091C9.70035 6.2397 10.1983 6.01466 10.75 6.01466C11.8207 6.01466 12.6888 6.86224 12.6888 7.90778C12.6888 8.3343 12.5443 8.72789 12.3006 9.04442L15.1908 5.7616Z" fill="#4285F5"/>
<path d="M8.51966 13.3389C8.50051 13.3171 8.48118 13.2952 8.46167 13.273C7.7451 12.4589 6.795 11.3794 6.23059 10.141L9.21517 6.75098C8.96194 7.07088 8.81126 7.47211 8.81126 7.90773C8.81126 8.95327 9.67928 9.80085 10.75 9.80085C11.2924 9.80085 11.7828 9.58335 12.1347 9.23282L8.51966 13.3389Z" fill="#F9BB0E"/>
<path d="M6.93305 4.85352C6.19505 5.70428 5.75 6.80504 5.75 8.00731C5.75 8.02737 5.75012 8.04742 5.75037 8.06744C5.75012 8.0805 5.75 8.09366 5.75 8.10694C5.75 8.81764 5.93872 9.50053 6.23056 10.1409L9.21011 6.75663L6.93305 4.85352Z" fill="#E74335"/>
<path d="M12.2189 3.33909C11.7545 3.19992 11.2612 3.125 10.75 3.125C9.21988 3.125 7.85026 3.79617 6.93311 4.85346L9.21017 6.75655L9.21512 6.75093C9.25654 6.6986 9.3007 6.64844 9.34739 6.60067L12.2189 3.33909Z" fill="#1A73E6"/>
</g>
<defs>
<filter id="filter0_d_270_2262" x="-1.25" y="-1" width="24" height="24" filterUnits="userSpaceOnUse" color-interpolation-filters="sRGB">
<feFlood flood-opacity="0" result="BackgroundImageFix"/>
<feColorMatrix in="SourceAlpha" type="matrix" values="0 0 0 0 0 0 0 0 0 0 0 0 0 0 0 0 0 0 127 0" result="hardAlpha"/>
<feOffset dy="1"/>
<feGaussianBlur stdDeviation="1"/>
<feComposite in2="hardAlpha" operator="out"/>
<feColorMatrix type="matrix" values="0 0 0 0 0.0627451 0 0 0 0 0.0941176 0 0 0 0 0.156863 0 0 0 0.05 0"/>
<feBlend mode="normal" in2="BackgroundImageFix" result="effect1_dropShadow_270_2262"/>
<feBlend mode="normal" in="SourceGraphic" in2="effect1_dropShadow_270_2262" result="shape"/>
</filter>
</defs>
</svg>
